%
M48
M72
T01C0.0200
T02C0.0400
T03C0.1181
%
T01
X5096Y5151
X3796Y2251
X5796Y2251
X8096Y2151
X5296Y7351
X4096Y6551
X5396Y3051
X5096Y4451
X5096Y3751
X1596Y7151
X4596Y8751
X6296Y10551
X3246Y10851
X3796Y13351
X5496Y13351
X6896Y9851
X6196Y8751
X6196Y7751
X2396Y6651
X6796Y8251
X6796Y10551
T02
X1496Y2851
X1496Y3851
X1496Y4851
X1496Y5851
T03
X1584Y939
X1584Y13143
X7983Y13143
X7983Y939
M30
