G75*
G70*
%OFA0B0*%
%FSLAX24Y24*%
%IPPOS*%
%LPD*%
%AMOC8*
5,1,8,0,0,1.08239X$1,22.5*
%
%ADD10C,0.0100*%
%ADD11C,0.0000*%
%ADD12C,0.0050*%
%ADD13C,0.0060*%
%ADD14C,0.0110*%
%ADD15C,0.0080*%
D10*
X000796Y000151D02*
X008770Y000151D01*
X008770Y013931D01*
X000796Y013931D01*
X000796Y000151D01*
X002846Y000351D02*
X002846Y007001D01*
X004196Y007001D01*
X003396Y009301D02*
X002346Y009301D01*
X002346Y013701D01*
X006096Y007001D02*
X006746Y007001D01*
X006746Y000351D01*
X006796Y009301D02*
X007246Y009301D01*
X007246Y009801D01*
X007246Y011401D02*
X007246Y013701D01*
D11*
X007392Y013143D02*
X007394Y013191D01*
X007400Y013239D01*
X007410Y013286D01*
X007423Y013332D01*
X007441Y013377D01*
X007461Y013421D01*
X007486Y013463D01*
X007514Y013502D01*
X007544Y013539D01*
X007578Y013573D01*
X007615Y013605D01*
X007653Y013634D01*
X007694Y013659D01*
X007737Y013681D01*
X007782Y013699D01*
X007828Y013713D01*
X007875Y013724D01*
X007923Y013731D01*
X007971Y013734D01*
X008019Y013733D01*
X008067Y013728D01*
X008115Y013719D01*
X008161Y013707D01*
X008206Y013690D01*
X008250Y013670D01*
X008292Y013647D01*
X008332Y013620D01*
X008370Y013590D01*
X008405Y013557D01*
X008437Y013521D01*
X008467Y013483D01*
X008493Y013442D01*
X008515Y013399D01*
X008535Y013355D01*
X008550Y013310D01*
X008562Y013263D01*
X008570Y013215D01*
X008574Y013167D01*
X008574Y013119D01*
X008570Y013071D01*
X008562Y013023D01*
X008550Y012976D01*
X008535Y012931D01*
X008515Y012887D01*
X008493Y012844D01*
X008467Y012803D01*
X008437Y012765D01*
X008405Y012729D01*
X008370Y012696D01*
X008332Y012666D01*
X008292Y012639D01*
X008250Y012616D01*
X008206Y012596D01*
X008161Y012579D01*
X008115Y012567D01*
X008067Y012558D01*
X008019Y012553D01*
X007971Y012552D01*
X007923Y012555D01*
X007875Y012562D01*
X007828Y012573D01*
X007782Y012587D01*
X007737Y012605D01*
X007694Y012627D01*
X007653Y012652D01*
X007615Y012681D01*
X007578Y012713D01*
X007544Y012747D01*
X007514Y012784D01*
X007486Y012823D01*
X007461Y012865D01*
X007441Y012909D01*
X007423Y012954D01*
X007410Y013000D01*
X007400Y013047D01*
X007394Y013095D01*
X007392Y013143D01*
X000993Y013143D02*
X000995Y013191D01*
X001001Y013239D01*
X001011Y013286D01*
X001024Y013332D01*
X001042Y013377D01*
X001062Y013421D01*
X001087Y013463D01*
X001115Y013502D01*
X001145Y013539D01*
X001179Y013573D01*
X001216Y013605D01*
X001254Y013634D01*
X001295Y013659D01*
X001338Y013681D01*
X001383Y013699D01*
X001429Y013713D01*
X001476Y013724D01*
X001524Y013731D01*
X001572Y013734D01*
X001620Y013733D01*
X001668Y013728D01*
X001716Y013719D01*
X001762Y013707D01*
X001807Y013690D01*
X001851Y013670D01*
X001893Y013647D01*
X001933Y013620D01*
X001971Y013590D01*
X002006Y013557D01*
X002038Y013521D01*
X002068Y013483D01*
X002094Y013442D01*
X002116Y013399D01*
X002136Y013355D01*
X002151Y013310D01*
X002163Y013263D01*
X002171Y013215D01*
X002175Y013167D01*
X002175Y013119D01*
X002171Y013071D01*
X002163Y013023D01*
X002151Y012976D01*
X002136Y012931D01*
X002116Y012887D01*
X002094Y012844D01*
X002068Y012803D01*
X002038Y012765D01*
X002006Y012729D01*
X001971Y012696D01*
X001933Y012666D01*
X001893Y012639D01*
X001851Y012616D01*
X001807Y012596D01*
X001762Y012579D01*
X001716Y012567D01*
X001668Y012558D01*
X001620Y012553D01*
X001572Y012552D01*
X001524Y012555D01*
X001476Y012562D01*
X001429Y012573D01*
X001383Y012587D01*
X001338Y012605D01*
X001295Y012627D01*
X001254Y012652D01*
X001216Y012681D01*
X001179Y012713D01*
X001145Y012747D01*
X001115Y012784D01*
X001087Y012823D01*
X001062Y012865D01*
X001042Y012909D01*
X001024Y012954D01*
X001011Y013000D01*
X001001Y013047D01*
X000995Y013095D01*
X000993Y013143D01*
X000993Y000939D02*
X000995Y000987D01*
X001001Y001035D01*
X001011Y001082D01*
X001024Y001128D01*
X001042Y001173D01*
X001062Y001217D01*
X001087Y001259D01*
X001115Y001298D01*
X001145Y001335D01*
X001179Y001369D01*
X001216Y001401D01*
X001254Y001430D01*
X001295Y001455D01*
X001338Y001477D01*
X001383Y001495D01*
X001429Y001509D01*
X001476Y001520D01*
X001524Y001527D01*
X001572Y001530D01*
X001620Y001529D01*
X001668Y001524D01*
X001716Y001515D01*
X001762Y001503D01*
X001807Y001486D01*
X001851Y001466D01*
X001893Y001443D01*
X001933Y001416D01*
X001971Y001386D01*
X002006Y001353D01*
X002038Y001317D01*
X002068Y001279D01*
X002094Y001238D01*
X002116Y001195D01*
X002136Y001151D01*
X002151Y001106D01*
X002163Y001059D01*
X002171Y001011D01*
X002175Y000963D01*
X002175Y000915D01*
X002171Y000867D01*
X002163Y000819D01*
X002151Y000772D01*
X002136Y000727D01*
X002116Y000683D01*
X002094Y000640D01*
X002068Y000599D01*
X002038Y000561D01*
X002006Y000525D01*
X001971Y000492D01*
X001933Y000462D01*
X001893Y000435D01*
X001851Y000412D01*
X001807Y000392D01*
X001762Y000375D01*
X001716Y000363D01*
X001668Y000354D01*
X001620Y000349D01*
X001572Y000348D01*
X001524Y000351D01*
X001476Y000358D01*
X001429Y000369D01*
X001383Y000383D01*
X001338Y000401D01*
X001295Y000423D01*
X001254Y000448D01*
X001216Y000477D01*
X001179Y000509D01*
X001145Y000543D01*
X001115Y000580D01*
X001087Y000619D01*
X001062Y000661D01*
X001042Y000705D01*
X001024Y000750D01*
X001011Y000796D01*
X001001Y000843D01*
X000995Y000891D01*
X000993Y000939D01*
X007392Y000939D02*
X007394Y000987D01*
X007400Y001035D01*
X007410Y001082D01*
X007423Y001128D01*
X007441Y001173D01*
X007461Y001217D01*
X007486Y001259D01*
X007514Y001298D01*
X007544Y001335D01*
X007578Y001369D01*
X007615Y001401D01*
X007653Y001430D01*
X007694Y001455D01*
X007737Y001477D01*
X007782Y001495D01*
X007828Y001509D01*
X007875Y001520D01*
X007923Y001527D01*
X007971Y001530D01*
X008019Y001529D01*
X008067Y001524D01*
X008115Y001515D01*
X008161Y001503D01*
X008206Y001486D01*
X008250Y001466D01*
X008292Y001443D01*
X008332Y001416D01*
X008370Y001386D01*
X008405Y001353D01*
X008437Y001317D01*
X008467Y001279D01*
X008493Y001238D01*
X008515Y001195D01*
X008535Y001151D01*
X008550Y001106D01*
X008562Y001059D01*
X008570Y001011D01*
X008574Y000963D01*
X008574Y000915D01*
X008570Y000867D01*
X008562Y000819D01*
X008550Y000772D01*
X008535Y000727D01*
X008515Y000683D01*
X008493Y000640D01*
X008467Y000599D01*
X008437Y000561D01*
X008405Y000525D01*
X008370Y000492D01*
X008332Y000462D01*
X008292Y000435D01*
X008250Y000412D01*
X008206Y000392D01*
X008161Y000375D01*
X008115Y000363D01*
X008067Y000354D01*
X008019Y000349D01*
X007971Y000348D01*
X007923Y000351D01*
X007875Y000358D01*
X007828Y000369D01*
X007782Y000383D01*
X007737Y000401D01*
X007694Y000423D01*
X007653Y000448D01*
X007615Y000477D01*
X007578Y000509D01*
X007544Y000543D01*
X007514Y000580D01*
X007486Y000619D01*
X007461Y000661D01*
X007441Y000705D01*
X007423Y000750D01*
X007410Y000796D01*
X007400Y000843D01*
X007394Y000891D01*
X007392Y000939D01*
D12*
X007426Y003276D02*
X007246Y003276D01*
X007201Y003321D01*
X007201Y003411D01*
X007246Y003456D01*
X007336Y003456D02*
X007336Y003366D01*
X007336Y003456D02*
X007426Y003456D01*
X007471Y003411D01*
X007471Y003321D01*
X007426Y003276D01*
X007471Y003571D02*
X007201Y003571D01*
X007471Y003751D01*
X007201Y003751D01*
X007201Y003865D02*
X007201Y004001D01*
X007246Y004046D01*
X007426Y004046D01*
X007471Y004001D01*
X007471Y003865D01*
X007201Y003865D01*
X007201Y005576D02*
X007381Y005576D01*
X007471Y005666D01*
X007381Y005756D01*
X007201Y005756D01*
X007246Y005871D02*
X007201Y005916D01*
X007201Y006006D01*
X007246Y006051D01*
X007246Y006165D02*
X007426Y006165D01*
X007471Y006210D01*
X007471Y006301D01*
X007426Y006346D01*
X007246Y006346D02*
X007201Y006301D01*
X007201Y006210D01*
X007246Y006165D01*
X007426Y006051D02*
X007471Y006006D01*
X007471Y005916D01*
X007426Y005871D01*
X007246Y005871D01*
X005887Y007061D02*
X005887Y008242D01*
X004706Y008242D01*
X004706Y007061D01*
X005887Y007061D01*
X005469Y007966D02*
X005471Y007989D01*
X005477Y008012D01*
X005486Y008034D01*
X005499Y008053D01*
X005515Y008070D01*
X005533Y008085D01*
X005554Y008096D01*
X005576Y008104D01*
X005599Y008108D01*
X005623Y008108D01*
X005646Y008104D01*
X005668Y008096D01*
X005689Y008085D01*
X005707Y008070D01*
X005723Y008053D01*
X005736Y008034D01*
X005745Y008012D01*
X005751Y007989D01*
X005753Y007966D01*
X005751Y007943D01*
X005745Y007920D01*
X005736Y007898D01*
X005723Y007879D01*
X005707Y007862D01*
X005689Y007847D01*
X005668Y007836D01*
X005646Y007828D01*
X005623Y007824D01*
X005599Y007824D01*
X005576Y007828D01*
X005554Y007836D01*
X005533Y007847D01*
X005515Y007862D01*
X005499Y007879D01*
X005486Y007898D01*
X005477Y007920D01*
X005471Y007943D01*
X005469Y007966D01*
X007101Y010076D02*
X007101Y010256D01*
X007101Y010166D02*
X007371Y010166D01*
X007326Y010371D02*
X007371Y010416D01*
X007371Y010506D01*
X007326Y010551D01*
X007101Y010551D01*
X007101Y010665D02*
X007371Y010846D01*
X007101Y010846D01*
X007101Y010960D02*
X007371Y010960D01*
X007371Y011140D01*
X007236Y011050D02*
X007236Y010960D01*
X007101Y010960D02*
X007101Y011140D01*
X007101Y010665D02*
X007371Y010665D01*
X007326Y010371D02*
X007101Y010371D01*
X006388Y011059D02*
X006388Y012181D01*
X006172Y012181D01*
X005621Y012181D02*
X005404Y012181D01*
X005404Y011059D01*
X005542Y010921D01*
X005621Y010921D01*
X006172Y010921D02*
X006251Y010921D01*
X006388Y011059D01*
X005154Y012854D02*
X005154Y013248D01*
X004839Y013248D02*
X004839Y012854D01*
X004957Y012894D02*
X005036Y012894D01*
X004454Y012854D02*
X004454Y013248D01*
X004139Y013248D02*
X004139Y012854D01*
X004257Y012894D02*
X004336Y012894D01*
X007201Y008601D02*
X007471Y008601D01*
X007201Y008421D01*
X007471Y008421D01*
X007471Y008306D02*
X007471Y008126D01*
X007201Y008126D01*
X007201Y008306D01*
X007336Y008216D02*
X007336Y008126D01*
D13*
X003685Y006721D02*
X003458Y006721D01*
X003458Y006381D01*
X003316Y006381D02*
X003203Y006495D01*
X003260Y006495D02*
X003090Y006495D01*
X003090Y006381D02*
X003090Y006721D01*
X003260Y006721D01*
X003316Y006665D01*
X003316Y006551D01*
X003260Y006495D01*
X003458Y006551D02*
X003571Y006551D01*
D14*
X001100Y002205D02*
X001001Y002205D01*
X001001Y002106D01*
X001100Y002106D01*
X001100Y002205D01*
D15*
X001246Y002351D02*
X000996Y002601D01*
X000996Y003101D01*
X001246Y003351D01*
X000996Y003601D01*
X000996Y004101D01*
X001246Y004351D01*
X000996Y004601D01*
X000996Y005101D01*
X001246Y005351D01*
X000996Y005601D01*
X000996Y006101D01*
X001246Y006351D01*
X001746Y006351D01*
X001996Y006101D01*
X001996Y005601D01*
X001746Y005351D01*
X001996Y005101D01*
X001996Y004601D01*
X001746Y004351D01*
X001996Y004101D01*
X001996Y003601D01*
X001746Y003351D01*
X001996Y003101D01*
X001996Y002601D01*
X001746Y002351D01*
X001246Y002351D01*
X004460Y009321D02*
X004932Y009321D01*
X005680Y009833D02*
X005680Y010069D01*
X004932Y010581D02*
X004460Y010581D01*
X003712Y010069D02*
X003712Y009833D01*
M02*
