G75*
G70*
%OFA0B0*%
%FSLAX24Y24*%
%IPPOS*%
%LPD*%
%AMOC8*
5,1,8,0,0,1.08239X$1,22.5*
%
%ADD10C,0.0000*%
%ADD11C,0.0010*%
%ADD12C,0.0110*%
%ADD13C,0.0100*%
%ADD14C,0.0080*%
%ADD15C,0.0050*%
%ADD16C,0.0060*%
%ADD17C,0.0157*%
%ADD18C,0.0157*%
%ADD19C,0.0079*%
D10*
X005877Y004927D02*
X005879Y004975D01*
X005885Y005023D01*
X005895Y005070D01*
X005908Y005116D01*
X005926Y005161D01*
X005946Y005205D01*
X005971Y005247D01*
X005999Y005286D01*
X006029Y005323D01*
X006063Y005357D01*
X006100Y005389D01*
X006138Y005418D01*
X006179Y005443D01*
X006222Y005465D01*
X006267Y005483D01*
X006313Y005497D01*
X006360Y005508D01*
X006408Y005515D01*
X006456Y005518D01*
X006504Y005517D01*
X006552Y005512D01*
X006600Y005503D01*
X006646Y005491D01*
X006691Y005474D01*
X006735Y005454D01*
X006777Y005431D01*
X006817Y005404D01*
X006855Y005374D01*
X006890Y005341D01*
X006922Y005305D01*
X006952Y005267D01*
X006978Y005226D01*
X007000Y005183D01*
X007020Y005139D01*
X007035Y005094D01*
X007047Y005047D01*
X007055Y004999D01*
X007059Y004951D01*
X007059Y004903D01*
X007055Y004855D01*
X007047Y004807D01*
X007035Y004760D01*
X007020Y004715D01*
X007000Y004671D01*
X006978Y004628D01*
X006952Y004587D01*
X006922Y004549D01*
X006890Y004513D01*
X006855Y004480D01*
X006817Y004450D01*
X006777Y004423D01*
X006735Y004400D01*
X006691Y004380D01*
X006646Y004363D01*
X006600Y004351D01*
X006552Y004342D01*
X006504Y004337D01*
X006456Y004336D01*
X006408Y004339D01*
X006360Y004346D01*
X006313Y004357D01*
X006267Y004371D01*
X006222Y004389D01*
X006179Y004411D01*
X006138Y004436D01*
X006100Y004465D01*
X006063Y004497D01*
X006029Y004531D01*
X005999Y004568D01*
X005971Y004607D01*
X005946Y004649D01*
X005926Y004693D01*
X005908Y004738D01*
X005895Y004784D01*
X005885Y004831D01*
X005879Y004879D01*
X005877Y004927D01*
X005877Y022250D02*
X005879Y022298D01*
X005885Y022346D01*
X005895Y022393D01*
X005908Y022439D01*
X005926Y022484D01*
X005946Y022528D01*
X005971Y022570D01*
X005999Y022609D01*
X006029Y022646D01*
X006063Y022680D01*
X006100Y022712D01*
X006138Y022741D01*
X006179Y022766D01*
X006222Y022788D01*
X006267Y022806D01*
X006313Y022820D01*
X006360Y022831D01*
X006408Y022838D01*
X006456Y022841D01*
X006504Y022840D01*
X006552Y022835D01*
X006600Y022826D01*
X006646Y022814D01*
X006691Y022797D01*
X006735Y022777D01*
X006777Y022754D01*
X006817Y022727D01*
X006855Y022697D01*
X006890Y022664D01*
X006922Y022628D01*
X006952Y022590D01*
X006978Y022549D01*
X007000Y022506D01*
X007020Y022462D01*
X007035Y022417D01*
X007047Y022370D01*
X007055Y022322D01*
X007059Y022274D01*
X007059Y022226D01*
X007055Y022178D01*
X007047Y022130D01*
X007035Y022083D01*
X007020Y022038D01*
X007000Y021994D01*
X006978Y021951D01*
X006952Y021910D01*
X006922Y021872D01*
X006890Y021836D01*
X006855Y021803D01*
X006817Y021773D01*
X006777Y021746D01*
X006735Y021723D01*
X006691Y021703D01*
X006646Y021686D01*
X006600Y021674D01*
X006552Y021665D01*
X006504Y021660D01*
X006456Y021659D01*
X006408Y021662D01*
X006360Y021669D01*
X006313Y021680D01*
X006267Y021694D01*
X006222Y021712D01*
X006179Y021734D01*
X006138Y021759D01*
X006100Y021788D01*
X006063Y021820D01*
X006029Y021854D01*
X005999Y021891D01*
X005971Y021930D01*
X005946Y021972D01*
X005926Y022016D01*
X005908Y022061D01*
X005895Y022107D01*
X005885Y022154D01*
X005879Y022202D01*
X005877Y022250D01*
X020444Y022250D02*
X020446Y022298D01*
X020452Y022346D01*
X020462Y022393D01*
X020475Y022439D01*
X020493Y022484D01*
X020513Y022528D01*
X020538Y022570D01*
X020566Y022609D01*
X020596Y022646D01*
X020630Y022680D01*
X020667Y022712D01*
X020705Y022741D01*
X020746Y022766D01*
X020789Y022788D01*
X020834Y022806D01*
X020880Y022820D01*
X020927Y022831D01*
X020975Y022838D01*
X021023Y022841D01*
X021071Y022840D01*
X021119Y022835D01*
X021167Y022826D01*
X021213Y022814D01*
X021258Y022797D01*
X021302Y022777D01*
X021344Y022754D01*
X021384Y022727D01*
X021422Y022697D01*
X021457Y022664D01*
X021489Y022628D01*
X021519Y022590D01*
X021545Y022549D01*
X021567Y022506D01*
X021587Y022462D01*
X021602Y022417D01*
X021614Y022370D01*
X021622Y022322D01*
X021626Y022274D01*
X021626Y022226D01*
X021622Y022178D01*
X021614Y022130D01*
X021602Y022083D01*
X021587Y022038D01*
X021567Y021994D01*
X021545Y021951D01*
X021519Y021910D01*
X021489Y021872D01*
X021457Y021836D01*
X021422Y021803D01*
X021384Y021773D01*
X021344Y021746D01*
X021302Y021723D01*
X021258Y021703D01*
X021213Y021686D01*
X021167Y021674D01*
X021119Y021665D01*
X021071Y021660D01*
X021023Y021659D01*
X020975Y021662D01*
X020927Y021669D01*
X020880Y021680D01*
X020834Y021694D01*
X020789Y021712D01*
X020746Y021734D01*
X020705Y021759D01*
X020667Y021788D01*
X020630Y021820D01*
X020596Y021854D01*
X020566Y021891D01*
X020538Y021930D01*
X020513Y021972D01*
X020493Y022016D01*
X020475Y022061D01*
X020462Y022107D01*
X020452Y022154D01*
X020446Y022202D01*
X020444Y022250D01*
X020444Y004927D02*
X020446Y004975D01*
X020452Y005023D01*
X020462Y005070D01*
X020475Y005116D01*
X020493Y005161D01*
X020513Y005205D01*
X020538Y005247D01*
X020566Y005286D01*
X020596Y005323D01*
X020630Y005357D01*
X020667Y005389D01*
X020705Y005418D01*
X020746Y005443D01*
X020789Y005465D01*
X020834Y005483D01*
X020880Y005497D01*
X020927Y005508D01*
X020975Y005515D01*
X021023Y005518D01*
X021071Y005517D01*
X021119Y005512D01*
X021167Y005503D01*
X021213Y005491D01*
X021258Y005474D01*
X021302Y005454D01*
X021344Y005431D01*
X021384Y005404D01*
X021422Y005374D01*
X021457Y005341D01*
X021489Y005305D01*
X021519Y005267D01*
X021545Y005226D01*
X021567Y005183D01*
X021587Y005139D01*
X021602Y005094D01*
X021614Y005047D01*
X021622Y004999D01*
X021626Y004951D01*
X021626Y004903D01*
X021622Y004855D01*
X021614Y004807D01*
X021602Y004760D01*
X021587Y004715D01*
X021567Y004671D01*
X021545Y004628D01*
X021519Y004587D01*
X021489Y004549D01*
X021457Y004513D01*
X021422Y004480D01*
X021384Y004450D01*
X021344Y004423D01*
X021302Y004400D01*
X021258Y004380D01*
X021213Y004363D01*
X021167Y004351D01*
X021119Y004342D01*
X021071Y004337D01*
X021023Y004336D01*
X020975Y004339D01*
X020927Y004346D01*
X020880Y004357D01*
X020834Y004371D01*
X020789Y004389D01*
X020746Y004411D01*
X020705Y004436D01*
X020667Y004465D01*
X020630Y004497D01*
X020596Y004531D01*
X020566Y004568D01*
X020538Y004607D01*
X020513Y004649D01*
X020493Y004693D01*
X020475Y004738D01*
X020462Y004784D01*
X020452Y004831D01*
X020446Y004879D01*
X020444Y004927D01*
D11*
X019854Y004927D02*
X007649Y004927D01*
X007649Y004928D02*
X007646Y004860D01*
X007638Y004793D01*
X007627Y004726D01*
X007612Y004660D01*
X007593Y004595D01*
X007571Y004531D01*
X007544Y004469D01*
X007514Y004408D01*
X007481Y004349D01*
X007444Y004292D01*
X007404Y004238D01*
X007361Y004186D01*
X007315Y004136D01*
X007266Y004089D01*
X007214Y004045D01*
X007160Y004005D01*
X007104Y003967D01*
X007046Y003933D01*
X006985Y003902D01*
X006923Y003875D01*
X006860Y003852D01*
X006795Y003832D01*
X006729Y003816D01*
X006663Y003804D01*
X006595Y003796D01*
X006528Y003792D01*
X006460Y003791D01*
X006392Y003795D01*
X006325Y003803D01*
X006258Y003814D01*
X006193Y003830D01*
X006128Y003849D01*
X006064Y003872D01*
X006002Y003899D01*
X005941Y003929D01*
X005883Y003963D01*
X005826Y004000D01*
X005772Y004041D01*
X005720Y004084D01*
X005670Y004130D01*
X005624Y004180D01*
X005581Y004232D01*
X005540Y004286D01*
X005503Y004343D01*
X005469Y004401D01*
X005439Y004462D01*
X005412Y004524D01*
X005389Y004588D01*
X005370Y004653D01*
X005354Y004718D01*
X005343Y004785D01*
X005335Y004852D01*
X005331Y004920D01*
X005332Y004988D01*
X005336Y005055D01*
X005344Y005123D01*
X005356Y005189D01*
X005372Y005255D01*
X005392Y005320D01*
X005415Y005383D01*
X005442Y005445D01*
X005473Y005506D01*
X005507Y005564D01*
X005545Y005620D01*
X005585Y005674D01*
X005629Y005726D01*
X005676Y005775D01*
X005726Y005821D01*
X005778Y005864D01*
X005832Y005904D01*
X005889Y005941D01*
X005948Y005974D01*
X006009Y006004D01*
X006071Y006031D01*
X006135Y006053D01*
X006200Y006072D01*
X006266Y006087D01*
X006333Y006098D01*
X006400Y006106D01*
X006468Y006109D01*
X006468Y006108D02*
X006468Y021069D01*
X006400Y021072D01*
X006333Y021080D01*
X006266Y021091D01*
X006200Y021106D01*
X006135Y021125D01*
X006071Y021147D01*
X006009Y021174D01*
X005948Y021204D01*
X005889Y021237D01*
X005832Y021274D01*
X005778Y021314D01*
X005726Y021357D01*
X005676Y021403D01*
X005629Y021452D01*
X005585Y021504D01*
X005545Y021558D01*
X005507Y021614D01*
X005473Y021672D01*
X005442Y021733D01*
X005415Y021795D01*
X005392Y021858D01*
X005372Y021923D01*
X005356Y021989D01*
X005344Y022055D01*
X005336Y022123D01*
X005332Y022190D01*
X005331Y022258D01*
X005335Y022326D01*
X005343Y022393D01*
X005354Y022460D01*
X005370Y022525D01*
X005389Y022590D01*
X005412Y022654D01*
X005439Y022716D01*
X005469Y022777D01*
X005503Y022835D01*
X005540Y022892D01*
X005581Y022946D01*
X005624Y022998D01*
X005670Y023048D01*
X005720Y023094D01*
X005772Y023137D01*
X005826Y023178D01*
X005883Y023215D01*
X005941Y023249D01*
X006002Y023279D01*
X006064Y023306D01*
X006128Y023329D01*
X006193Y023348D01*
X006258Y023364D01*
X006325Y023375D01*
X006392Y023383D01*
X006460Y023387D01*
X006528Y023386D01*
X006595Y023382D01*
X006663Y023374D01*
X006729Y023362D01*
X006795Y023346D01*
X006860Y023326D01*
X006923Y023303D01*
X006985Y023276D01*
X007046Y023245D01*
X007104Y023211D01*
X007160Y023173D01*
X007214Y023133D01*
X007266Y023089D01*
X007315Y023042D01*
X007361Y022992D01*
X007404Y022940D01*
X007444Y022886D01*
X007481Y022829D01*
X007514Y022770D01*
X007544Y022709D01*
X007571Y022647D01*
X007593Y022583D01*
X007612Y022518D01*
X007627Y022452D01*
X007638Y022385D01*
X007646Y022318D01*
X007649Y022250D01*
X019854Y022250D01*
X019857Y022318D01*
X019865Y022385D01*
X019876Y022452D01*
X019891Y022518D01*
X019910Y022583D01*
X019932Y022647D01*
X019959Y022709D01*
X019989Y022770D01*
X020022Y022829D01*
X020059Y022886D01*
X020099Y022940D01*
X020142Y022992D01*
X020188Y023042D01*
X020237Y023089D01*
X020289Y023133D01*
X020343Y023173D01*
X020399Y023211D01*
X020457Y023245D01*
X020518Y023276D01*
X020580Y023303D01*
X020643Y023326D01*
X020708Y023346D01*
X020774Y023362D01*
X020840Y023374D01*
X020908Y023382D01*
X020975Y023386D01*
X021043Y023387D01*
X021111Y023383D01*
X021178Y023375D01*
X021245Y023364D01*
X021310Y023348D01*
X021375Y023329D01*
X021439Y023306D01*
X021501Y023279D01*
X021562Y023249D01*
X021620Y023215D01*
X021677Y023178D01*
X021731Y023137D01*
X021783Y023094D01*
X021833Y023048D01*
X021879Y022998D01*
X021922Y022946D01*
X021963Y022892D01*
X022000Y022835D01*
X022034Y022777D01*
X022064Y022716D01*
X022091Y022654D01*
X022114Y022590D01*
X022133Y022525D01*
X022149Y022460D01*
X022160Y022393D01*
X022168Y022326D01*
X022172Y022258D01*
X022171Y022190D01*
X022167Y022123D01*
X022159Y022055D01*
X022147Y021989D01*
X022131Y021923D01*
X022111Y021858D01*
X022088Y021795D01*
X022061Y021733D01*
X022030Y021672D01*
X021996Y021614D01*
X021958Y021558D01*
X021918Y021504D01*
X021874Y021452D01*
X021827Y021403D01*
X021777Y021357D01*
X021725Y021314D01*
X021671Y021274D01*
X021614Y021237D01*
X021555Y021204D01*
X021494Y021174D01*
X021432Y021147D01*
X021368Y021125D01*
X021303Y021106D01*
X021237Y021091D01*
X021170Y021080D01*
X021103Y021072D01*
X021035Y021069D01*
X021035Y006108D01*
X021035Y006109D02*
X021103Y006106D01*
X021170Y006098D01*
X021237Y006087D01*
X021303Y006072D01*
X021368Y006053D01*
X021432Y006031D01*
X021494Y006004D01*
X021555Y005974D01*
X021614Y005941D01*
X021671Y005904D01*
X021725Y005864D01*
X021777Y005821D01*
X021827Y005775D01*
X021874Y005726D01*
X021918Y005674D01*
X021958Y005620D01*
X021996Y005564D01*
X022030Y005506D01*
X022061Y005445D01*
X022088Y005383D01*
X022111Y005320D01*
X022131Y005255D01*
X022147Y005189D01*
X022159Y005123D01*
X022167Y005055D01*
X022171Y004988D01*
X022172Y004920D01*
X022168Y004852D01*
X022160Y004785D01*
X022149Y004718D01*
X022133Y004653D01*
X022114Y004588D01*
X022091Y004524D01*
X022064Y004462D01*
X022034Y004401D01*
X022000Y004343D01*
X021963Y004286D01*
X021922Y004232D01*
X021879Y004180D01*
X021833Y004130D01*
X021783Y004084D01*
X021731Y004041D01*
X021677Y004000D01*
X021620Y003963D01*
X021562Y003929D01*
X021501Y003899D01*
X021439Y003872D01*
X021375Y003849D01*
X021310Y003830D01*
X021245Y003814D01*
X021178Y003803D01*
X021111Y003795D01*
X021043Y003791D01*
X020975Y003792D01*
X020908Y003796D01*
X020840Y003804D01*
X020774Y003816D01*
X020708Y003832D01*
X020643Y003852D01*
X020580Y003875D01*
X020518Y003902D01*
X020457Y003933D01*
X020399Y003967D01*
X020343Y004005D01*
X020289Y004045D01*
X020237Y004089D01*
X020188Y004136D01*
X020142Y004186D01*
X020099Y004238D01*
X020059Y004292D01*
X020022Y004349D01*
X019989Y004408D01*
X019959Y004469D01*
X019932Y004531D01*
X019910Y004595D01*
X019891Y004660D01*
X019876Y004726D01*
X019865Y004793D01*
X019857Y004860D01*
X019854Y004928D01*
D12*
X010069Y005892D02*
X009675Y005892D01*
X009675Y005301D01*
X009425Y005400D02*
X009326Y005301D01*
X009129Y005301D01*
X009031Y005400D01*
X009129Y005597D02*
X009326Y005597D01*
X009425Y005498D01*
X009425Y005400D01*
X009675Y005597D02*
X009872Y005597D01*
X009425Y005793D02*
X009326Y005892D01*
X009129Y005892D01*
X009031Y005793D01*
X009031Y005695D01*
X009129Y005597D01*
X008780Y005400D02*
X008780Y005892D01*
X008780Y005400D02*
X008682Y005301D01*
X008485Y005301D01*
X008386Y005400D01*
X008386Y005892D01*
X008135Y005793D02*
X008037Y005892D01*
X007840Y005892D01*
X007742Y005793D01*
X007742Y005400D01*
X007840Y005301D01*
X008037Y005301D01*
X008135Y005400D01*
X008085Y021301D02*
X007986Y021400D01*
X007986Y021793D01*
X008085Y021892D01*
X008282Y021892D01*
X008380Y021793D01*
X008380Y021400D01*
X008282Y021301D01*
X008085Y021301D01*
X007637Y021400D02*
X007637Y021892D01*
X007539Y021892D02*
X007735Y021892D01*
X007637Y021400D02*
X007539Y021301D01*
X007440Y021301D01*
X007342Y021400D01*
X008631Y021301D02*
X009025Y021301D01*
X008828Y021597D02*
X008631Y021597D01*
X008631Y021892D02*
X008631Y021301D01*
X008631Y021892D02*
X009025Y021892D01*
X009275Y021892D02*
X009275Y021793D01*
X009472Y021597D01*
X009472Y021301D01*
X009472Y021597D02*
X009669Y021793D01*
X009669Y021892D01*
X009920Y021597D02*
X010314Y021597D01*
X010565Y021892D02*
X010565Y021301D01*
X010958Y021301D02*
X010958Y021892D01*
X010761Y021695D01*
X010565Y021892D01*
D13*
X017687Y005346D02*
X017687Y005046D01*
X019087Y005046D01*
X019087Y005346D01*
D14*
X019137Y005346D02*
X019637Y005346D01*
X019887Y005596D01*
X019887Y007096D01*
X019637Y007346D01*
X019137Y007346D01*
X018887Y007096D01*
X018887Y005596D01*
X019137Y005346D01*
X018887Y005596D02*
X018637Y005346D01*
X018137Y005346D01*
X017887Y005596D01*
X017887Y007096D01*
X018137Y007346D01*
X018637Y007346D01*
X018887Y007096D01*
X017887Y007096D02*
X017637Y007346D01*
X017137Y007346D01*
X016887Y007096D01*
X016887Y005596D01*
X017137Y005346D01*
X017637Y005346D01*
X017887Y005596D01*
X017637Y005214D02*
X017137Y005214D01*
X016747Y005586D02*
X016747Y005726D01*
X016747Y005656D02*
X016326Y005656D01*
X016326Y005586D02*
X016326Y005726D01*
X016397Y005893D02*
X016677Y005893D01*
X016747Y005963D01*
X016747Y006103D01*
X016677Y006173D01*
X016677Y006354D02*
X016747Y006424D01*
X016747Y006564D01*
X016677Y006634D01*
X016607Y006634D01*
X016537Y006564D01*
X016537Y006424D01*
X016467Y006354D01*
X016397Y006354D01*
X016326Y006424D01*
X016326Y006564D01*
X016397Y006634D01*
X016326Y006814D02*
X016326Y007024D01*
X016397Y007094D01*
X016537Y007094D01*
X016607Y007024D01*
X016607Y006814D01*
X016747Y006814D02*
X016326Y006814D01*
X016397Y006173D02*
X016326Y006103D01*
X016326Y005963D01*
X016397Y005893D01*
X013047Y005847D02*
X012626Y005847D01*
X012767Y005987D01*
X012626Y006127D01*
X013047Y006127D01*
X013047Y006307D02*
X012767Y006307D01*
X012626Y006447D01*
X012767Y006587D01*
X013047Y006587D01*
X012837Y006587D02*
X012837Y006307D01*
X012907Y005666D02*
X012977Y005666D01*
X013047Y005596D01*
X013047Y005456D01*
X012977Y005386D01*
X012837Y005456D02*
X012837Y005596D01*
X012907Y005666D01*
X012697Y005666D02*
X012626Y005596D01*
X012626Y005456D01*
X012697Y005386D01*
X012767Y005386D01*
X012837Y005456D01*
X010071Y009628D02*
X010071Y009864D01*
X009323Y010376D02*
X008851Y010376D01*
X008103Y009864D02*
X008103Y009628D01*
X008851Y009116D02*
X009323Y009116D01*
X010136Y011895D02*
X010136Y012997D01*
X011238Y012997D01*
X011238Y011895D01*
X010136Y011895D01*
X009920Y014265D02*
X009920Y014446D01*
X010042Y014538D01*
X009920Y014627D02*
X009920Y014446D01*
X009926Y014436D02*
X010042Y014360D01*
X009920Y014965D02*
X009920Y015146D01*
X010042Y015238D01*
X009920Y015327D02*
X009920Y015146D01*
X009926Y015136D02*
X010042Y015060D01*
X011236Y016364D02*
X011236Y017466D01*
X012338Y017466D01*
X012338Y016364D01*
X011236Y016364D01*
X008128Y019507D02*
X007848Y019507D01*
X007988Y019507D02*
X007988Y019086D01*
X007667Y019156D02*
X007597Y019086D01*
X007457Y019086D01*
X007387Y019156D01*
X007457Y019296D02*
X007597Y019296D01*
X007667Y019226D01*
X007667Y019156D01*
X007457Y019296D02*
X007387Y019366D01*
X007387Y019437D01*
X007457Y019507D01*
X007597Y019507D01*
X007667Y019437D01*
X007207Y019507D02*
X007067Y019507D01*
X007137Y019507D02*
X007137Y019156D01*
X007067Y019086D01*
X006997Y019086D01*
X006927Y019156D01*
X007026Y016948D02*
X007026Y016667D01*
X007026Y016808D02*
X007447Y016808D01*
X007447Y016347D02*
X007026Y016347D01*
X007026Y016207D02*
X007026Y016487D01*
X007167Y016027D02*
X007026Y015887D01*
X007167Y015747D01*
X007447Y015747D01*
X007377Y015566D02*
X007447Y015496D01*
X007447Y015286D01*
X007026Y015286D01*
X007026Y015496D01*
X007097Y015566D01*
X007167Y015566D01*
X007237Y015496D01*
X007237Y015286D01*
X007237Y015496D02*
X007307Y015566D01*
X007377Y015566D01*
X007237Y015747D02*
X007237Y016027D01*
X007167Y016027D02*
X007447Y016027D01*
X007231Y013001D02*
X007231Y012449D01*
X007743Y012449D01*
X007743Y013001D01*
X007743Y012449D02*
X007743Y012292D01*
X007231Y012292D02*
X007231Y012449D01*
X015626Y016286D02*
X016047Y016566D01*
X015626Y016566D01*
X015626Y016747D02*
X016047Y016747D01*
X016047Y017027D01*
X015977Y017207D02*
X015697Y017207D01*
X015626Y017277D01*
X015626Y017417D01*
X015697Y017487D01*
X015977Y017487D01*
X016047Y017417D01*
X016047Y017277D01*
X015977Y017207D01*
X015837Y016887D02*
X015837Y016747D01*
X015626Y016747D02*
X015626Y017027D01*
X015837Y017667D02*
X015837Y017948D01*
X015837Y018128D02*
X015837Y018338D01*
X015907Y018408D01*
X015977Y018408D01*
X016047Y018338D01*
X016047Y018198D01*
X015977Y018128D01*
X015837Y018128D01*
X015697Y018268D01*
X015626Y018408D01*
X015697Y018588D02*
X015626Y018658D01*
X015626Y018798D01*
X015697Y018868D01*
X015977Y018868D01*
X016047Y018798D01*
X016047Y018658D01*
X015977Y018588D01*
X015697Y018588D01*
X015907Y018728D02*
X016047Y018868D01*
X016047Y016286D02*
X015626Y016286D01*
X016869Y012631D02*
X017105Y012631D01*
X017617Y011882D02*
X017617Y011410D01*
X017105Y010662D02*
X016869Y010662D01*
X016357Y011410D02*
X016357Y011882D01*
X019365Y016008D02*
X019365Y016480D01*
X019916Y016480D01*
X019916Y018212D01*
X019365Y018212D01*
X019365Y018685D01*
X019995Y018685D01*
X020397Y017987D02*
X020467Y017987D01*
X020537Y017917D01*
X020537Y017707D01*
X020607Y017527D02*
X020677Y017527D01*
X020747Y017457D01*
X020747Y017317D01*
X020677Y017247D01*
X020537Y017317D02*
X020537Y017457D01*
X020607Y017527D01*
X020397Y017527D02*
X020326Y017457D01*
X020326Y017317D01*
X020397Y017247D01*
X020467Y017247D01*
X020537Y017317D01*
X020677Y017066D02*
X020326Y017066D01*
X020326Y016786D02*
X020677Y016786D01*
X020747Y016856D01*
X020747Y016996D01*
X020677Y017066D01*
X020747Y017707D02*
X020326Y017707D01*
X020326Y017917D01*
X020397Y017987D01*
X020537Y017917D02*
X020607Y017987D01*
X020677Y017987D01*
X020747Y017917D01*
X020747Y017707D01*
X021058Y018685D02*
X021058Y016008D01*
X019995Y016008D02*
X019365Y016008D01*
X020037Y014415D02*
X019787Y014165D01*
X019787Y013665D01*
X020037Y013415D01*
X019787Y013165D01*
X019787Y012665D01*
X020037Y012415D01*
X019787Y012165D01*
X019787Y011665D01*
X020037Y011415D01*
X019787Y011165D01*
X019787Y010665D01*
X020037Y010415D01*
X019787Y010165D01*
X019787Y009665D01*
X020037Y009415D01*
X019787Y009165D01*
X019787Y008665D01*
X020037Y008415D01*
X020537Y008415D01*
X020787Y008665D01*
X020787Y009165D01*
X020537Y009415D01*
X020787Y009665D01*
X020787Y010165D01*
X020537Y010415D01*
X020787Y010665D01*
X020787Y011165D01*
X020537Y011415D01*
X020787Y011665D01*
X020787Y012165D01*
X020537Y012415D01*
X020787Y012665D01*
X020787Y013165D01*
X020537Y013415D01*
X020787Y013665D01*
X020787Y014165D01*
X020537Y014415D01*
X020037Y014415D01*
X020326Y008208D02*
X020326Y008067D01*
X020326Y008137D02*
X020747Y008137D01*
X020747Y008067D02*
X020747Y008208D01*
X020677Y007887D02*
X020397Y007887D01*
X020326Y007817D01*
X020326Y007607D01*
X020747Y007607D01*
X020747Y007817D01*
X020677Y007887D01*
X020326Y007427D02*
X020326Y007147D01*
X020326Y007287D02*
X020747Y007287D01*
X020537Y006826D02*
X020537Y006686D01*
X020747Y006686D02*
X020326Y006686D01*
X020326Y006966D01*
D15*
X014902Y008910D02*
X014902Y009382D01*
X014351Y009225D02*
X014351Y009068D01*
X014272Y008910D02*
X014272Y009382D01*
X009777Y008737D02*
X009777Y007556D01*
X008596Y007556D01*
X008596Y008737D01*
X009777Y008737D01*
X008730Y008461D02*
X008732Y008484D01*
X008738Y008507D01*
X008747Y008529D01*
X008760Y008548D01*
X008776Y008565D01*
X008794Y008580D01*
X008815Y008591D01*
X008837Y008599D01*
X008860Y008603D01*
X008884Y008603D01*
X008907Y008599D01*
X008929Y008591D01*
X008950Y008580D01*
X008968Y008565D01*
X008984Y008548D01*
X008997Y008529D01*
X009006Y008507D01*
X009012Y008484D01*
X009014Y008461D01*
X009012Y008438D01*
X009006Y008415D01*
X008997Y008393D01*
X008984Y008374D01*
X008968Y008357D01*
X008950Y008342D01*
X008929Y008331D01*
X008907Y008323D01*
X008884Y008319D01*
X008860Y008319D01*
X008837Y008323D01*
X008815Y008331D01*
X008794Y008342D01*
X008776Y008357D01*
X008760Y008374D01*
X008747Y008393D01*
X008738Y008415D01*
X008732Y008438D01*
X008730Y008461D01*
X008344Y012449D02*
X008344Y012843D01*
X008226Y012489D02*
X008147Y012489D01*
X008029Y012449D02*
X008029Y012843D01*
X006845Y014668D02*
X006609Y014668D01*
X006609Y017424D01*
X006845Y017424D01*
X006845Y014668D01*
X009365Y014668D01*
X009365Y017424D01*
X006845Y017424D01*
X006615Y018516D02*
X006615Y020090D01*
X008111Y020878D02*
X010158Y020878D01*
X010158Y020012D01*
X010158Y019382D02*
X010158Y019224D01*
X010158Y018594D02*
X010158Y017728D01*
X008111Y017728D01*
X011462Y020880D02*
X011462Y022246D01*
X011462Y023317D01*
X015911Y023317D01*
X015911Y022246D01*
X015911Y020880D01*
X014927Y022246D01*
X015911Y022246D01*
X014927Y022246D02*
X012447Y022246D01*
X011462Y020880D01*
X011462Y022246D02*
X012447Y022246D01*
X012900Y022246D02*
X012898Y022194D01*
X012892Y022143D01*
X012883Y022092D01*
X012870Y022042D01*
X012853Y021993D01*
X012833Y021945D01*
X012809Y021899D01*
X012782Y021855D01*
X012752Y021813D01*
X012719Y021773D01*
X012683Y021736D01*
X012645Y021701D01*
X012604Y021669D01*
X012560Y021641D01*
X012515Y021615D01*
X012468Y021593D01*
X012420Y021575D01*
X012370Y021560D01*
X012320Y021549D01*
X012269Y021541D01*
X012217Y021537D01*
X012165Y021537D01*
X012113Y021541D01*
X012062Y021549D01*
X012012Y021560D01*
X011962Y021575D01*
X011914Y021593D01*
X011867Y021615D01*
X011822Y021641D01*
X011778Y021669D01*
X011737Y021701D01*
X011699Y021736D01*
X011663Y021773D01*
X011630Y021813D01*
X011600Y021855D01*
X011573Y021899D01*
X011549Y021945D01*
X011529Y021993D01*
X011512Y022042D01*
X011499Y022092D01*
X011490Y022143D01*
X011484Y022194D01*
X011482Y022246D01*
X011069Y023317D02*
X011069Y024829D01*
X011462Y024829D01*
X011462Y025419D01*
X011462Y024829D02*
X015911Y024829D01*
X015911Y025419D01*
X016305Y025419D02*
X016088Y029762D01*
X016089Y029762D02*
X016087Y029829D01*
X016081Y029895D01*
X016072Y029961D01*
X016058Y030026D01*
X016041Y030091D01*
X016020Y030154D01*
X015995Y030216D01*
X015967Y030276D01*
X015935Y030335D01*
X015900Y030392D01*
X015862Y030446D01*
X015821Y030499D01*
X015777Y030548D01*
X015729Y030596D01*
X015680Y030640D01*
X015627Y030681D01*
X015573Y030719D01*
X015516Y030754D01*
X015457Y030786D01*
X015397Y030814D01*
X015335Y030839D01*
X015272Y030860D01*
X015207Y030877D01*
X015142Y030891D01*
X015076Y030900D01*
X015010Y030906D01*
X014943Y030908D01*
X012431Y030908D01*
X012364Y030906D01*
X012298Y030900D01*
X012232Y030891D01*
X012167Y030877D01*
X012102Y030860D01*
X012039Y030839D01*
X011977Y030814D01*
X011917Y030786D01*
X011858Y030754D01*
X011801Y030719D01*
X011747Y030681D01*
X011694Y030640D01*
X011645Y030596D01*
X011597Y030548D01*
X011553Y030499D01*
X011512Y030446D01*
X011474Y030392D01*
X011439Y030335D01*
X011407Y030276D01*
X011379Y030216D01*
X011354Y030154D01*
X011333Y030091D01*
X011316Y030026D01*
X011302Y029961D01*
X011293Y029895D01*
X011287Y029829D01*
X011285Y029762D01*
X011069Y025419D01*
X016305Y025419D01*
X016305Y024829D02*
X015911Y024829D01*
X016305Y024829D02*
X016305Y023317D01*
X011069Y023317D01*
X012634Y019805D02*
X018933Y019805D01*
X018933Y016002D01*
X012634Y016002D01*
X012634Y019805D01*
D16*
X010666Y017034D02*
X010629Y017034D01*
X010666Y017034D02*
X010666Y016396D01*
X010629Y016396D01*
X010311Y016396D02*
X009900Y016396D01*
X009583Y016396D02*
X009546Y016396D01*
X009546Y017034D01*
X009583Y017034D01*
X009900Y017034D02*
X009937Y017034D01*
X010274Y017034D02*
X010311Y017034D01*
X012207Y013226D02*
X014967Y013226D01*
X014967Y010606D01*
X014827Y010466D01*
X012207Y010466D01*
X012207Y013226D01*
X014526Y010766D02*
X014528Y010789D01*
X014534Y010812D01*
X014543Y010833D01*
X014556Y010853D01*
X014572Y010870D01*
X014590Y010884D01*
X014610Y010895D01*
X014632Y010903D01*
X014655Y010907D01*
X014679Y010907D01*
X014702Y010903D01*
X014724Y010895D01*
X014744Y010884D01*
X014762Y010870D01*
X014778Y010853D01*
X014791Y010833D01*
X014800Y010812D01*
X014806Y010789D01*
X014808Y010766D01*
X014806Y010743D01*
X014800Y010720D01*
X014791Y010699D01*
X014778Y010679D01*
X014762Y010662D01*
X014744Y010648D01*
X014724Y010637D01*
X014702Y010629D01*
X014679Y010625D01*
X014655Y010625D01*
X014632Y010629D01*
X014610Y010637D01*
X014590Y010648D01*
X014572Y010662D01*
X014556Y010679D01*
X014543Y010699D01*
X014534Y010720D01*
X014528Y010743D01*
X014526Y010766D01*
X016668Y013186D02*
X016668Y013223D01*
X016668Y013186D02*
X017306Y013186D01*
X017306Y013223D01*
X017306Y013541D02*
X017306Y013578D01*
X017306Y013915D02*
X017306Y013952D01*
X017306Y014269D02*
X017306Y014306D01*
X016668Y014306D01*
X016668Y014269D01*
X016668Y013952D02*
X016668Y013541D01*
X019027Y020739D02*
X019027Y021354D01*
X020147Y021354D02*
X020147Y020739D01*
D17*
X018398Y019376D02*
X018400Y019395D01*
X018405Y019414D01*
X018415Y019430D01*
X018427Y019445D01*
X018442Y019457D01*
X018458Y019467D01*
X018477Y019472D01*
X018496Y019474D01*
X018515Y019472D01*
X018534Y019467D01*
X018550Y019457D01*
X018565Y019445D01*
X018577Y019430D01*
X018587Y019414D01*
X018592Y019395D01*
X018594Y019376D01*
X018592Y019357D01*
X018587Y019338D01*
X018577Y019322D01*
X018565Y019307D01*
X018550Y019295D01*
X018534Y019285D01*
X018515Y019280D01*
X018496Y019278D01*
X018477Y019280D01*
X018458Y019285D01*
X018442Y019295D01*
X018427Y019307D01*
X018415Y019322D01*
X018405Y019338D01*
X018400Y019357D01*
X018398Y019376D01*
D18*
X011393Y016521D03*
X011081Y012840D03*
D19*
X020040Y021243D03*
M02*
