G75*
G70*
%OFA0B0*%
%FSLAX24Y24*%
%IPPOS*%
%LPD*%
%AMOC8*
5,1,8,0,0,1.08239X$1,22.5*
%
%ADD10C,0.0100*%
%ADD11C,0.0000*%
%ADD12C,0.0060*%
%ADD13R,0.0098X0.0394*%
%ADD14R,0.0394X0.0433*%
%ADD15R,0.0433X0.0394*%
%ADD16R,0.0354X0.0276*%
%ADD17R,0.0748X0.0433*%
%ADD18R,0.0157X0.0197*%
%ADD19R,0.0600X0.1600*%
%ADD20R,0.0740X0.0740*%
%ADD21C,0.0740*%
%ADD22R,0.0354X0.0394*%
%ADD23R,0.1000X0.2000*%
%ADD24C,0.0320*%
%ADD25C,0.0160*%
%ADD26C,0.0120*%
%ADD27C,0.0240*%
D10*
X000796Y000151D02*
X008770Y000151D01*
X008770Y013931D01*
X000796Y013931D01*
X000796Y000151D01*
X000996Y001398D02*
X000996Y002406D01*
X001006Y002389D01*
X001034Y002361D01*
X001068Y002341D01*
X001106Y002331D01*
X001446Y002331D01*
X001446Y002801D01*
X001546Y002801D01*
X001546Y002331D01*
X001886Y002331D01*
X001924Y002341D01*
X001958Y002361D01*
X001986Y002389D01*
X002006Y002423D01*
X002016Y002461D01*
X002016Y002801D01*
X001546Y002801D01*
X001546Y002901D01*
X002016Y002901D01*
X002016Y003241D01*
X002006Y003279D01*
X001986Y003313D01*
X001958Y003341D01*
X001924Y003361D01*
X001886Y003371D01*
X001696Y003371D01*
X001791Y003410D01*
X001937Y003557D01*
X002016Y003748D01*
X002016Y003955D01*
X001977Y004049D01*
X002079Y004151D01*
X002196Y004268D01*
X002196Y006413D01*
X002221Y006388D01*
X002335Y006341D01*
X002458Y006341D01*
X002572Y006388D01*
X002659Y006476D01*
X002696Y006565D01*
X002696Y000351D01*
X002043Y000351D01*
X002211Y000519D01*
X002324Y000791D01*
X002324Y001086D01*
X002211Y001358D01*
X002003Y001566D01*
X001731Y001679D01*
X001436Y001679D01*
X001164Y001566D01*
X000996Y001398D01*
X000996Y001432D02*
X001030Y001432D01*
X000996Y001531D02*
X001129Y001531D01*
X000996Y001629D02*
X001316Y001629D01*
X000996Y001728D02*
X002696Y001728D01*
X002696Y001826D02*
X000996Y001826D01*
X000996Y001925D02*
X002696Y001925D01*
X002696Y002024D02*
X000996Y002024D01*
X000996Y002122D02*
X002696Y002122D01*
X002696Y002221D02*
X000996Y002221D01*
X000996Y002319D02*
X002696Y002319D01*
X002696Y002418D02*
X002003Y002418D01*
X002016Y002516D02*
X002696Y002516D01*
X002696Y002615D02*
X002016Y002615D01*
X002016Y002713D02*
X002696Y002713D01*
X002696Y002812D02*
X001546Y002812D01*
X001546Y002713D02*
X001446Y002713D01*
X001446Y002615D02*
X001546Y002615D01*
X001546Y002516D02*
X001446Y002516D01*
X001446Y002418D02*
X001546Y002418D01*
X002016Y002910D02*
X002696Y002910D01*
X002696Y003009D02*
X002016Y003009D01*
X002016Y003107D02*
X002696Y003107D01*
X002696Y003206D02*
X002016Y003206D01*
X001991Y003305D02*
X002696Y003305D01*
X002696Y003403D02*
X001773Y003403D01*
X001882Y003502D02*
X002696Y003502D01*
X002696Y003600D02*
X001955Y003600D01*
X001996Y003699D02*
X002696Y003699D01*
X002696Y003797D02*
X002016Y003797D01*
X002016Y003896D02*
X002696Y003896D01*
X002696Y003994D02*
X002000Y003994D01*
X002021Y004093D02*
X002696Y004093D01*
X002696Y004191D02*
X002119Y004191D01*
X002196Y004290D02*
X002696Y004290D01*
X002696Y004389D02*
X002196Y004389D01*
X002196Y004487D02*
X002696Y004487D01*
X002696Y004586D02*
X002196Y004586D01*
X002196Y004684D02*
X002696Y004684D01*
X002696Y004783D02*
X002196Y004783D01*
X002196Y004881D02*
X002696Y004881D01*
X002696Y004980D02*
X002196Y004980D01*
X002196Y005078D02*
X002696Y005078D01*
X002696Y005177D02*
X002196Y005177D01*
X002196Y005275D02*
X002696Y005275D01*
X002696Y005374D02*
X002196Y005374D01*
X002196Y005473D02*
X002696Y005473D01*
X002696Y005571D02*
X002196Y005571D01*
X002196Y005670D02*
X002696Y005670D01*
X002696Y005768D02*
X002196Y005768D01*
X002196Y005867D02*
X002696Y005867D01*
X002696Y005965D02*
X002196Y005965D01*
X002196Y006064D02*
X002696Y006064D01*
X002696Y006162D02*
X002196Y006162D01*
X002196Y006261D02*
X002696Y006261D01*
X002696Y006359D02*
X002502Y006359D01*
X002641Y006458D02*
X002696Y006458D01*
X002692Y006556D02*
X002696Y006556D01*
X002396Y006651D02*
X002396Y007151D01*
X002596Y007351D01*
X004496Y007351D01*
X004696Y007151D01*
X004696Y006551D01*
X004796Y006451D01*
X004996Y006451D01*
X005099Y006554D01*
X005099Y006864D01*
X005296Y006864D02*
X005296Y007351D01*
X005493Y006864D02*
X005493Y006220D01*
X005662Y006051D01*
X005396Y006051D01*
X005496Y005951D01*
X005396Y006051D02*
X005496Y006151D01*
X005496Y006251D02*
X005296Y006051D01*
X005196Y006051D02*
X005496Y006351D01*
X005796Y006051D01*
X005690Y006864D02*
X005696Y006870D01*
X005696Y007751D01*
X003246Y007751D01*
X002896Y008101D01*
X002396Y008101D01*
X002296Y008001D01*
X002296Y007451D01*
X001996Y007151D01*
X001996Y004351D01*
X001496Y003851D01*
X001496Y004851D02*
X000996Y005351D01*
X000996Y008651D01*
X001446Y009101D01*
X002546Y009101D01*
X002896Y009451D01*
X002896Y011317D01*
X002496Y011717D01*
X002496Y013451D01*
X002696Y013651D01*
X006996Y013651D01*
X007196Y013451D01*
X007196Y011717D01*
X006796Y011317D01*
X006296Y010551D02*
X006290Y010551D01*
X005696Y008951D02*
X005493Y008748D01*
X005493Y008439D01*
X005296Y008439D02*
X005296Y008751D01*
X004996Y009051D01*
X004415Y009051D01*
X003968Y009498D01*
X004596Y008751D02*
X004996Y008751D01*
X005099Y008648D01*
X005099Y008439D01*
X005690Y008439D02*
X006003Y008751D01*
X006196Y008751D01*
X005946Y008251D02*
X005646Y007951D01*
X003331Y007951D01*
X002731Y008551D01*
X002631Y008551D01*
X002281Y008901D01*
X001546Y008901D01*
X001196Y008551D01*
X001196Y006151D01*
X001496Y005851D01*
X001628Y006359D02*
X001796Y006359D01*
X001791Y006292D02*
X001600Y006371D01*
X001396Y006371D01*
X001396Y008468D01*
X001615Y008687D01*
X001615Y008600D01*
X001913Y008600D01*
X001913Y008503D01*
X001615Y008503D01*
X001615Y008315D01*
X001625Y008277D01*
X001645Y008243D01*
X001673Y008215D01*
X001707Y008195D01*
X001745Y008185D01*
X001913Y008185D01*
X001913Y008502D01*
X002010Y008502D01*
X002010Y008185D01*
X002178Y008185D01*
X002204Y008192D01*
X002196Y008184D01*
X002130Y008118D01*
X002010Y008118D01*
X002010Y007800D01*
X001913Y007800D01*
X001913Y008118D01*
X001745Y008118D01*
X001707Y008107D01*
X001673Y008088D01*
X001645Y008060D01*
X001625Y008026D01*
X001615Y007987D01*
X001615Y007800D01*
X001913Y007800D01*
X001913Y007703D01*
X001615Y007703D01*
X001615Y007515D01*
X001625Y007477D01*
X001645Y007443D01*
X001673Y007415D01*
X001707Y007395D01*
X001745Y007385D01*
X001913Y007385D01*
X001913Y007702D01*
X002010Y007702D01*
X002010Y007448D01*
X001796Y007234D01*
X001796Y007068D01*
X001796Y006286D01*
X001791Y006292D01*
X001796Y006458D02*
X001396Y006458D01*
X001396Y006556D02*
X001796Y006556D01*
X001796Y006655D02*
X001396Y006655D01*
X001396Y006754D02*
X001796Y006754D01*
X001796Y006852D02*
X001396Y006852D01*
X001396Y006951D02*
X001796Y006951D01*
X001796Y007049D02*
X001396Y007049D01*
X001396Y007148D02*
X001796Y007148D01*
X001809Y007246D02*
X001396Y007246D01*
X001396Y007345D02*
X001907Y007345D01*
X001913Y007443D02*
X002006Y007443D01*
X002010Y007542D02*
X001913Y007542D01*
X001913Y007640D02*
X002010Y007640D01*
X001913Y007739D02*
X001396Y007739D01*
X001396Y007640D02*
X001615Y007640D01*
X001615Y007542D02*
X001396Y007542D01*
X001396Y007443D02*
X001644Y007443D01*
X001615Y007838D02*
X001396Y007838D01*
X001396Y007936D02*
X001615Y007936D01*
X001630Y008035D02*
X001396Y008035D01*
X001396Y008133D02*
X002145Y008133D01*
X002010Y008035D02*
X001913Y008035D01*
X001913Y007936D02*
X002010Y007936D01*
X002010Y007838D02*
X001913Y007838D01*
X001913Y008232D02*
X002010Y008232D01*
X002010Y008330D02*
X001913Y008330D01*
X001913Y008429D02*
X002010Y008429D01*
X001913Y008527D02*
X001455Y008527D01*
X001396Y008429D02*
X001615Y008429D01*
X001615Y008330D02*
X001396Y008330D01*
X001396Y008232D02*
X001655Y008232D01*
X001615Y008626D02*
X001554Y008626D01*
X002631Y007751D02*
X002696Y007751D01*
X002896Y007551D01*
X004596Y007551D01*
X004896Y007251D01*
X004896Y006870D01*
X004903Y006864D01*
X004903Y006857D01*
X004896Y006851D01*
X005696Y007751D02*
X006196Y007751D01*
X006596Y007751D01*
X008096Y006251D01*
X008096Y005951D01*
X008096Y006051D01*
X007446Y006064D02*
X006896Y006064D01*
X006896Y006162D02*
X007446Y006162D01*
X007446Y006261D02*
X006896Y006261D01*
X006896Y006359D02*
X007446Y006359D01*
X007446Y006458D02*
X006896Y006458D01*
X006896Y006556D02*
X007446Y006556D01*
X007446Y006618D02*
X007446Y004889D01*
X007534Y004801D01*
X008570Y004801D01*
X008146Y004801D01*
X008146Y003701D01*
X008046Y003701D01*
X008046Y003601D01*
X007446Y003601D01*
X007446Y002631D01*
X007456Y002593D01*
X007476Y002559D01*
X007504Y002531D01*
X007538Y002511D01*
X007576Y002501D01*
X008046Y002501D01*
X008046Y003601D01*
X008146Y003601D01*
X008146Y002501D01*
X008570Y002501D01*
X008570Y001398D01*
X008402Y001566D01*
X008130Y001679D01*
X007836Y001679D01*
X007563Y001566D01*
X007355Y001358D01*
X007242Y001086D01*
X007242Y000791D01*
X007355Y000519D01*
X007523Y000351D01*
X006896Y000351D01*
X006896Y006951D01*
X007113Y006951D01*
X007446Y006618D01*
X007410Y006655D02*
X006896Y006655D01*
X006896Y006754D02*
X007311Y006754D01*
X007212Y006852D02*
X006896Y006852D01*
X006896Y006951D02*
X007114Y006951D01*
X006896Y005965D02*
X007446Y005965D01*
X007446Y005867D02*
X006896Y005867D01*
X006896Y005768D02*
X007446Y005768D01*
X007446Y005670D02*
X006896Y005670D01*
X006896Y005571D02*
X007446Y005571D01*
X007446Y005473D02*
X006896Y005473D01*
X006896Y005374D02*
X007446Y005374D01*
X007446Y005275D02*
X006896Y005275D01*
X006896Y005177D02*
X007446Y005177D01*
X007446Y005078D02*
X006896Y005078D01*
X006896Y004980D02*
X007446Y004980D01*
X007454Y004881D02*
X006896Y004881D01*
X006896Y004783D02*
X007524Y004783D01*
X007538Y004791D02*
X007504Y004771D01*
X007476Y004743D01*
X007456Y004709D01*
X007446Y004671D01*
X007446Y003701D01*
X008046Y003701D01*
X008046Y004801D01*
X007576Y004801D01*
X007538Y004791D01*
X007450Y004684D02*
X006896Y004684D01*
X006896Y004586D02*
X007446Y004586D01*
X007446Y004487D02*
X006896Y004487D01*
X006896Y004389D02*
X007446Y004389D01*
X007446Y004290D02*
X006896Y004290D01*
X006896Y004191D02*
X007446Y004191D01*
X007446Y004093D02*
X006896Y004093D01*
X006896Y003994D02*
X007446Y003994D01*
X007446Y003896D02*
X006896Y003896D01*
X006896Y003797D02*
X007446Y003797D01*
X007446Y003600D02*
X006896Y003600D01*
X006896Y003502D02*
X007446Y003502D01*
X007446Y003403D02*
X006896Y003403D01*
X006896Y003305D02*
X007446Y003305D01*
X007446Y003206D02*
X006896Y003206D01*
X006896Y003107D02*
X007446Y003107D01*
X007446Y003009D02*
X006896Y003009D01*
X006896Y002910D02*
X007446Y002910D01*
X007446Y002812D02*
X006896Y002812D01*
X006896Y002713D02*
X007446Y002713D01*
X007451Y002615D02*
X006896Y002615D01*
X006896Y002516D02*
X007530Y002516D01*
X008046Y002516D02*
X008146Y002516D01*
X008146Y002615D02*
X008046Y002615D01*
X008046Y002713D02*
X008146Y002713D01*
X008146Y002812D02*
X008046Y002812D01*
X008046Y002910D02*
X008146Y002910D01*
X008146Y003009D02*
X008046Y003009D01*
X008046Y003107D02*
X008146Y003107D01*
X008146Y003206D02*
X008046Y003206D01*
X008046Y003305D02*
X008146Y003305D01*
X008146Y003403D02*
X008046Y003403D01*
X008046Y003502D02*
X008146Y003502D01*
X008146Y003600D02*
X008046Y003600D01*
X008046Y003699D02*
X006896Y003699D01*
X006896Y002418D02*
X008570Y002418D01*
X008570Y002319D02*
X006896Y002319D01*
X006896Y002221D02*
X008570Y002221D01*
X008570Y002122D02*
X006896Y002122D01*
X006896Y002024D02*
X008570Y002024D01*
X008570Y001925D02*
X006896Y001925D01*
X006896Y001826D02*
X008570Y001826D01*
X008570Y001728D02*
X006896Y001728D01*
X006896Y001629D02*
X007715Y001629D01*
X007528Y001531D02*
X006896Y001531D01*
X006896Y001432D02*
X007429Y001432D01*
X007345Y001334D02*
X006896Y001334D01*
X006896Y001235D02*
X007304Y001235D01*
X007263Y001137D02*
X006896Y001137D01*
X006896Y001038D02*
X007242Y001038D01*
X007242Y000940D02*
X006896Y000940D01*
X006896Y000841D02*
X007242Y000841D01*
X007262Y000742D02*
X006896Y000742D01*
X006896Y000644D02*
X007303Y000644D01*
X007344Y000545D02*
X006896Y000545D01*
X006896Y000447D02*
X007427Y000447D01*
X008250Y001629D02*
X008570Y001629D01*
X008570Y001531D02*
X008438Y001531D01*
X008536Y001432D02*
X008570Y001432D01*
X008146Y003797D02*
X008046Y003797D01*
X008046Y003896D02*
X008146Y003896D01*
X008146Y003994D02*
X008046Y003994D01*
X008046Y004093D02*
X008146Y004093D01*
X008146Y004191D02*
X008046Y004191D01*
X008046Y004290D02*
X008146Y004290D01*
X008146Y004389D02*
X008046Y004389D01*
X008046Y004487D02*
X008146Y004487D01*
X008146Y004586D02*
X008046Y004586D01*
X008046Y004684D02*
X008146Y004684D01*
X008146Y004783D02*
X008046Y004783D01*
X008570Y004801D02*
X008570Y004801D01*
X008096Y008251D02*
X006796Y008251D01*
X005946Y008251D01*
X005662Y005151D02*
X005662Y005067D01*
X004662Y002651D02*
X004796Y002517D01*
X002696Y001629D02*
X001851Y001629D01*
X002039Y001531D02*
X002696Y001531D01*
X002696Y001432D02*
X002137Y001432D01*
X002221Y001334D02*
X002696Y001334D01*
X002696Y001235D02*
X002262Y001235D01*
X002303Y001137D02*
X002696Y001137D01*
X002696Y001038D02*
X002324Y001038D01*
X002324Y000940D02*
X002696Y000940D01*
X002696Y000841D02*
X002324Y000841D01*
X002304Y000742D02*
X002696Y000742D01*
X002696Y000644D02*
X002263Y000644D01*
X002222Y000545D02*
X002696Y000545D01*
X002696Y000447D02*
X002139Y000447D01*
X002196Y006359D02*
X002291Y006359D01*
X004996Y011317D02*
X005055Y011317D01*
X005081Y012651D02*
X004996Y012736D01*
X005011Y013351D02*
X004996Y013366D01*
X004296Y013366D02*
X004281Y013351D01*
X004281Y012751D02*
X004296Y012736D01*
X002896Y011986D02*
X002862Y012020D01*
X008096Y010817D02*
X008096Y010551D01*
D11*
X007392Y013143D02*
X007394Y013191D01*
X007400Y013239D01*
X007410Y013286D01*
X007423Y013332D01*
X007441Y013377D01*
X007461Y013421D01*
X007486Y013463D01*
X007514Y013502D01*
X007544Y013539D01*
X007578Y013573D01*
X007615Y013605D01*
X007653Y013634D01*
X007694Y013659D01*
X007737Y013681D01*
X007782Y013699D01*
X007828Y013713D01*
X007875Y013724D01*
X007923Y013731D01*
X007971Y013734D01*
X008019Y013733D01*
X008067Y013728D01*
X008115Y013719D01*
X008161Y013707D01*
X008206Y013690D01*
X008250Y013670D01*
X008292Y013647D01*
X008332Y013620D01*
X008370Y013590D01*
X008405Y013557D01*
X008437Y013521D01*
X008467Y013483D01*
X008493Y013442D01*
X008515Y013399D01*
X008535Y013355D01*
X008550Y013310D01*
X008562Y013263D01*
X008570Y013215D01*
X008574Y013167D01*
X008574Y013119D01*
X008570Y013071D01*
X008562Y013023D01*
X008550Y012976D01*
X008535Y012931D01*
X008515Y012887D01*
X008493Y012844D01*
X008467Y012803D01*
X008437Y012765D01*
X008405Y012729D01*
X008370Y012696D01*
X008332Y012666D01*
X008292Y012639D01*
X008250Y012616D01*
X008206Y012596D01*
X008161Y012579D01*
X008115Y012567D01*
X008067Y012558D01*
X008019Y012553D01*
X007971Y012552D01*
X007923Y012555D01*
X007875Y012562D01*
X007828Y012573D01*
X007782Y012587D01*
X007737Y012605D01*
X007694Y012627D01*
X007653Y012652D01*
X007615Y012681D01*
X007578Y012713D01*
X007544Y012747D01*
X007514Y012784D01*
X007486Y012823D01*
X007461Y012865D01*
X007441Y012909D01*
X007423Y012954D01*
X007410Y013000D01*
X007400Y013047D01*
X007394Y013095D01*
X007392Y013143D01*
X000993Y013143D02*
X000995Y013191D01*
X001001Y013239D01*
X001011Y013286D01*
X001024Y013332D01*
X001042Y013377D01*
X001062Y013421D01*
X001087Y013463D01*
X001115Y013502D01*
X001145Y013539D01*
X001179Y013573D01*
X001216Y013605D01*
X001254Y013634D01*
X001295Y013659D01*
X001338Y013681D01*
X001383Y013699D01*
X001429Y013713D01*
X001476Y013724D01*
X001524Y013731D01*
X001572Y013734D01*
X001620Y013733D01*
X001668Y013728D01*
X001716Y013719D01*
X001762Y013707D01*
X001807Y013690D01*
X001851Y013670D01*
X001893Y013647D01*
X001933Y013620D01*
X001971Y013590D01*
X002006Y013557D01*
X002038Y013521D01*
X002068Y013483D01*
X002094Y013442D01*
X002116Y013399D01*
X002136Y013355D01*
X002151Y013310D01*
X002163Y013263D01*
X002171Y013215D01*
X002175Y013167D01*
X002175Y013119D01*
X002171Y013071D01*
X002163Y013023D01*
X002151Y012976D01*
X002136Y012931D01*
X002116Y012887D01*
X002094Y012844D01*
X002068Y012803D01*
X002038Y012765D01*
X002006Y012729D01*
X001971Y012696D01*
X001933Y012666D01*
X001893Y012639D01*
X001851Y012616D01*
X001807Y012596D01*
X001762Y012579D01*
X001716Y012567D01*
X001668Y012558D01*
X001620Y012553D01*
X001572Y012552D01*
X001524Y012555D01*
X001476Y012562D01*
X001429Y012573D01*
X001383Y012587D01*
X001338Y012605D01*
X001295Y012627D01*
X001254Y012652D01*
X001216Y012681D01*
X001179Y012713D01*
X001145Y012747D01*
X001115Y012784D01*
X001087Y012823D01*
X001062Y012865D01*
X001042Y012909D01*
X001024Y012954D01*
X001011Y013000D01*
X001001Y013047D01*
X000995Y013095D01*
X000993Y013143D01*
X000993Y000939D02*
X000995Y000987D01*
X001001Y001035D01*
X001011Y001082D01*
X001024Y001128D01*
X001042Y001173D01*
X001062Y001217D01*
X001087Y001259D01*
X001115Y001298D01*
X001145Y001335D01*
X001179Y001369D01*
X001216Y001401D01*
X001254Y001430D01*
X001295Y001455D01*
X001338Y001477D01*
X001383Y001495D01*
X001429Y001509D01*
X001476Y001520D01*
X001524Y001527D01*
X001572Y001530D01*
X001620Y001529D01*
X001668Y001524D01*
X001716Y001515D01*
X001762Y001503D01*
X001807Y001486D01*
X001851Y001466D01*
X001893Y001443D01*
X001933Y001416D01*
X001971Y001386D01*
X002006Y001353D01*
X002038Y001317D01*
X002068Y001279D01*
X002094Y001238D01*
X002116Y001195D01*
X002136Y001151D01*
X002151Y001106D01*
X002163Y001059D01*
X002171Y001011D01*
X002175Y000963D01*
X002175Y000915D01*
X002171Y000867D01*
X002163Y000819D01*
X002151Y000772D01*
X002136Y000727D01*
X002116Y000683D01*
X002094Y000640D01*
X002068Y000599D01*
X002038Y000561D01*
X002006Y000525D01*
X001971Y000492D01*
X001933Y000462D01*
X001893Y000435D01*
X001851Y000412D01*
X001807Y000392D01*
X001762Y000375D01*
X001716Y000363D01*
X001668Y000354D01*
X001620Y000349D01*
X001572Y000348D01*
X001524Y000351D01*
X001476Y000358D01*
X001429Y000369D01*
X001383Y000383D01*
X001338Y000401D01*
X001295Y000423D01*
X001254Y000448D01*
X001216Y000477D01*
X001179Y000509D01*
X001145Y000543D01*
X001115Y000580D01*
X001087Y000619D01*
X001062Y000661D01*
X001042Y000705D01*
X001024Y000750D01*
X001011Y000796D01*
X001001Y000843D01*
X000995Y000891D01*
X000993Y000939D01*
X007392Y000939D02*
X007394Y000987D01*
X007400Y001035D01*
X007410Y001082D01*
X007423Y001128D01*
X007441Y001173D01*
X007461Y001217D01*
X007486Y001259D01*
X007514Y001298D01*
X007544Y001335D01*
X007578Y001369D01*
X007615Y001401D01*
X007653Y001430D01*
X007694Y001455D01*
X007737Y001477D01*
X007782Y001495D01*
X007828Y001509D01*
X007875Y001520D01*
X007923Y001527D01*
X007971Y001530D01*
X008019Y001529D01*
X008067Y001524D01*
X008115Y001515D01*
X008161Y001503D01*
X008206Y001486D01*
X008250Y001466D01*
X008292Y001443D01*
X008332Y001416D01*
X008370Y001386D01*
X008405Y001353D01*
X008437Y001317D01*
X008467Y001279D01*
X008493Y001238D01*
X008515Y001195D01*
X008535Y001151D01*
X008550Y001106D01*
X008562Y001059D01*
X008570Y001011D01*
X008574Y000963D01*
X008574Y000915D01*
X008570Y000867D01*
X008562Y000819D01*
X008550Y000772D01*
X008535Y000727D01*
X008515Y000683D01*
X008493Y000640D01*
X008467Y000599D01*
X008437Y000561D01*
X008405Y000525D01*
X008370Y000492D01*
X008332Y000462D01*
X008292Y000435D01*
X008250Y000412D01*
X008206Y000392D01*
X008161Y000375D01*
X008115Y000363D01*
X008067Y000354D01*
X008019Y000349D01*
X007971Y000348D01*
X007923Y000351D01*
X007875Y000358D01*
X007828Y000369D01*
X007782Y000383D01*
X007737Y000401D01*
X007694Y000423D01*
X007653Y000448D01*
X007615Y000477D01*
X007578Y000509D01*
X007544Y000543D01*
X007514Y000580D01*
X007486Y000619D01*
X007461Y000661D01*
X007441Y000705D01*
X007423Y000750D01*
X007410Y000796D01*
X007400Y000843D01*
X007394Y000891D01*
X007392Y000939D01*
D12*
X001460Y009387D02*
X001120Y009387D01*
X001233Y009501D01*
X001120Y009614D01*
X001460Y009614D01*
X001460Y009756D02*
X001460Y009869D01*
X001460Y009812D02*
X001120Y009812D01*
X001120Y009756D02*
X001120Y009869D01*
X001176Y010001D02*
X001120Y010058D01*
X001120Y010171D01*
X001176Y010228D01*
X001120Y010369D02*
X001120Y010540D01*
X001176Y010596D01*
X001290Y010596D01*
X001346Y010540D01*
X001346Y010369D01*
X001346Y010483D02*
X001460Y010596D01*
X001460Y010738D02*
X001120Y010738D01*
X001120Y010965D01*
X001233Y011106D02*
X001120Y011220D01*
X001460Y011220D01*
X001460Y011333D02*
X001460Y011106D01*
X001290Y010851D02*
X001290Y010738D01*
X001460Y010369D02*
X001120Y010369D01*
X001403Y010228D02*
X001460Y010171D01*
X001460Y010058D01*
X001403Y010001D01*
X001176Y010001D01*
X001726Y010238D02*
X001783Y010181D01*
X002010Y010181D01*
X002066Y010238D01*
X002066Y010351D01*
X002010Y010408D01*
X002010Y010549D02*
X002066Y010606D01*
X002066Y010720D01*
X002010Y010776D01*
X001726Y010776D01*
X001783Y010918D02*
X001839Y010918D01*
X001896Y010974D01*
X001896Y011088D01*
X001953Y011145D01*
X002010Y011145D01*
X002066Y011088D01*
X002066Y010974D01*
X002010Y010918D01*
X001783Y010918D02*
X001726Y010974D01*
X001726Y011088D01*
X001783Y011145D01*
X001726Y011286D02*
X001726Y011513D01*
X001726Y011286D02*
X002066Y011286D01*
X001896Y011286D02*
X001896Y011400D01*
X001460Y011474D02*
X001460Y011701D01*
X001460Y011588D02*
X001120Y011588D01*
X001233Y011474D01*
X001176Y011843D02*
X001120Y011899D01*
X001120Y012013D01*
X001176Y012070D01*
X001233Y012070D01*
X001460Y011843D01*
X001460Y012070D01*
X001726Y010549D02*
X002010Y010549D01*
X001783Y010408D02*
X001726Y010351D01*
X001726Y010238D01*
D13*
X004903Y008439D03*
X005099Y008439D03*
X005296Y008439D03*
X005493Y008439D03*
X005690Y008439D03*
X005690Y006864D03*
X005493Y006864D03*
X005296Y006864D03*
X005099Y006864D03*
X004903Y006864D03*
D14*
X004496Y005286D03*
X004496Y004617D03*
X002631Y007751D03*
X002631Y008551D03*
X001962Y008551D03*
X001962Y007751D03*
X003596Y011317D03*
X003596Y011986D03*
X004296Y011986D03*
X004296Y011317D03*
X004996Y011317D03*
X004996Y011986D03*
X006396Y009986D03*
X006396Y009317D03*
D15*
X006796Y011317D03*
X006796Y011986D03*
X006331Y006051D03*
X006331Y005151D03*
X006331Y004451D03*
X006331Y003751D03*
X005662Y003751D03*
X005662Y004451D03*
X005662Y005151D03*
X005662Y006051D03*
X004731Y006051D03*
X004062Y006051D03*
X004662Y002651D03*
X005331Y002651D03*
X002896Y011317D03*
X002896Y011986D03*
D16*
X004496Y003807D03*
X004496Y003295D03*
D17*
X003968Y009498D03*
X003968Y010404D03*
X005425Y010404D03*
X005425Y009498D03*
D18*
X004996Y012736D03*
X004996Y013366D03*
X004296Y013366D03*
X004296Y012736D03*
D19*
X003796Y001101D03*
X004796Y001101D03*
X005796Y001101D03*
D20*
X001496Y002851D03*
D21*
X001496Y003851D03*
X001496Y004851D03*
X001496Y005851D03*
D22*
X005896Y010945D03*
X005896Y012157D03*
D23*
X008096Y010551D03*
X008096Y008251D03*
X008096Y005951D03*
X008096Y003651D03*
D24*
X008096Y002151D03*
X005796Y002251D03*
X005396Y003051D03*
X005096Y003751D03*
X005096Y004451D03*
X005096Y005151D03*
X004096Y006551D03*
X005296Y007351D03*
X006196Y007751D03*
X006796Y008251D03*
X006196Y008751D03*
X006896Y009851D03*
X006796Y010551D03*
X006296Y010551D03*
X004596Y008751D03*
X003246Y010851D03*
X003796Y013351D03*
X005496Y013351D03*
X001596Y007151D03*
X002396Y006651D03*
X003796Y002251D03*
D25*
X003796Y001101D01*
X004796Y001101D02*
X004796Y002517D01*
X004662Y002651D02*
X004662Y003130D01*
X004661Y003130D02*
X004659Y003153D01*
X004654Y003176D01*
X004646Y003199D01*
X004635Y003219D01*
X004621Y003238D01*
X004604Y003255D01*
X004585Y003269D01*
X004565Y003280D01*
X004542Y003288D01*
X004519Y003293D01*
X004496Y003295D01*
X004496Y003807D02*
X004496Y004617D01*
X004496Y005286D02*
X004496Y005817D01*
X004498Y005845D01*
X004503Y005873D01*
X004511Y005900D01*
X004523Y005926D01*
X004538Y005950D01*
X004555Y005973D01*
X004575Y005993D01*
X004598Y006010D01*
X004622Y006025D01*
X004648Y006037D01*
X004675Y006045D01*
X004703Y006050D01*
X004731Y006052D01*
X004731Y006051D02*
X005196Y006051D01*
X005296Y006051D01*
X005396Y006051D01*
X005662Y005151D02*
X005096Y005151D01*
X005096Y004451D02*
X005662Y004451D01*
X005662Y003751D02*
X005096Y003751D01*
X005396Y003051D02*
X005396Y002651D01*
X005331Y002586D01*
X005331Y002651D01*
X005796Y002251D02*
X005796Y001851D01*
X006331Y003751D02*
X006331Y004451D01*
X006331Y005151D01*
X006331Y006051D01*
X006196Y008751D02*
X006396Y008951D01*
X006396Y009317D01*
X006531Y009851D02*
X006896Y009851D01*
X006531Y009851D02*
X006396Y009986D01*
X006296Y010086D01*
X005996Y010251D02*
X005843Y010404D01*
X005425Y010404D01*
X004996Y010832D01*
X004996Y011317D01*
X005031Y011351D01*
X005496Y011351D01*
X005896Y011751D01*
X005896Y012157D01*
X006596Y012651D02*
X005081Y012651D01*
X004296Y012651D02*
X003296Y012651D01*
X002896Y012251D01*
X002896Y011986D01*
X004296Y011317D02*
X004596Y011017D01*
X004596Y010127D01*
X003968Y009498D01*
X005696Y008951D02*
X005996Y009251D01*
X005996Y010251D01*
X006290Y010551D02*
X005896Y010945D01*
X006796Y011317D02*
X006796Y010551D01*
X008096Y010551D01*
X006796Y011986D02*
X006796Y012451D01*
X006596Y012651D01*
X004096Y006551D02*
X004096Y006086D01*
X004062Y006051D01*
D26*
X003246Y010851D02*
X003246Y011636D01*
X003596Y011986D01*
X003796Y013351D02*
X004281Y013351D01*
X005011Y013351D02*
X005496Y013351D01*
D27*
X004996Y012736D02*
X004996Y011986D01*
X004296Y011986D02*
X004296Y012651D01*
X004296Y012736D01*
X004296Y011317D02*
X003596Y011317D01*
M02*
