G75*
G70*
%OFA0B0*%
%FSLAX24Y24*%
%IPPOS*%
%LPD*%
%AMOC8*
5,1,8,0,0,1.08239X$1,22.5*
%
%ADD10R,0.0600X0.1600*%
%ADD11R,0.0740X0.0740*%
%ADD12C,0.0740*%
%ADD13R,0.1000X0.2000*%
%ADD14C,0.0320*%
%ADD15C,0.0100*%
%ADD16C,0.0160*%
D10*
X003796Y001101D03*
X005796Y001101D03*
D11*
X001496Y002851D03*
D12*
X001496Y003851D03*
X001496Y004851D03*
X001496Y005851D03*
D13*
X008096Y005951D03*
X008096Y008251D03*
X008096Y010551D03*
X008096Y003651D03*
D14*
X008096Y002151D03*
X005796Y002251D03*
X005396Y003051D03*
X005096Y003751D03*
X005096Y004451D03*
X005096Y005151D03*
X004096Y006551D03*
X005296Y007351D03*
X006196Y007751D03*
X006796Y008251D03*
X006196Y008751D03*
X006896Y009851D03*
X006796Y010551D03*
X006296Y010551D03*
X004596Y008751D03*
X003246Y010851D03*
X003796Y013351D03*
X005496Y013351D03*
X001596Y007151D03*
X002396Y006651D03*
X003796Y002251D03*
D15*
X000996Y002406D02*
X000996Y001398D01*
X001164Y001566D01*
X001436Y001679D01*
X001731Y001679D01*
X002003Y001566D01*
X002211Y001358D01*
X002324Y001086D01*
X002324Y000791D01*
X002211Y000519D01*
X002043Y000351D01*
X003346Y000351D01*
X003346Y001051D01*
X003746Y001051D01*
X003746Y001151D01*
X003346Y001151D01*
X003346Y001921D01*
X003356Y001959D01*
X003376Y001993D01*
X003404Y002021D01*
X003438Y002041D01*
X003476Y002051D01*
X003746Y002051D01*
X003746Y001151D01*
X003846Y001151D01*
X003846Y002051D01*
X004116Y002051D01*
X004154Y002041D01*
X004188Y002021D01*
X004216Y001993D01*
X004236Y001959D01*
X004246Y001921D01*
X004246Y001151D01*
X003846Y001151D01*
X003846Y001051D01*
X004246Y001051D01*
X004246Y000351D01*
X005346Y000351D01*
X005346Y001051D01*
X005746Y001051D01*
X005746Y001151D01*
X005346Y001151D01*
X005346Y001921D01*
X005356Y001959D01*
X005376Y001993D01*
X005404Y002021D01*
X005438Y002041D01*
X005476Y002051D01*
X005746Y002051D01*
X005746Y001151D01*
X005846Y001151D01*
X005846Y002051D01*
X006116Y002051D01*
X006154Y002041D01*
X006188Y002021D01*
X006216Y001993D01*
X006236Y001959D01*
X006246Y001921D01*
X006246Y001151D01*
X005846Y001151D01*
X005846Y001051D01*
X006246Y001051D01*
X006246Y000351D01*
X007523Y000351D01*
X007355Y000519D01*
X007242Y000791D01*
X007242Y001086D01*
X007355Y001358D01*
X007563Y001566D01*
X007836Y001679D01*
X008130Y001679D01*
X008402Y001566D01*
X008570Y001398D01*
X008570Y002501D01*
X008146Y002501D01*
X008146Y003601D01*
X008046Y003601D01*
X007446Y003601D01*
X007446Y002631D01*
X007456Y002593D01*
X007476Y002559D01*
X007504Y002531D01*
X007538Y002511D01*
X007576Y002501D01*
X008046Y002501D01*
X008046Y003601D01*
X008046Y003701D01*
X007446Y003701D01*
X007446Y004671D01*
X007456Y004709D01*
X007476Y004743D01*
X007504Y004771D01*
X007538Y004791D01*
X007576Y004801D01*
X008046Y004801D01*
X008046Y003701D01*
X008146Y003701D01*
X008146Y004801D01*
X008570Y004801D01*
X008570Y004801D01*
X007534Y004801D01*
X007446Y004889D01*
X007446Y006618D01*
X006513Y007551D01*
X006435Y007551D01*
X006372Y007488D01*
X006258Y007441D01*
X006135Y007441D01*
X006021Y007488D01*
X005933Y007576D01*
X005886Y007689D01*
X005886Y007813D01*
X005933Y007927D01*
X005996Y007990D01*
X005996Y008513D01*
X005933Y008576D01*
X005886Y008689D01*
X005886Y008813D01*
X005933Y008927D01*
X006021Y009014D01*
X006135Y009061D01*
X006258Y009061D01*
X006372Y009014D01*
X006459Y008927D01*
X006506Y008813D01*
X006506Y008689D01*
X006459Y008576D01*
X006396Y008513D01*
X006396Y007990D01*
X006435Y007951D01*
X006679Y007951D01*
X006796Y007834D01*
X007532Y007099D01*
X007534Y007101D01*
X008570Y007101D01*
X008570Y007101D01*
X007534Y007101D01*
X007446Y007189D01*
X007446Y008051D01*
X007035Y008051D01*
X006972Y007988D01*
X006858Y007941D01*
X006735Y007941D01*
X006621Y007988D01*
X006533Y008076D01*
X006486Y008189D01*
X006486Y008313D01*
X006533Y008427D01*
X006621Y008514D01*
X006735Y008561D01*
X006858Y008561D01*
X006972Y008514D01*
X007035Y008451D01*
X007446Y008451D01*
X007446Y009313D01*
X007534Y009401D01*
X008570Y009401D01*
X008570Y009401D01*
X007534Y009401D01*
X007446Y009489D01*
X007446Y010321D01*
X007005Y010321D01*
X006972Y010288D01*
X006858Y010241D01*
X006735Y010241D01*
X006621Y010288D01*
X006533Y010376D01*
X006486Y010489D01*
X006486Y010613D01*
X006533Y010727D01*
X006621Y010814D01*
X006735Y010861D01*
X006858Y010861D01*
X006972Y010814D01*
X007005Y010781D01*
X007446Y010781D01*
X007446Y011613D01*
X007534Y011701D01*
X008570Y011701D01*
X008570Y012683D01*
X008402Y012515D01*
X008130Y012403D01*
X007836Y012403D01*
X007563Y012515D01*
X007355Y012724D01*
X007242Y012996D01*
X007242Y013291D01*
X007355Y013563D01*
X007523Y013731D01*
X002043Y013731D01*
X002211Y013563D01*
X002324Y013291D01*
X002324Y012996D01*
X002211Y012724D01*
X002003Y012515D01*
X001731Y012403D01*
X001436Y012403D01*
X001164Y012515D01*
X000996Y012683D01*
X000996Y006003D01*
X001055Y006146D01*
X001202Y006292D01*
X001296Y006331D01*
X001296Y006368D01*
X001296Y006534D01*
X001496Y006734D01*
X001613Y006851D01*
X002158Y006851D01*
X002221Y006914D01*
X002335Y006961D01*
X002458Y006961D01*
X002572Y006914D01*
X002659Y006827D01*
X002706Y006713D01*
X002706Y006589D01*
X002659Y006476D01*
X002572Y006388D01*
X002458Y006341D01*
X002335Y006341D01*
X002221Y006388D01*
X002158Y006451D01*
X001779Y006451D01*
X001696Y006368D01*
X001696Y006331D01*
X001791Y006292D01*
X001937Y006146D01*
X002016Y005955D01*
X002016Y005748D01*
X001937Y005557D01*
X001791Y005410D01*
X001648Y005351D01*
X001791Y005292D01*
X001937Y005146D01*
X002016Y004955D01*
X002016Y004748D01*
X001937Y004557D01*
X001791Y004410D01*
X001648Y004351D01*
X001791Y004292D01*
X001937Y004146D01*
X002016Y003955D01*
X002016Y003748D01*
X001937Y003557D01*
X001791Y003410D01*
X001696Y003371D01*
X001886Y003371D01*
X001924Y003361D01*
X001958Y003341D01*
X001986Y003313D01*
X002006Y003279D01*
X002016Y003241D01*
X002016Y002901D01*
X001546Y002901D01*
X001546Y002801D01*
X001546Y002331D01*
X001886Y002331D01*
X001924Y002341D01*
X001958Y002361D01*
X001986Y002389D01*
X002006Y002423D01*
X002016Y002461D01*
X002016Y002801D01*
X001546Y002801D01*
X001446Y002801D01*
X001446Y002331D01*
X001106Y002331D01*
X001068Y002341D01*
X001034Y002361D01*
X001006Y002389D01*
X000996Y002406D01*
X000996Y002319D02*
X008570Y002319D01*
X008570Y002221D02*
X000996Y002221D01*
X000996Y002122D02*
X008570Y002122D01*
X008570Y002024D02*
X006184Y002024D01*
X006245Y001925D02*
X008570Y001925D01*
X008570Y001826D02*
X006246Y001826D01*
X006246Y001728D02*
X008570Y001728D01*
X008570Y001629D02*
X008250Y001629D01*
X008438Y001531D02*
X008570Y001531D01*
X008570Y001432D02*
X008536Y001432D01*
X008570Y002418D02*
X002003Y002418D01*
X002016Y002516D02*
X007530Y002516D01*
X007451Y002615D02*
X002016Y002615D01*
X002016Y002713D02*
X007446Y002713D01*
X007446Y002812D02*
X001546Y002812D01*
X001546Y002713D02*
X001446Y002713D01*
X001446Y002615D02*
X001546Y002615D01*
X001546Y002516D02*
X001446Y002516D01*
X001446Y002418D02*
X001546Y002418D01*
X002016Y002910D02*
X007446Y002910D01*
X007446Y003009D02*
X002016Y003009D01*
X002016Y003107D02*
X007446Y003107D01*
X007446Y003206D02*
X002016Y003206D01*
X001991Y003305D02*
X007446Y003305D01*
X007446Y003403D02*
X001773Y003403D01*
X001882Y003502D02*
X007446Y003502D01*
X007446Y003600D02*
X001955Y003600D01*
X001996Y003699D02*
X008046Y003699D01*
X008046Y003797D02*
X008146Y003797D01*
X008146Y003896D02*
X008046Y003896D01*
X008046Y003994D02*
X008146Y003994D01*
X008146Y004093D02*
X008046Y004093D01*
X008046Y004191D02*
X008146Y004191D01*
X008146Y004290D02*
X008046Y004290D01*
X008046Y004389D02*
X008146Y004389D01*
X008146Y004487D02*
X008046Y004487D01*
X008046Y004586D02*
X008146Y004586D01*
X008146Y004684D02*
X008046Y004684D01*
X008046Y004783D02*
X008146Y004783D01*
X007524Y004783D02*
X002016Y004783D01*
X002016Y004881D02*
X007454Y004881D01*
X007446Y004980D02*
X002006Y004980D01*
X001965Y005078D02*
X007446Y005078D01*
X007446Y005177D02*
X001906Y005177D01*
X001807Y005275D02*
X007446Y005275D01*
X007446Y005374D02*
X001703Y005374D01*
X001853Y005473D02*
X007446Y005473D01*
X007446Y005571D02*
X001943Y005571D01*
X001984Y005670D02*
X007446Y005670D01*
X007446Y005768D02*
X002016Y005768D01*
X002016Y005867D02*
X007446Y005867D01*
X007446Y005965D02*
X002012Y005965D01*
X001971Y006064D02*
X007446Y006064D01*
X007446Y006162D02*
X001920Y006162D01*
X001822Y006261D02*
X007446Y006261D01*
X007446Y006359D02*
X002502Y006359D01*
X002641Y006458D02*
X007446Y006458D01*
X007446Y006556D02*
X002692Y006556D01*
X002706Y006655D02*
X007409Y006655D01*
X007311Y006754D02*
X002689Y006754D01*
X002634Y006852D02*
X007212Y006852D01*
X007114Y006951D02*
X002483Y006951D01*
X002309Y006951D02*
X000996Y006951D01*
X000996Y007049D02*
X007015Y007049D01*
X006917Y007148D02*
X000996Y007148D01*
X000996Y007246D02*
X006818Y007246D01*
X006720Y007345D02*
X000996Y007345D01*
X000996Y007443D02*
X006129Y007443D01*
X006263Y007443D02*
X006621Y007443D01*
X006523Y007542D02*
X006425Y007542D01*
X006596Y007751D02*
X006196Y007751D01*
X006196Y008751D01*
X006411Y008527D02*
X006653Y008527D01*
X006535Y008429D02*
X006396Y008429D01*
X006396Y008330D02*
X006493Y008330D01*
X006486Y008232D02*
X006396Y008232D01*
X006396Y008133D02*
X006510Y008133D01*
X006574Y008035D02*
X006396Y008035D01*
X006596Y007751D02*
X007996Y006351D01*
X007996Y006051D01*
X008096Y006051D01*
X008096Y005951D01*
X007487Y007148D02*
X007482Y007148D01*
X007446Y007246D02*
X007384Y007246D01*
X007446Y007345D02*
X007285Y007345D01*
X007187Y007443D02*
X007446Y007443D01*
X007446Y007542D02*
X007088Y007542D01*
X006990Y007640D02*
X007446Y007640D01*
X007446Y007739D02*
X006891Y007739D01*
X006793Y007838D02*
X007446Y007838D01*
X007446Y007936D02*
X006694Y007936D01*
X006796Y008251D02*
X008096Y008251D01*
X007446Y008035D02*
X007018Y008035D01*
X006939Y008527D02*
X007446Y008527D01*
X007446Y008626D02*
X006480Y008626D01*
X006506Y008724D02*
X007446Y008724D01*
X007446Y008823D02*
X006502Y008823D01*
X006461Y008922D02*
X007446Y008922D01*
X007446Y009020D02*
X006357Y009020D01*
X006035Y009020D02*
X000996Y009020D01*
X000996Y008922D02*
X005931Y008922D01*
X005890Y008823D02*
X000996Y008823D01*
X000996Y008724D02*
X005886Y008724D01*
X005913Y008626D02*
X000996Y008626D01*
X000996Y008527D02*
X005982Y008527D01*
X005996Y008429D02*
X000996Y008429D01*
X000996Y008330D02*
X005996Y008330D01*
X005996Y008232D02*
X000996Y008232D01*
X000996Y008133D02*
X005996Y008133D01*
X005996Y008035D02*
X000996Y008035D01*
X000996Y007936D02*
X005943Y007936D01*
X005896Y007838D02*
X000996Y007838D01*
X000996Y007739D02*
X005886Y007739D01*
X005906Y007640D02*
X000996Y007640D01*
X000996Y007542D02*
X005967Y007542D01*
X007446Y009119D02*
X000996Y009119D01*
X000996Y009217D02*
X007446Y009217D01*
X007449Y009316D02*
X000996Y009316D01*
X000996Y009414D02*
X007521Y009414D01*
X007446Y009513D02*
X000996Y009513D01*
X000996Y009611D02*
X007446Y009611D01*
X007446Y009710D02*
X000996Y009710D01*
X000996Y009808D02*
X007446Y009808D01*
X007446Y009907D02*
X000996Y009907D01*
X000996Y010006D02*
X007446Y010006D01*
X007446Y010104D02*
X000996Y010104D01*
X000996Y010203D02*
X007446Y010203D01*
X007446Y010301D02*
X006985Y010301D01*
X006992Y010794D02*
X007446Y010794D01*
X007446Y010892D02*
X000996Y010892D01*
X000996Y010794D02*
X006601Y010794D01*
X006520Y010695D02*
X000996Y010695D01*
X000996Y010597D02*
X006486Y010597D01*
X006486Y010498D02*
X000996Y010498D01*
X000996Y010400D02*
X006523Y010400D01*
X006608Y010301D02*
X000996Y010301D01*
X000996Y010991D02*
X007446Y010991D01*
X007446Y011089D02*
X000996Y011089D01*
X000996Y011188D02*
X007446Y011188D01*
X007446Y011287D02*
X000996Y011287D01*
X000996Y011385D02*
X007446Y011385D01*
X007446Y011484D02*
X000996Y011484D01*
X000996Y011582D02*
X007446Y011582D01*
X007514Y011681D02*
X000996Y011681D01*
X000996Y011779D02*
X008570Y011779D01*
X008570Y011878D02*
X000996Y011878D01*
X000996Y011976D02*
X008570Y011976D01*
X008570Y012075D02*
X000996Y012075D01*
X000996Y012173D02*
X008570Y012173D01*
X008570Y012272D02*
X000996Y012272D01*
X000996Y012371D02*
X008570Y012371D01*
X008570Y012469D02*
X008290Y012469D01*
X008454Y012568D02*
X008570Y012568D01*
X008570Y012666D02*
X008553Y012666D01*
X007675Y012469D02*
X001891Y012469D01*
X002055Y012568D02*
X007511Y012568D01*
X007413Y012666D02*
X002154Y012666D01*
X002228Y012765D02*
X007338Y012765D01*
X007297Y012863D02*
X002269Y012863D01*
X002310Y012962D02*
X007256Y012962D01*
X007242Y013060D02*
X002324Y013060D01*
X002324Y013159D02*
X007242Y013159D01*
X007242Y013257D02*
X002324Y013257D01*
X002297Y013356D02*
X007269Y013356D01*
X007310Y013455D02*
X002256Y013455D01*
X002215Y013553D02*
X007351Y013553D01*
X007444Y013652D02*
X002123Y013652D01*
X001276Y012469D02*
X000996Y012469D01*
X000996Y012568D02*
X001112Y012568D01*
X001013Y012666D02*
X000996Y012666D01*
X000996Y006852D02*
X002159Y006852D01*
X002396Y006651D02*
X001696Y006651D01*
X001496Y006451D01*
X001496Y005851D01*
X001171Y006261D02*
X000996Y006261D01*
X000996Y006359D02*
X001296Y006359D01*
X001296Y006458D02*
X000996Y006458D01*
X000996Y006556D02*
X001319Y006556D01*
X001417Y006655D02*
X000996Y006655D01*
X000996Y006754D02*
X001516Y006754D01*
X001696Y006359D02*
X002291Y006359D01*
X001990Y004684D02*
X007450Y004684D01*
X007446Y004586D02*
X001949Y004586D01*
X001867Y004487D02*
X007446Y004487D01*
X007446Y004389D02*
X001738Y004389D01*
X001793Y004290D02*
X007446Y004290D01*
X007446Y004191D02*
X001891Y004191D01*
X001959Y004093D02*
X007446Y004093D01*
X007446Y003994D02*
X002000Y003994D01*
X002016Y003896D02*
X007446Y003896D01*
X007446Y003797D02*
X002016Y003797D01*
X000996Y002024D02*
X003408Y002024D01*
X003347Y001925D02*
X000996Y001925D01*
X000996Y001826D02*
X003346Y001826D01*
X003346Y001728D02*
X000996Y001728D01*
X000996Y001629D02*
X001316Y001629D01*
X001129Y001531D02*
X000996Y001531D01*
X000996Y001432D02*
X001030Y001432D01*
X001851Y001629D02*
X003346Y001629D01*
X003346Y001531D02*
X002039Y001531D01*
X002137Y001432D02*
X003346Y001432D01*
X003346Y001334D02*
X002221Y001334D01*
X002262Y001235D02*
X003346Y001235D01*
X003346Y001038D02*
X002324Y001038D01*
X002324Y000940D02*
X003346Y000940D01*
X003346Y000841D02*
X002324Y000841D01*
X002304Y000742D02*
X003346Y000742D01*
X003346Y000644D02*
X002263Y000644D01*
X002222Y000545D02*
X003346Y000545D01*
X003346Y000447D02*
X002139Y000447D01*
X002303Y001137D02*
X003746Y001137D01*
X003746Y001235D02*
X003846Y001235D01*
X003846Y001137D02*
X005746Y001137D01*
X005746Y001235D02*
X005846Y001235D01*
X005846Y001137D02*
X007263Y001137D01*
X007242Y001038D02*
X006246Y001038D01*
X006246Y000940D02*
X007242Y000940D01*
X007242Y000841D02*
X006246Y000841D01*
X006246Y000742D02*
X007262Y000742D01*
X007303Y000644D02*
X006246Y000644D01*
X006246Y000545D02*
X007344Y000545D01*
X007427Y000447D02*
X006246Y000447D01*
X006246Y001235D02*
X007304Y001235D01*
X007345Y001334D02*
X006246Y001334D01*
X006246Y001432D02*
X007429Y001432D01*
X007528Y001531D02*
X006246Y001531D01*
X006246Y001629D02*
X007715Y001629D01*
X008046Y002516D02*
X008146Y002516D01*
X008146Y002615D02*
X008046Y002615D01*
X008046Y002713D02*
X008146Y002713D01*
X008146Y002812D02*
X008046Y002812D01*
X008046Y002910D02*
X008146Y002910D01*
X008146Y003009D02*
X008046Y003009D01*
X008046Y003107D02*
X008146Y003107D01*
X008146Y003206D02*
X008046Y003206D01*
X008046Y003305D02*
X008146Y003305D01*
X008146Y003403D02*
X008046Y003403D01*
X008046Y003502D02*
X008146Y003502D01*
X008146Y003600D02*
X008046Y003600D01*
X005846Y002024D02*
X005746Y002024D01*
X005746Y001925D02*
X005846Y001925D01*
X005846Y001826D02*
X005746Y001826D01*
X005746Y001728D02*
X005846Y001728D01*
X005846Y001629D02*
X005746Y001629D01*
X005746Y001531D02*
X005846Y001531D01*
X005846Y001432D02*
X005746Y001432D01*
X005746Y001334D02*
X005846Y001334D01*
X005408Y002024D02*
X004184Y002024D01*
X004245Y001925D02*
X005347Y001925D01*
X005346Y001826D02*
X004246Y001826D01*
X004246Y001728D02*
X005346Y001728D01*
X005346Y001629D02*
X004246Y001629D01*
X004246Y001531D02*
X005346Y001531D01*
X005346Y001432D02*
X004246Y001432D01*
X004246Y001334D02*
X005346Y001334D01*
X005346Y001235D02*
X004246Y001235D01*
X004246Y001038D02*
X005346Y001038D01*
X005346Y000940D02*
X004246Y000940D01*
X004246Y000841D02*
X005346Y000841D01*
X005346Y000742D02*
X004246Y000742D01*
X004246Y000644D02*
X005346Y000644D01*
X005346Y000545D02*
X004246Y000545D01*
X004246Y000447D02*
X005346Y000447D01*
X003846Y001334D02*
X003746Y001334D01*
X003746Y001432D02*
X003846Y001432D01*
X003846Y001531D02*
X003746Y001531D01*
X003746Y001629D02*
X003846Y001629D01*
X003846Y001728D02*
X003746Y001728D01*
X003746Y001826D02*
X003846Y001826D01*
X003846Y001925D02*
X003746Y001925D01*
X003746Y002024D02*
X003846Y002024D01*
X001072Y006162D02*
X000996Y006162D01*
X000996Y006064D02*
X001021Y006064D01*
D16*
X006796Y010551D02*
X008096Y010551D01*
M02*
