G75*
G70*
%OFA0B0*%
%FSLAX24Y24*%
%IPPOS*%
%LPD*%
%AMOC8*
5,1,8,0,0,1.08239X$1,22.5*
%
%ADD10C,0.0000*%
%ADD11C,0.0010*%
%ADD12OC8,0.0740*%
%ADD13C,0.0740*%
%ADD14C,0.0050*%
%ADD15R,0.0394X0.1870*%
%ADD16C,0.0594*%
%ADD17C,0.0320*%
%ADD18C,0.0100*%
%ADD19C,0.0120*%
D10*
X005877Y004927D02*
X005879Y004975D01*
X005885Y005023D01*
X005895Y005070D01*
X005908Y005116D01*
X005926Y005161D01*
X005946Y005205D01*
X005971Y005247D01*
X005999Y005286D01*
X006029Y005323D01*
X006063Y005357D01*
X006100Y005389D01*
X006138Y005418D01*
X006179Y005443D01*
X006222Y005465D01*
X006267Y005483D01*
X006313Y005497D01*
X006360Y005508D01*
X006408Y005515D01*
X006456Y005518D01*
X006504Y005517D01*
X006552Y005512D01*
X006600Y005503D01*
X006646Y005491D01*
X006691Y005474D01*
X006735Y005454D01*
X006777Y005431D01*
X006817Y005404D01*
X006855Y005374D01*
X006890Y005341D01*
X006922Y005305D01*
X006952Y005267D01*
X006978Y005226D01*
X007000Y005183D01*
X007020Y005139D01*
X007035Y005094D01*
X007047Y005047D01*
X007055Y004999D01*
X007059Y004951D01*
X007059Y004903D01*
X007055Y004855D01*
X007047Y004807D01*
X007035Y004760D01*
X007020Y004715D01*
X007000Y004671D01*
X006978Y004628D01*
X006952Y004587D01*
X006922Y004549D01*
X006890Y004513D01*
X006855Y004480D01*
X006817Y004450D01*
X006777Y004423D01*
X006735Y004400D01*
X006691Y004380D01*
X006646Y004363D01*
X006600Y004351D01*
X006552Y004342D01*
X006504Y004337D01*
X006456Y004336D01*
X006408Y004339D01*
X006360Y004346D01*
X006313Y004357D01*
X006267Y004371D01*
X006222Y004389D01*
X006179Y004411D01*
X006138Y004436D01*
X006100Y004465D01*
X006063Y004497D01*
X006029Y004531D01*
X005999Y004568D01*
X005971Y004607D01*
X005946Y004649D01*
X005926Y004693D01*
X005908Y004738D01*
X005895Y004784D01*
X005885Y004831D01*
X005879Y004879D01*
X005877Y004927D01*
X005877Y022250D02*
X005879Y022298D01*
X005885Y022346D01*
X005895Y022393D01*
X005908Y022439D01*
X005926Y022484D01*
X005946Y022528D01*
X005971Y022570D01*
X005999Y022609D01*
X006029Y022646D01*
X006063Y022680D01*
X006100Y022712D01*
X006138Y022741D01*
X006179Y022766D01*
X006222Y022788D01*
X006267Y022806D01*
X006313Y022820D01*
X006360Y022831D01*
X006408Y022838D01*
X006456Y022841D01*
X006504Y022840D01*
X006552Y022835D01*
X006600Y022826D01*
X006646Y022814D01*
X006691Y022797D01*
X006735Y022777D01*
X006777Y022754D01*
X006817Y022727D01*
X006855Y022697D01*
X006890Y022664D01*
X006922Y022628D01*
X006952Y022590D01*
X006978Y022549D01*
X007000Y022506D01*
X007020Y022462D01*
X007035Y022417D01*
X007047Y022370D01*
X007055Y022322D01*
X007059Y022274D01*
X007059Y022226D01*
X007055Y022178D01*
X007047Y022130D01*
X007035Y022083D01*
X007020Y022038D01*
X007000Y021994D01*
X006978Y021951D01*
X006952Y021910D01*
X006922Y021872D01*
X006890Y021836D01*
X006855Y021803D01*
X006817Y021773D01*
X006777Y021746D01*
X006735Y021723D01*
X006691Y021703D01*
X006646Y021686D01*
X006600Y021674D01*
X006552Y021665D01*
X006504Y021660D01*
X006456Y021659D01*
X006408Y021662D01*
X006360Y021669D01*
X006313Y021680D01*
X006267Y021694D01*
X006222Y021712D01*
X006179Y021734D01*
X006138Y021759D01*
X006100Y021788D01*
X006063Y021820D01*
X006029Y021854D01*
X005999Y021891D01*
X005971Y021930D01*
X005946Y021972D01*
X005926Y022016D01*
X005908Y022061D01*
X005895Y022107D01*
X005885Y022154D01*
X005879Y022202D01*
X005877Y022250D01*
X020444Y022250D02*
X020446Y022298D01*
X020452Y022346D01*
X020462Y022393D01*
X020475Y022439D01*
X020493Y022484D01*
X020513Y022528D01*
X020538Y022570D01*
X020566Y022609D01*
X020596Y022646D01*
X020630Y022680D01*
X020667Y022712D01*
X020705Y022741D01*
X020746Y022766D01*
X020789Y022788D01*
X020834Y022806D01*
X020880Y022820D01*
X020927Y022831D01*
X020975Y022838D01*
X021023Y022841D01*
X021071Y022840D01*
X021119Y022835D01*
X021167Y022826D01*
X021213Y022814D01*
X021258Y022797D01*
X021302Y022777D01*
X021344Y022754D01*
X021384Y022727D01*
X021422Y022697D01*
X021457Y022664D01*
X021489Y022628D01*
X021519Y022590D01*
X021545Y022549D01*
X021567Y022506D01*
X021587Y022462D01*
X021602Y022417D01*
X021614Y022370D01*
X021622Y022322D01*
X021626Y022274D01*
X021626Y022226D01*
X021622Y022178D01*
X021614Y022130D01*
X021602Y022083D01*
X021587Y022038D01*
X021567Y021994D01*
X021545Y021951D01*
X021519Y021910D01*
X021489Y021872D01*
X021457Y021836D01*
X021422Y021803D01*
X021384Y021773D01*
X021344Y021746D01*
X021302Y021723D01*
X021258Y021703D01*
X021213Y021686D01*
X021167Y021674D01*
X021119Y021665D01*
X021071Y021660D01*
X021023Y021659D01*
X020975Y021662D01*
X020927Y021669D01*
X020880Y021680D01*
X020834Y021694D01*
X020789Y021712D01*
X020746Y021734D01*
X020705Y021759D01*
X020667Y021788D01*
X020630Y021820D01*
X020596Y021854D01*
X020566Y021891D01*
X020538Y021930D01*
X020513Y021972D01*
X020493Y022016D01*
X020475Y022061D01*
X020462Y022107D01*
X020452Y022154D01*
X020446Y022202D01*
X020444Y022250D01*
X020444Y004927D02*
X020446Y004975D01*
X020452Y005023D01*
X020462Y005070D01*
X020475Y005116D01*
X020493Y005161D01*
X020513Y005205D01*
X020538Y005247D01*
X020566Y005286D01*
X020596Y005323D01*
X020630Y005357D01*
X020667Y005389D01*
X020705Y005418D01*
X020746Y005443D01*
X020789Y005465D01*
X020834Y005483D01*
X020880Y005497D01*
X020927Y005508D01*
X020975Y005515D01*
X021023Y005518D01*
X021071Y005517D01*
X021119Y005512D01*
X021167Y005503D01*
X021213Y005491D01*
X021258Y005474D01*
X021302Y005454D01*
X021344Y005431D01*
X021384Y005404D01*
X021422Y005374D01*
X021457Y005341D01*
X021489Y005305D01*
X021519Y005267D01*
X021545Y005226D01*
X021567Y005183D01*
X021587Y005139D01*
X021602Y005094D01*
X021614Y005047D01*
X021622Y004999D01*
X021626Y004951D01*
X021626Y004903D01*
X021622Y004855D01*
X021614Y004807D01*
X021602Y004760D01*
X021587Y004715D01*
X021567Y004671D01*
X021545Y004628D01*
X021519Y004587D01*
X021489Y004549D01*
X021457Y004513D01*
X021422Y004480D01*
X021384Y004450D01*
X021344Y004423D01*
X021302Y004400D01*
X021258Y004380D01*
X021213Y004363D01*
X021167Y004351D01*
X021119Y004342D01*
X021071Y004337D01*
X021023Y004336D01*
X020975Y004339D01*
X020927Y004346D01*
X020880Y004357D01*
X020834Y004371D01*
X020789Y004389D01*
X020746Y004411D01*
X020705Y004436D01*
X020667Y004465D01*
X020630Y004497D01*
X020596Y004531D01*
X020566Y004568D01*
X020538Y004607D01*
X020513Y004649D01*
X020493Y004693D01*
X020475Y004738D01*
X020462Y004784D01*
X020452Y004831D01*
X020446Y004879D01*
X020444Y004927D01*
D11*
X019854Y004927D02*
X007649Y004927D01*
X007649Y004928D02*
X007646Y004860D01*
X007638Y004793D01*
X007627Y004726D01*
X007612Y004660D01*
X007593Y004595D01*
X007571Y004531D01*
X007544Y004469D01*
X007514Y004408D01*
X007481Y004349D01*
X007444Y004292D01*
X007404Y004238D01*
X007361Y004186D01*
X007315Y004136D01*
X007266Y004089D01*
X007214Y004045D01*
X007160Y004005D01*
X007104Y003967D01*
X007046Y003933D01*
X006985Y003902D01*
X006923Y003875D01*
X006860Y003852D01*
X006795Y003832D01*
X006729Y003816D01*
X006663Y003804D01*
X006595Y003796D01*
X006528Y003792D01*
X006460Y003791D01*
X006392Y003795D01*
X006325Y003803D01*
X006258Y003814D01*
X006193Y003830D01*
X006128Y003849D01*
X006064Y003872D01*
X006002Y003899D01*
X005941Y003929D01*
X005883Y003963D01*
X005826Y004000D01*
X005772Y004041D01*
X005720Y004084D01*
X005670Y004130D01*
X005624Y004180D01*
X005581Y004232D01*
X005540Y004286D01*
X005503Y004343D01*
X005469Y004401D01*
X005439Y004462D01*
X005412Y004524D01*
X005389Y004588D01*
X005370Y004653D01*
X005354Y004718D01*
X005343Y004785D01*
X005335Y004852D01*
X005331Y004920D01*
X005332Y004988D01*
X005336Y005055D01*
X005344Y005123D01*
X005356Y005189D01*
X005372Y005255D01*
X005392Y005320D01*
X005415Y005383D01*
X005442Y005445D01*
X005473Y005506D01*
X005507Y005564D01*
X005545Y005620D01*
X005585Y005674D01*
X005629Y005726D01*
X005676Y005775D01*
X005726Y005821D01*
X005778Y005864D01*
X005832Y005904D01*
X005889Y005941D01*
X005948Y005974D01*
X006009Y006004D01*
X006071Y006031D01*
X006135Y006053D01*
X006200Y006072D01*
X006266Y006087D01*
X006333Y006098D01*
X006400Y006106D01*
X006468Y006109D01*
X006468Y006108D02*
X006468Y021069D01*
X006400Y021072D01*
X006333Y021080D01*
X006266Y021091D01*
X006200Y021106D01*
X006135Y021125D01*
X006071Y021147D01*
X006009Y021174D01*
X005948Y021204D01*
X005889Y021237D01*
X005832Y021274D01*
X005778Y021314D01*
X005726Y021357D01*
X005676Y021403D01*
X005629Y021452D01*
X005585Y021504D01*
X005545Y021558D01*
X005507Y021614D01*
X005473Y021672D01*
X005442Y021733D01*
X005415Y021795D01*
X005392Y021858D01*
X005372Y021923D01*
X005356Y021989D01*
X005344Y022055D01*
X005336Y022123D01*
X005332Y022190D01*
X005331Y022258D01*
X005335Y022326D01*
X005343Y022393D01*
X005354Y022460D01*
X005370Y022525D01*
X005389Y022590D01*
X005412Y022654D01*
X005439Y022716D01*
X005469Y022777D01*
X005503Y022835D01*
X005540Y022892D01*
X005581Y022946D01*
X005624Y022998D01*
X005670Y023048D01*
X005720Y023094D01*
X005772Y023137D01*
X005826Y023178D01*
X005883Y023215D01*
X005941Y023249D01*
X006002Y023279D01*
X006064Y023306D01*
X006128Y023329D01*
X006193Y023348D01*
X006258Y023364D01*
X006325Y023375D01*
X006392Y023383D01*
X006460Y023387D01*
X006528Y023386D01*
X006595Y023382D01*
X006663Y023374D01*
X006729Y023362D01*
X006795Y023346D01*
X006860Y023326D01*
X006923Y023303D01*
X006985Y023276D01*
X007046Y023245D01*
X007104Y023211D01*
X007160Y023173D01*
X007214Y023133D01*
X007266Y023089D01*
X007315Y023042D01*
X007361Y022992D01*
X007404Y022940D01*
X007444Y022886D01*
X007481Y022829D01*
X007514Y022770D01*
X007544Y022709D01*
X007571Y022647D01*
X007593Y022583D01*
X007612Y022518D01*
X007627Y022452D01*
X007638Y022385D01*
X007646Y022318D01*
X007649Y022250D01*
X019854Y022250D01*
X019857Y022318D01*
X019865Y022385D01*
X019876Y022452D01*
X019891Y022518D01*
X019910Y022583D01*
X019932Y022647D01*
X019959Y022709D01*
X019989Y022770D01*
X020022Y022829D01*
X020059Y022886D01*
X020099Y022940D01*
X020142Y022992D01*
X020188Y023042D01*
X020237Y023089D01*
X020289Y023133D01*
X020343Y023173D01*
X020399Y023211D01*
X020457Y023245D01*
X020518Y023276D01*
X020580Y023303D01*
X020643Y023326D01*
X020708Y023346D01*
X020774Y023362D01*
X020840Y023374D01*
X020908Y023382D01*
X020975Y023386D01*
X021043Y023387D01*
X021111Y023383D01*
X021178Y023375D01*
X021245Y023364D01*
X021310Y023348D01*
X021375Y023329D01*
X021439Y023306D01*
X021501Y023279D01*
X021562Y023249D01*
X021620Y023215D01*
X021677Y023178D01*
X021731Y023137D01*
X021783Y023094D01*
X021833Y023048D01*
X021879Y022998D01*
X021922Y022946D01*
X021963Y022892D01*
X022000Y022835D01*
X022034Y022777D01*
X022064Y022716D01*
X022091Y022654D01*
X022114Y022590D01*
X022133Y022525D01*
X022149Y022460D01*
X022160Y022393D01*
X022168Y022326D01*
X022172Y022258D01*
X022171Y022190D01*
X022167Y022123D01*
X022159Y022055D01*
X022147Y021989D01*
X022131Y021923D01*
X022111Y021858D01*
X022088Y021795D01*
X022061Y021733D01*
X022030Y021672D01*
X021996Y021614D01*
X021958Y021558D01*
X021918Y021504D01*
X021874Y021452D01*
X021827Y021403D01*
X021777Y021357D01*
X021725Y021314D01*
X021671Y021274D01*
X021614Y021237D01*
X021555Y021204D01*
X021494Y021174D01*
X021432Y021147D01*
X021368Y021125D01*
X021303Y021106D01*
X021237Y021091D01*
X021170Y021080D01*
X021103Y021072D01*
X021035Y021069D01*
X021035Y006108D01*
X021035Y006109D02*
X021103Y006106D01*
X021170Y006098D01*
X021237Y006087D01*
X021303Y006072D01*
X021368Y006053D01*
X021432Y006031D01*
X021494Y006004D01*
X021555Y005974D01*
X021614Y005941D01*
X021671Y005904D01*
X021725Y005864D01*
X021777Y005821D01*
X021827Y005775D01*
X021874Y005726D01*
X021918Y005674D01*
X021958Y005620D01*
X021996Y005564D01*
X022030Y005506D01*
X022061Y005445D01*
X022088Y005383D01*
X022111Y005320D01*
X022131Y005255D01*
X022147Y005189D01*
X022159Y005123D01*
X022167Y005055D01*
X022171Y004988D01*
X022172Y004920D01*
X022168Y004852D01*
X022160Y004785D01*
X022149Y004718D01*
X022133Y004653D01*
X022114Y004588D01*
X022091Y004524D01*
X022064Y004462D01*
X022034Y004401D01*
X022000Y004343D01*
X021963Y004286D01*
X021922Y004232D01*
X021879Y004180D01*
X021833Y004130D01*
X021783Y004084D01*
X021731Y004041D01*
X021677Y004000D01*
X021620Y003963D01*
X021562Y003929D01*
X021501Y003899D01*
X021439Y003872D01*
X021375Y003849D01*
X021310Y003830D01*
X021245Y003814D01*
X021178Y003803D01*
X021111Y003795D01*
X021043Y003791D01*
X020975Y003792D01*
X020908Y003796D01*
X020840Y003804D01*
X020774Y003816D01*
X020708Y003832D01*
X020643Y003852D01*
X020580Y003875D01*
X020518Y003902D01*
X020457Y003933D01*
X020399Y003967D01*
X020343Y004005D01*
X020289Y004045D01*
X020237Y004089D01*
X020188Y004136D01*
X020142Y004186D01*
X020099Y004238D01*
X020059Y004292D01*
X020022Y004349D01*
X019989Y004408D01*
X019959Y004469D01*
X019932Y004531D01*
X019910Y004595D01*
X019891Y004660D01*
X019876Y004726D01*
X019865Y004793D01*
X019857Y004860D01*
X019854Y004928D01*
D12*
X019387Y005846D03*
X018387Y005846D03*
X017387Y005846D03*
X017387Y006846D03*
X018387Y006846D03*
X019387Y006846D03*
D13*
X020287Y008915D03*
X020287Y009915D03*
X020287Y010915D03*
X020287Y011915D03*
X020287Y012915D03*
X020287Y013915D03*
D14*
X012900Y022246D02*
X012898Y022194D01*
X012892Y022143D01*
X012883Y022092D01*
X012870Y022042D01*
X012853Y021993D01*
X012833Y021945D01*
X012809Y021899D01*
X012782Y021855D01*
X012752Y021813D01*
X012719Y021773D01*
X012683Y021736D01*
X012645Y021701D01*
X012604Y021669D01*
X012560Y021641D01*
X012515Y021615D01*
X012468Y021593D01*
X012420Y021575D01*
X012370Y021560D01*
X012320Y021549D01*
X012269Y021541D01*
X012217Y021537D01*
X012165Y021537D01*
X012113Y021541D01*
X012062Y021549D01*
X012012Y021560D01*
X011962Y021575D01*
X011914Y021593D01*
X011867Y021615D01*
X011822Y021641D01*
X011778Y021669D01*
X011737Y021701D01*
X011699Y021736D01*
X011663Y021773D01*
X011630Y021813D01*
X011600Y021855D01*
X011573Y021899D01*
X011549Y021945D01*
X011529Y021993D01*
X011512Y022042D01*
X011499Y022092D01*
X011490Y022143D01*
X011484Y022194D01*
X011482Y022246D01*
D15*
X012014Y005991D03*
X015360Y005991D03*
D16*
X008026Y015357D03*
X008026Y016735D03*
D17*
X008887Y018346D03*
X009387Y018346D03*
X009887Y018346D03*
X011187Y020446D03*
X011987Y020646D03*
X011987Y020146D03*
X012487Y020646D03*
X012487Y021146D03*
X011987Y021146D03*
X012987Y019246D03*
X012987Y018546D03*
X012987Y017846D03*
X012987Y017146D03*
X012987Y016446D03*
X013687Y016446D03*
X014387Y016446D03*
X015087Y016446D03*
X015087Y017146D03*
X014387Y017146D03*
X014387Y017846D03*
X015087Y017846D03*
X015087Y018546D03*
X014387Y018546D03*
X013687Y018546D03*
X013687Y017846D03*
X013687Y017146D03*
X011987Y016746D03*
X013687Y019246D03*
X014387Y019246D03*
X015087Y019246D03*
X015387Y020146D03*
X015387Y020646D03*
X015387Y021146D03*
X014887Y021146D03*
X014887Y021646D03*
X015887Y019346D03*
X016487Y019346D03*
X016487Y018646D03*
X016487Y017946D03*
X016487Y017246D03*
X016487Y016546D03*
X017187Y016546D03*
X017187Y017246D03*
X017187Y017946D03*
X017887Y017946D03*
X017887Y017246D03*
X017887Y016546D03*
X018587Y016546D03*
X018587Y017246D03*
X018587Y017946D03*
X018587Y018646D03*
X017887Y018646D03*
X017887Y019346D03*
X017187Y019346D03*
X017187Y018646D03*
X019387Y018196D03*
X017187Y014946D03*
X016787Y014946D03*
X016987Y013546D03*
X015637Y013396D03*
X014387Y012546D03*
X014087Y012146D03*
X013787Y011846D03*
X013287Y012646D03*
X013287Y013046D03*
X012837Y012646D03*
X012487Y012446D03*
X012487Y011546D03*
X011387Y013246D03*
X010987Y011046D03*
X010787Y010146D03*
X011587Y008146D03*
X012287Y008146D03*
X012987Y008146D03*
X011387Y006746D03*
X011387Y006246D03*
X011387Y005746D03*
X011387Y005246D03*
X009487Y008246D03*
X008887Y008046D03*
X007887Y007646D03*
X006987Y007146D03*
X008887Y009746D03*
X008187Y013546D03*
X007487Y013546D03*
X014387Y011846D03*
X015787Y010746D03*
X015787Y010146D03*
X016437Y009996D03*
X014887Y007846D03*
X015687Y007346D03*
X015987Y006746D03*
X015987Y006246D03*
X015987Y005746D03*
X015987Y005246D03*
X019387Y010746D03*
X019387Y011446D03*
X019387Y012346D03*
X019387Y012846D03*
X018937Y014796D03*
X019587Y021946D03*
X016987Y021946D03*
D18*
X016062Y019609D02*
X015948Y019656D01*
X015825Y019656D01*
X015711Y019609D01*
X015624Y019522D01*
X015577Y019408D01*
X015577Y019285D01*
X015624Y019171D01*
X015687Y019108D01*
X015687Y013729D01*
X015664Y013706D01*
X015575Y013706D01*
X015461Y013659D01*
X015374Y013572D01*
X015327Y013458D01*
X015327Y013335D01*
X015374Y013221D01*
X015461Y013133D01*
X015575Y013086D01*
X015630Y013086D01*
X014900Y012356D01*
X014315Y012356D01*
X014262Y012409D01*
X014148Y012456D01*
X014025Y012456D01*
X013911Y012409D01*
X013824Y012322D01*
X013777Y012208D01*
X013777Y012156D01*
X013725Y012156D01*
X013611Y012109D01*
X013524Y012022D01*
X013515Y012001D01*
X013387Y012129D01*
X013387Y012352D01*
X013462Y012383D01*
X013550Y012471D01*
X013597Y012585D01*
X013597Y012708D01*
X013550Y012822D01*
X013525Y012846D01*
X013550Y012871D01*
X013597Y012985D01*
X013597Y013108D01*
X013550Y013222D01*
X013462Y013309D01*
X013348Y013356D01*
X013225Y013356D01*
X013111Y013309D01*
X013048Y013246D01*
X011697Y013246D01*
X011697Y013308D01*
X011650Y013422D01*
X011562Y013509D01*
X011448Y013556D01*
X011325Y013556D01*
X011211Y013509D01*
X011124Y013422D01*
X011077Y013308D01*
X011077Y013185D01*
X011124Y013071D01*
X011211Y012983D01*
X011325Y012936D01*
X011414Y012936D01*
X011504Y012846D01*
X012598Y012846D01*
X012574Y012822D01*
X012547Y012756D01*
X012425Y012756D01*
X012311Y012709D01*
X012224Y012622D01*
X012177Y012508D01*
X012177Y012385D01*
X012224Y012271D01*
X012311Y012183D01*
X012425Y012136D01*
X012548Y012136D01*
X012587Y012152D01*
X012587Y011863D01*
X012704Y011746D01*
X016687Y007763D01*
X016687Y006463D01*
X016887Y006263D01*
X016978Y006173D01*
X016867Y006062D01*
X016867Y005631D01*
X017171Y005326D01*
X017602Y005326D01*
X017613Y005337D01*
X017687Y005263D01*
X017804Y005146D01*
X018770Y005146D01*
X019061Y005437D01*
X019171Y005326D01*
X019602Y005326D01*
X019907Y005631D01*
X019907Y006062D01*
X019622Y006346D01*
X019907Y006631D01*
X019907Y006796D01*
X019437Y006796D01*
X019437Y006896D01*
X019907Y006896D01*
X019907Y007062D01*
X019602Y007366D01*
X019437Y007366D01*
X019437Y006896D01*
X019337Y006896D01*
X019337Y007366D01*
X019171Y007366D01*
X018887Y007082D01*
X018602Y007366D01*
X018171Y007366D01*
X018161Y007355D01*
X015880Y009636D01*
X016374Y009636D01*
X016424Y009686D01*
X016498Y009686D01*
X016612Y009733D01*
X016700Y009821D01*
X016747Y009935D01*
X016747Y010058D01*
X016700Y010172D01*
X016612Y010259D01*
X016498Y010306D01*
X016375Y010306D01*
X016261Y010259D01*
X016174Y010172D01*
X016127Y010058D01*
X016127Y010056D01*
X016085Y010056D01*
X016097Y010085D01*
X016097Y010173D01*
X016170Y010246D01*
X016287Y010363D01*
X016287Y010663D01*
X017170Y011546D01*
X019920Y011546D01*
X019992Y011474D01*
X020135Y011415D01*
X019992Y011356D01*
X019846Y011209D01*
X019767Y011018D01*
X019767Y010811D01*
X019846Y010620D01*
X019992Y010474D01*
X020139Y010413D01*
X020087Y010397D01*
X020014Y010360D01*
X019948Y010311D01*
X019890Y010254D01*
X019842Y010187D01*
X019805Y010114D01*
X019780Y010037D01*
X019768Y009965D01*
X020237Y009965D01*
X020237Y009865D01*
X019768Y009865D01*
X019780Y009793D01*
X019805Y009715D01*
X019842Y009642D01*
X019890Y009576D01*
X019948Y009518D01*
X020014Y009470D01*
X020087Y009433D01*
X020143Y009415D01*
X020087Y009397D01*
X020014Y009360D01*
X019948Y009311D01*
X019890Y009254D01*
X019842Y009187D01*
X019805Y009114D01*
X019780Y009037D01*
X019768Y008965D01*
X020237Y008965D01*
X020237Y009433D01*
X020237Y009865D01*
X020337Y009865D01*
X020337Y009965D01*
X020805Y009965D01*
X020794Y010037D01*
X020769Y010114D01*
X020732Y010187D01*
X020683Y010254D01*
X020626Y010311D01*
X020559Y010360D01*
X020486Y010397D01*
X020435Y010413D01*
X020581Y010474D01*
X020728Y010620D01*
X020807Y010811D01*
X020807Y011018D01*
X020728Y011209D01*
X020581Y011356D01*
X020439Y011415D01*
X020581Y011474D01*
X020728Y011620D01*
X020807Y011811D01*
X020807Y012018D01*
X020728Y012209D01*
X020581Y012356D01*
X020439Y012415D01*
X020581Y012474D01*
X020728Y012620D01*
X020807Y012811D01*
X020807Y013018D01*
X020728Y013209D01*
X020581Y013356D01*
X020439Y013415D01*
X020581Y013474D01*
X020728Y013620D01*
X020807Y013811D01*
X020807Y014018D01*
X020728Y014209D01*
X020581Y014356D01*
X020390Y014435D01*
X020183Y014435D01*
X019992Y014356D01*
X019846Y014209D01*
X019767Y014018D01*
X019767Y013811D01*
X019846Y013620D01*
X019992Y013474D01*
X020135Y013415D01*
X019992Y013356D01*
X019846Y013209D01*
X019767Y013018D01*
X019767Y012811D01*
X019806Y012717D01*
X019587Y012498D01*
X019587Y012229D01*
X019472Y012115D01*
X016872Y012115D01*
X015814Y011056D01*
X015725Y011056D01*
X015611Y011009D01*
X015524Y010922D01*
X015477Y010808D01*
X015477Y010685D01*
X015524Y010571D01*
X015611Y010483D01*
X015701Y010446D01*
X015611Y010409D01*
X015524Y010322D01*
X015519Y010311D01*
X014272Y011558D01*
X014325Y011536D01*
X014448Y011536D01*
X014562Y011583D01*
X014615Y011636D01*
X015074Y011636D01*
X016674Y013236D01*
X016797Y013359D01*
X016797Y013959D01*
X017074Y014236D01*
X017197Y014359D01*
X017197Y014636D01*
X017248Y014636D01*
X017362Y014683D01*
X017450Y014771D01*
X017497Y014885D01*
X017497Y015008D01*
X017450Y015122D01*
X017362Y015209D01*
X017248Y015256D01*
X017125Y015256D01*
X017011Y015209D01*
X016987Y015185D01*
X016962Y015209D01*
X016848Y015256D01*
X016725Y015256D01*
X016611Y015209D01*
X016524Y015122D01*
X016477Y015008D01*
X016477Y014885D01*
X016524Y014771D01*
X016577Y014718D01*
X016577Y014633D01*
X016300Y014356D01*
X016177Y014233D01*
X016177Y013633D01*
X015947Y013403D01*
X015947Y013423D01*
X015970Y013446D01*
X016087Y013563D01*
X016087Y019108D01*
X016150Y019171D01*
X016197Y019285D01*
X016197Y019408D01*
X016150Y019522D01*
X016062Y019609D01*
X016067Y019605D02*
X020880Y019605D01*
X020880Y019703D02*
X006623Y019703D01*
X006623Y019605D02*
X015707Y019605D01*
X015618Y019506D02*
X006623Y019506D01*
X006623Y019408D02*
X015577Y019408D01*
X015577Y019309D02*
X006623Y019309D01*
X006623Y019211D02*
X015607Y019211D01*
X015682Y019112D02*
X006623Y019112D01*
X006623Y019014D02*
X015687Y019014D01*
X015687Y018915D02*
X006623Y018915D01*
X006623Y018817D02*
X015687Y018817D01*
X015687Y018718D02*
X006623Y018718D01*
X006623Y018620D02*
X015687Y018620D01*
X015687Y018521D02*
X006623Y018521D01*
X006623Y018423D02*
X015687Y018423D01*
X015687Y018324D02*
X006623Y018324D01*
X006623Y018226D02*
X015687Y018226D01*
X015687Y018127D02*
X006623Y018127D01*
X006623Y018029D02*
X015687Y018029D01*
X015687Y017930D02*
X006623Y017930D01*
X006623Y017832D02*
X015687Y017832D01*
X015687Y017733D02*
X006623Y017733D01*
X006623Y017635D02*
X015687Y017635D01*
X015687Y017536D02*
X006623Y017536D01*
X006623Y017438D02*
X015687Y017438D01*
X015687Y017339D02*
X006623Y017339D01*
X006623Y017241D02*
X015687Y017241D01*
X015687Y017142D02*
X008211Y017142D01*
X008279Y017114D02*
X008115Y017182D01*
X007937Y017182D01*
X007773Y017114D01*
X007647Y016988D01*
X007579Y016824D01*
X007579Y016646D01*
X007647Y016482D01*
X007773Y016356D01*
X007937Y016288D01*
X008115Y016288D01*
X008279Y016356D01*
X008405Y016482D01*
X008473Y016646D01*
X008473Y016824D01*
X008405Y016988D01*
X008279Y017114D01*
X008350Y017044D02*
X015687Y017044D01*
X015687Y016945D02*
X008423Y016945D01*
X008464Y016847D02*
X015687Y016847D01*
X015687Y016748D02*
X008473Y016748D01*
X008473Y016650D02*
X015687Y016650D01*
X015687Y016551D02*
X008434Y016551D01*
X008376Y016453D02*
X015687Y016453D01*
X015687Y016354D02*
X008274Y016354D01*
X007778Y016354D02*
X006623Y016354D01*
X006623Y016256D02*
X015687Y016256D01*
X015687Y016157D02*
X006623Y016157D01*
X006623Y016059D02*
X015687Y016059D01*
X015687Y015960D02*
X006623Y015960D01*
X006623Y015862D02*
X015687Y015862D01*
X015687Y015763D02*
X008214Y015763D01*
X008198Y015771D02*
X008131Y015793D01*
X008075Y015802D01*
X008075Y015406D01*
X008471Y015406D01*
X008462Y015462D01*
X008440Y015529D01*
X008408Y015591D01*
X008367Y015648D01*
X008317Y015698D01*
X008260Y015739D01*
X008198Y015771D01*
X008075Y015763D02*
X007978Y015763D01*
X007978Y015802D02*
X007922Y015793D01*
X007855Y015771D01*
X007792Y015739D01*
X007735Y015698D01*
X007685Y015648D01*
X007644Y015591D01*
X007612Y015529D01*
X007590Y015462D01*
X007581Y015406D01*
X007978Y015406D01*
X007978Y015802D01*
X007978Y015665D02*
X008075Y015665D01*
X008075Y015566D02*
X007978Y015566D01*
X007978Y015468D02*
X008075Y015468D01*
X008075Y015406D02*
X007978Y015406D01*
X007978Y015309D01*
X008075Y015309D01*
X008075Y015406D01*
X008075Y015369D02*
X015687Y015369D01*
X015687Y015271D02*
X008465Y015271D01*
X008462Y015253D02*
X008471Y015309D01*
X008075Y015309D01*
X008075Y014913D01*
X008131Y014921D01*
X008198Y014943D01*
X008260Y014975D01*
X008317Y015016D01*
X008367Y015066D01*
X008408Y015123D01*
X008440Y015186D01*
X008462Y015253D01*
X008433Y015172D02*
X015687Y015172D01*
X015687Y015074D02*
X008373Y015074D01*
X008261Y014975D02*
X015687Y014975D01*
X015687Y014877D02*
X006623Y014877D01*
X006623Y014975D02*
X007792Y014975D01*
X007855Y014943D01*
X007922Y014921D01*
X007978Y014913D01*
X007978Y015309D01*
X007581Y015309D01*
X007590Y015253D01*
X007612Y015186D01*
X007644Y015123D01*
X007685Y015066D01*
X007735Y015016D01*
X007792Y014975D01*
X007680Y015074D02*
X006623Y015074D01*
X006623Y015172D02*
X007619Y015172D01*
X007587Y015271D02*
X006623Y015271D01*
X006623Y015369D02*
X007978Y015369D01*
X007978Y015271D02*
X008075Y015271D01*
X008075Y015172D02*
X007978Y015172D01*
X007978Y015074D02*
X008075Y015074D01*
X008075Y014975D02*
X007978Y014975D01*
X007592Y015468D02*
X006623Y015468D01*
X006623Y015566D02*
X007631Y015566D01*
X007702Y015665D02*
X006623Y015665D01*
X006623Y015763D02*
X007839Y015763D01*
X008351Y015665D02*
X015687Y015665D01*
X015687Y015566D02*
X008421Y015566D01*
X008460Y015468D02*
X015687Y015468D01*
X016087Y015468D02*
X020880Y015468D01*
X020880Y015566D02*
X016087Y015566D01*
X016087Y015665D02*
X020880Y015665D01*
X020880Y015763D02*
X016087Y015763D01*
X016087Y015862D02*
X020880Y015862D01*
X020880Y015960D02*
X016087Y015960D01*
X016087Y016059D02*
X020880Y016059D01*
X020880Y016157D02*
X016087Y016157D01*
X016087Y016256D02*
X020880Y016256D01*
X020880Y016354D02*
X016087Y016354D01*
X016087Y016453D02*
X020880Y016453D01*
X020880Y016551D02*
X016087Y016551D01*
X016087Y016650D02*
X020880Y016650D01*
X020880Y016748D02*
X016087Y016748D01*
X016087Y016847D02*
X020880Y016847D01*
X020880Y016945D02*
X016087Y016945D01*
X016087Y017044D02*
X020880Y017044D01*
X020880Y017142D02*
X016087Y017142D01*
X016087Y017241D02*
X020880Y017241D01*
X020880Y017339D02*
X016087Y017339D01*
X016087Y017438D02*
X020880Y017438D01*
X020880Y017536D02*
X016087Y017536D01*
X016087Y017635D02*
X020880Y017635D01*
X020880Y017733D02*
X016087Y017733D01*
X016087Y017832D02*
X020880Y017832D01*
X020880Y017930D02*
X016087Y017930D01*
X016087Y018029D02*
X020880Y018029D01*
X020880Y018127D02*
X016087Y018127D01*
X016087Y018226D02*
X020880Y018226D01*
X020880Y018324D02*
X016087Y018324D01*
X016087Y018423D02*
X020880Y018423D01*
X020880Y018521D02*
X016087Y018521D01*
X016087Y018620D02*
X020880Y018620D01*
X020880Y018718D02*
X016087Y018718D01*
X016087Y018817D02*
X020880Y018817D01*
X020880Y018915D02*
X016087Y018915D01*
X016087Y019014D02*
X020880Y019014D01*
X020880Y019112D02*
X016091Y019112D01*
X016166Y019211D02*
X020880Y019211D01*
X020880Y019309D02*
X016197Y019309D01*
X016197Y019408D02*
X020880Y019408D01*
X020880Y019506D02*
X016156Y019506D01*
X015887Y019346D02*
X015887Y013646D01*
X015637Y013396D01*
X015533Y013104D02*
X013597Y013104D01*
X013597Y013005D02*
X015549Y013005D01*
X015450Y012907D02*
X013565Y012907D01*
X013555Y012808D02*
X015352Y012808D01*
X015253Y012710D02*
X013596Y012710D01*
X013597Y012611D02*
X015155Y012611D01*
X015056Y012513D02*
X013567Y012513D01*
X013493Y012414D02*
X013924Y012414D01*
X013821Y012316D02*
X013387Y012316D01*
X013387Y012217D02*
X013781Y012217D01*
X013635Y012119D02*
X013397Y012119D01*
X013496Y012020D02*
X013523Y012020D01*
X013187Y012046D02*
X013187Y012546D01*
X013287Y012646D01*
X012987Y012496D02*
X012837Y012646D01*
X012987Y012496D02*
X012987Y011996D01*
X017887Y007096D01*
X017887Y006596D01*
X018137Y006346D01*
X018787Y006346D01*
X018887Y006246D01*
X018887Y005546D01*
X018687Y005346D01*
X017887Y005346D01*
X017387Y005846D01*
X017077Y005421D02*
X015707Y005421D01*
X015707Y005519D02*
X016978Y005519D01*
X016880Y005618D02*
X015707Y005618D01*
X015707Y005716D02*
X016867Y005716D01*
X016867Y005815D02*
X015707Y005815D01*
X015707Y005913D02*
X016867Y005913D01*
X016867Y006012D02*
X015408Y006012D01*
X015408Y006040D02*
X015707Y006040D01*
X015707Y006946D01*
X015697Y006984D01*
X015677Y007018D01*
X015649Y007046D01*
X015615Y007066D01*
X015577Y007076D01*
X015408Y007076D01*
X015408Y006040D01*
X015312Y006040D01*
X015312Y007076D01*
X015143Y007076D01*
X015105Y007066D01*
X015071Y007046D01*
X015043Y007018D01*
X015023Y006984D01*
X015013Y006946D01*
X015013Y006040D01*
X015312Y006040D01*
X015312Y005943D01*
X015013Y005943D01*
X015013Y005105D01*
X012360Y005086D01*
X012360Y005943D01*
X012062Y005943D01*
X012062Y006040D01*
X011965Y006040D01*
X011965Y007076D01*
X011797Y007076D01*
X011759Y007066D01*
X011725Y007046D01*
X011697Y007018D01*
X011677Y006984D01*
X011667Y006946D01*
X011667Y006040D01*
X011965Y006040D01*
X011965Y005943D01*
X011667Y005943D01*
X011667Y005082D01*
X007651Y005082D01*
X007588Y005084D01*
X007587Y005082D01*
X007585Y005082D01*
X007555Y005053D01*
X007208Y005051D01*
X007208Y005075D01*
X007096Y005347D01*
X006887Y005555D01*
X006615Y005668D01*
X006587Y005668D01*
X006587Y006008D01*
X006623Y006044D01*
X006623Y006046D01*
X006624Y006047D01*
X006623Y006110D01*
X006623Y021068D01*
X006624Y021130D01*
X006623Y021132D01*
X006623Y021133D01*
X006587Y021169D01*
X006587Y021510D01*
X006615Y021510D01*
X006887Y021622D01*
X007096Y021831D01*
X007208Y022103D01*
X007208Y022151D01*
X007527Y022153D01*
X007540Y022140D01*
X007585Y022095D01*
X007587Y022095D01*
X007588Y022094D01*
X007651Y022095D01*
X011307Y022095D01*
X011307Y022090D01*
X011414Y021798D01*
X011414Y021798D01*
X011614Y021559D01*
X011614Y021559D01*
X011884Y021403D01*
X012191Y021349D01*
X012498Y021403D01*
X012768Y021559D01*
X012968Y021798D01*
X013074Y022090D01*
X013074Y022095D01*
X019852Y022095D01*
X019915Y022094D01*
X019916Y022095D01*
X019918Y022095D01*
X019962Y022140D01*
X020007Y022183D01*
X020008Y022185D01*
X020009Y022186D01*
X020009Y022240D01*
X020294Y022242D01*
X020294Y022103D01*
X020407Y021831D01*
X020615Y021622D01*
X020888Y021510D01*
X020936Y021510D01*
X020936Y021190D01*
X020924Y021178D01*
X020880Y021133D01*
X020880Y021132D01*
X020879Y021130D01*
X020880Y021068D01*
X020880Y006110D01*
X020879Y006047D01*
X020880Y006046D01*
X020880Y006044D01*
X020924Y006000D01*
X020936Y005987D01*
X020936Y005668D01*
X020888Y005668D01*
X020615Y005555D01*
X020407Y005347D01*
X020322Y005142D01*
X015707Y005110D01*
X015707Y005943D01*
X015408Y005943D01*
X015408Y006040D01*
X015408Y006110D02*
X015312Y006110D01*
X015312Y006012D02*
X012062Y006012D01*
X012062Y006040D02*
X012360Y006040D01*
X012360Y006946D01*
X012350Y006984D01*
X012330Y007018D01*
X012303Y007046D01*
X012268Y007066D01*
X012230Y007076D01*
X012062Y007076D01*
X012062Y006040D01*
X012062Y006110D02*
X011965Y006110D01*
X011965Y006012D02*
X006590Y006012D01*
X006587Y005913D02*
X011667Y005913D01*
X011667Y005815D02*
X006587Y005815D01*
X006587Y005716D02*
X011667Y005716D01*
X011667Y005618D02*
X006736Y005618D01*
X006923Y005519D02*
X011667Y005519D01*
X011667Y005421D02*
X007022Y005421D01*
X007106Y005322D02*
X011667Y005322D01*
X011667Y005224D02*
X007147Y005224D01*
X007188Y005125D02*
X011667Y005125D01*
X012360Y005125D02*
X015013Y005125D01*
X015013Y005224D02*
X012360Y005224D01*
X012360Y005322D02*
X015013Y005322D01*
X015013Y005421D02*
X012360Y005421D01*
X012360Y005519D02*
X015013Y005519D01*
X015013Y005618D02*
X012360Y005618D01*
X012360Y005716D02*
X015013Y005716D01*
X015013Y005815D02*
X012360Y005815D01*
X012360Y005913D02*
X015013Y005913D01*
X015013Y006110D02*
X012360Y006110D01*
X012360Y006209D02*
X015013Y006209D01*
X015013Y006307D02*
X012360Y006307D01*
X012360Y006406D02*
X015013Y006406D01*
X015013Y006504D02*
X012360Y006504D01*
X012360Y006603D02*
X015013Y006603D01*
X015013Y006701D02*
X012360Y006701D01*
X012360Y006800D02*
X015013Y006800D01*
X015013Y006898D02*
X012360Y006898D01*
X012343Y006997D02*
X015031Y006997D01*
X015312Y006997D02*
X015408Y006997D01*
X015408Y006898D02*
X015312Y006898D01*
X015312Y006800D02*
X015408Y006800D01*
X015408Y006701D02*
X015312Y006701D01*
X015312Y006603D02*
X015408Y006603D01*
X015408Y006504D02*
X015312Y006504D01*
X015312Y006406D02*
X015408Y006406D01*
X015408Y006307D02*
X015312Y006307D01*
X015312Y006209D02*
X015408Y006209D01*
X015707Y006209D02*
X016941Y006209D01*
X016915Y006110D02*
X015707Y006110D01*
X015707Y006307D02*
X016843Y006307D01*
X016744Y006406D02*
X015707Y006406D01*
X015707Y006504D02*
X016687Y006504D01*
X016687Y006603D02*
X015707Y006603D01*
X015707Y006701D02*
X016687Y006701D01*
X016687Y006800D02*
X015707Y006800D01*
X015707Y006898D02*
X016687Y006898D01*
X016687Y006997D02*
X015689Y006997D01*
X016567Y007883D02*
X009155Y007883D01*
X009150Y007871D02*
X009197Y007985D01*
X009197Y008073D01*
X009387Y008263D01*
X009387Y008622D01*
X009411Y008646D01*
X010270Y008646D01*
X010387Y008763D01*
X010587Y008963D01*
X010587Y009908D01*
X010611Y009883D01*
X010725Y009836D01*
X010848Y009836D01*
X010962Y009883D01*
X011050Y009971D01*
X011097Y010085D01*
X011097Y010208D01*
X011050Y010322D01*
X010962Y010409D01*
X010848Y010456D01*
X010725Y010456D01*
X010611Y010409D01*
X010548Y010346D01*
X010404Y010346D01*
X010304Y010246D01*
X010187Y010129D01*
X010187Y009129D01*
X010104Y009046D01*
X009245Y009046D01*
X009104Y008905D01*
X008987Y008788D01*
X008987Y008429D01*
X008914Y008356D01*
X008825Y008356D01*
X008711Y008309D01*
X008624Y008222D01*
X008577Y008108D01*
X008577Y007985D01*
X008624Y007871D01*
X008711Y007783D01*
X008825Y007736D01*
X008948Y007736D01*
X009062Y007783D01*
X009150Y007871D01*
X009196Y007982D02*
X016468Y007982D01*
X016370Y008080D02*
X009204Y008080D01*
X009302Y008179D02*
X016271Y008179D01*
X016173Y008277D02*
X009387Y008277D01*
X009387Y008376D02*
X016074Y008376D01*
X015976Y008474D02*
X009387Y008474D01*
X009387Y008573D02*
X015877Y008573D01*
X015779Y008671D02*
X010295Y008671D01*
X010393Y008770D02*
X015680Y008770D01*
X015582Y008868D02*
X010492Y008868D01*
X010587Y008967D02*
X015483Y008967D01*
X015385Y009065D02*
X010587Y009065D01*
X010587Y009164D02*
X015286Y009164D01*
X015188Y009262D02*
X010587Y009262D01*
X010587Y009361D02*
X015089Y009361D01*
X014991Y009459D02*
X010587Y009459D01*
X010587Y009558D02*
X014892Y009558D01*
X014794Y009656D02*
X010587Y009656D01*
X010587Y009755D02*
X014695Y009755D01*
X014597Y009853D02*
X010890Y009853D01*
X011031Y009952D02*
X014498Y009952D01*
X014400Y010050D02*
X011083Y010050D01*
X011097Y010149D02*
X014301Y010149D01*
X014203Y010247D02*
X011081Y010247D01*
X011026Y010346D02*
X014104Y010346D01*
X014006Y010444D02*
X010877Y010444D01*
X010696Y010444D02*
X006623Y010444D01*
X006623Y010346D02*
X010403Y010346D01*
X010305Y010247D02*
X006623Y010247D01*
X006623Y010149D02*
X010206Y010149D01*
X010187Y010050D02*
X006623Y010050D01*
X006623Y009952D02*
X010187Y009952D01*
X010187Y009853D02*
X006623Y009853D01*
X006623Y009755D02*
X010187Y009755D01*
X010187Y009656D02*
X006623Y009656D01*
X006623Y009558D02*
X010187Y009558D01*
X010187Y009459D02*
X006623Y009459D01*
X006623Y009361D02*
X010187Y009361D01*
X010187Y009262D02*
X006623Y009262D01*
X006623Y009164D02*
X010187Y009164D01*
X010123Y009065D02*
X006623Y009065D01*
X006623Y008967D02*
X009166Y008967D01*
X009067Y008868D02*
X006623Y008868D01*
X006623Y008770D02*
X008987Y008770D01*
X008987Y008671D02*
X006623Y008671D01*
X006623Y008573D02*
X008987Y008573D01*
X008987Y008474D02*
X006623Y008474D01*
X006623Y008376D02*
X008933Y008376D01*
X009187Y008346D02*
X008887Y008046D01*
X008606Y008179D02*
X006623Y008179D01*
X006623Y008277D02*
X008679Y008277D01*
X008577Y008080D02*
X006623Y008080D01*
X006623Y007982D02*
X008578Y007982D01*
X008619Y007883D02*
X006623Y007883D01*
X006623Y007785D02*
X008710Y007785D01*
X009064Y007785D02*
X016665Y007785D01*
X016687Y007686D02*
X006623Y007686D01*
X006623Y007588D02*
X016687Y007588D01*
X016687Y007489D02*
X006623Y007489D01*
X006623Y007391D02*
X016687Y007391D01*
X016687Y007292D02*
X006623Y007292D01*
X006623Y007194D02*
X016687Y007194D01*
X016687Y007095D02*
X006623Y007095D01*
X006623Y006997D02*
X011684Y006997D01*
X011667Y006898D02*
X006623Y006898D01*
X006623Y006800D02*
X011667Y006800D01*
X011667Y006701D02*
X006623Y006701D01*
X006623Y006603D02*
X011667Y006603D01*
X011667Y006504D02*
X006623Y006504D01*
X006623Y006406D02*
X011667Y006406D01*
X011667Y006307D02*
X006623Y006307D01*
X006623Y006209D02*
X011667Y006209D01*
X011667Y006110D02*
X006623Y006110D01*
X009187Y008346D02*
X009187Y008705D01*
X009328Y008846D01*
X010187Y008846D01*
X010387Y009046D01*
X010387Y010046D01*
X010487Y010146D01*
X010787Y010146D01*
X010684Y009853D02*
X010587Y009853D01*
X012627Y011823D02*
X006623Y011823D01*
X006623Y011725D02*
X012725Y011725D01*
X012824Y011626D02*
X006623Y011626D01*
X006623Y011528D02*
X012922Y011528D01*
X013021Y011429D02*
X006623Y011429D01*
X006623Y011331D02*
X013119Y011331D01*
X013218Y011232D02*
X006623Y011232D01*
X006623Y011134D02*
X013316Y011134D01*
X013415Y011035D02*
X006623Y011035D01*
X006623Y010937D02*
X013513Y010937D01*
X013612Y010838D02*
X006623Y010838D01*
X006623Y010740D02*
X013710Y010740D01*
X013809Y010641D02*
X006623Y010641D01*
X006623Y010543D02*
X013907Y010543D01*
X014598Y011232D02*
X015990Y011232D01*
X015891Y011134D02*
X014696Y011134D01*
X014795Y011035D02*
X015675Y011035D01*
X015539Y010937D02*
X014893Y010937D01*
X014992Y010838D02*
X015489Y010838D01*
X015477Y010740D02*
X015090Y010740D01*
X015189Y010641D02*
X015495Y010641D01*
X015552Y010543D02*
X015287Y010543D01*
X015386Y010444D02*
X015696Y010444D01*
X015548Y010346D02*
X015484Y010346D01*
X015787Y010146D02*
X016087Y010446D01*
X016087Y010746D01*
X017087Y011746D01*
X020118Y011746D01*
X020287Y011915D01*
X020635Y011528D02*
X020880Y011528D01*
X020880Y011626D02*
X020730Y011626D01*
X020771Y011725D02*
X020880Y011725D01*
X020880Y011823D02*
X020807Y011823D01*
X020807Y011922D02*
X020880Y011922D01*
X020880Y012020D02*
X020806Y012020D01*
X020765Y012119D02*
X020880Y012119D01*
X020880Y012217D02*
X020720Y012217D01*
X020621Y012316D02*
X020880Y012316D01*
X020880Y012414D02*
X020440Y012414D01*
X020620Y012513D02*
X020880Y012513D01*
X020880Y012611D02*
X020719Y012611D01*
X020765Y012710D02*
X020880Y012710D01*
X020880Y012808D02*
X020806Y012808D01*
X020807Y012907D02*
X020880Y012907D01*
X020880Y013005D02*
X020807Y013005D01*
X020771Y013104D02*
X020880Y013104D01*
X020880Y013202D02*
X020731Y013202D01*
X020636Y013301D02*
X020880Y013301D01*
X020880Y013399D02*
X020476Y013399D01*
X020605Y013498D02*
X020880Y013498D01*
X020880Y013596D02*
X020704Y013596D01*
X020759Y013695D02*
X020880Y013695D01*
X020880Y013793D02*
X020799Y013793D01*
X020807Y013892D02*
X020880Y013892D01*
X020880Y013990D02*
X020807Y013990D01*
X020778Y014089D02*
X020880Y014089D01*
X020880Y014187D02*
X020737Y014187D01*
X020651Y014286D02*
X020880Y014286D01*
X020880Y014384D02*
X020512Y014384D01*
X020880Y014483D02*
X017197Y014483D01*
X017197Y014581D02*
X020880Y014581D01*
X020880Y014680D02*
X017354Y014680D01*
X017453Y014778D02*
X020880Y014778D01*
X020880Y014877D02*
X017494Y014877D01*
X017497Y014975D02*
X020880Y014975D01*
X020880Y015074D02*
X017470Y015074D01*
X017399Y015172D02*
X020880Y015172D01*
X020880Y015271D02*
X016087Y015271D01*
X016087Y015369D02*
X020880Y015369D01*
X020062Y014384D02*
X017197Y014384D01*
X017123Y014286D02*
X019922Y014286D01*
X019837Y014187D02*
X017025Y014187D01*
X016926Y014089D02*
X019796Y014089D01*
X019767Y013990D02*
X016828Y013990D01*
X016797Y013892D02*
X019767Y013892D01*
X019774Y013793D02*
X016797Y013793D01*
X016797Y013695D02*
X019815Y013695D01*
X019870Y013596D02*
X016797Y013596D01*
X016797Y013498D02*
X019968Y013498D01*
X020098Y013399D02*
X016797Y013399D01*
X016738Y013301D02*
X019937Y013301D01*
X019843Y013202D02*
X016640Y013202D01*
X016541Y013104D02*
X019802Y013104D01*
X019767Y013005D02*
X016443Y013005D01*
X016344Y012907D02*
X019767Y012907D01*
X019768Y012808D02*
X016246Y012808D01*
X016147Y012710D02*
X019799Y012710D01*
X019700Y012611D02*
X016049Y012611D01*
X015950Y012513D02*
X019602Y012513D01*
X019587Y012414D02*
X015852Y012414D01*
X015753Y012316D02*
X019587Y012316D01*
X019575Y012217D02*
X015655Y012217D01*
X015556Y012119D02*
X019476Y012119D01*
X019555Y011915D02*
X016955Y011915D01*
X015787Y010746D01*
X016287Y010641D02*
X019837Y010641D01*
X019796Y010740D02*
X016363Y010740D01*
X016462Y010838D02*
X019767Y010838D01*
X019767Y010937D02*
X016560Y010937D01*
X016659Y011035D02*
X019774Y011035D01*
X019815Y011134D02*
X016757Y011134D01*
X016856Y011232D02*
X019869Y011232D01*
X019967Y011331D02*
X016954Y011331D01*
X017053Y011429D02*
X020100Y011429D01*
X019938Y011528D02*
X017151Y011528D01*
X016679Y011922D02*
X015359Y011922D01*
X015261Y011823D02*
X016581Y011823D01*
X016482Y011725D02*
X015162Y011725D01*
X015458Y012020D02*
X016778Y012020D01*
X016384Y011626D02*
X014605Y011626D01*
X014401Y011429D02*
X016187Y011429D01*
X016088Y011331D02*
X014499Y011331D01*
X014302Y011528D02*
X016285Y011528D01*
X016287Y010543D02*
X019923Y010543D01*
X020064Y010444D02*
X016287Y010444D01*
X016269Y010346D02*
X019995Y010346D01*
X019886Y010247D02*
X016624Y010247D01*
X016709Y010149D02*
X019822Y010149D01*
X019784Y010050D02*
X016747Y010050D01*
X016747Y009952D02*
X020237Y009952D01*
X020237Y009853D02*
X020337Y009853D01*
X020337Y009865D02*
X020337Y008965D01*
X020237Y008965D01*
X020237Y008865D01*
X019768Y008865D01*
X019780Y008793D01*
X019805Y008715D01*
X019842Y008642D01*
X019890Y008576D01*
X019948Y008518D01*
X020014Y008470D01*
X020087Y008433D01*
X020165Y008408D01*
X020237Y008396D01*
X020237Y008865D01*
X020337Y008865D01*
X020337Y008965D01*
X020805Y008965D01*
X020794Y009037D01*
X020769Y009114D01*
X020732Y009187D01*
X020683Y009254D01*
X020626Y009311D01*
X020559Y009360D01*
X020486Y009397D01*
X020431Y009415D01*
X020486Y009433D01*
X020559Y009470D01*
X020626Y009518D01*
X020683Y009576D01*
X020732Y009642D01*
X020769Y009715D01*
X020794Y009793D01*
X020805Y009865D01*
X020337Y009865D01*
X020337Y009952D02*
X020880Y009952D01*
X020880Y010050D02*
X020790Y010050D01*
X020751Y010149D02*
X020880Y010149D01*
X020880Y010247D02*
X020688Y010247D01*
X020578Y010346D02*
X020880Y010346D01*
X020880Y010444D02*
X020510Y010444D01*
X020650Y010543D02*
X020880Y010543D01*
X020880Y010641D02*
X020736Y010641D01*
X020777Y010740D02*
X020880Y010740D01*
X020880Y010838D02*
X020807Y010838D01*
X020807Y010937D02*
X020880Y010937D01*
X020880Y011035D02*
X020800Y011035D01*
X020759Y011134D02*
X020880Y011134D01*
X020880Y011232D02*
X020705Y011232D01*
X020606Y011331D02*
X020880Y011331D01*
X020880Y011429D02*
X020474Y011429D01*
X019787Y012146D02*
X019787Y012415D01*
X020287Y012915D01*
X019787Y012146D02*
X019555Y011915D01*
X019770Y009853D02*
X016713Y009853D01*
X016634Y009755D02*
X019792Y009755D01*
X019835Y009656D02*
X016394Y009656D01*
X016155Y009361D02*
X020017Y009361D01*
X020035Y009459D02*
X016057Y009459D01*
X015958Y009558D02*
X019908Y009558D01*
X019899Y009262D02*
X016254Y009262D01*
X016352Y009164D02*
X019830Y009164D01*
X019789Y009065D02*
X016451Y009065D01*
X016549Y008967D02*
X019769Y008967D01*
X019787Y008770D02*
X016746Y008770D01*
X016648Y008868D02*
X020237Y008868D01*
X020237Y008770D02*
X020337Y008770D01*
X020337Y008865D02*
X020337Y008396D01*
X020409Y008408D01*
X020486Y008433D01*
X020559Y008470D01*
X020626Y008518D01*
X020683Y008576D01*
X020732Y008642D01*
X020769Y008715D01*
X020794Y008793D01*
X020805Y008865D01*
X020337Y008865D01*
X020337Y008868D02*
X020880Y008868D01*
X020880Y008770D02*
X020786Y008770D01*
X020746Y008671D02*
X020880Y008671D01*
X020880Y008573D02*
X020680Y008573D01*
X020565Y008474D02*
X020880Y008474D01*
X020880Y008376D02*
X017140Y008376D01*
X017042Y008474D02*
X020008Y008474D01*
X019893Y008573D02*
X016943Y008573D01*
X016845Y008671D02*
X019827Y008671D01*
X020237Y008671D02*
X020337Y008671D01*
X020337Y008573D02*
X020237Y008573D01*
X020237Y008474D02*
X020337Y008474D01*
X020337Y008967D02*
X020237Y008967D01*
X020237Y009065D02*
X020337Y009065D01*
X020337Y009164D02*
X020237Y009164D01*
X020237Y009262D02*
X020337Y009262D01*
X020337Y009361D02*
X020237Y009361D01*
X020237Y009459D02*
X020337Y009459D01*
X020337Y009558D02*
X020237Y009558D01*
X020237Y009656D02*
X020337Y009656D01*
X020337Y009755D02*
X020237Y009755D01*
X020538Y009459D02*
X020880Y009459D01*
X020880Y009361D02*
X020557Y009361D01*
X020675Y009262D02*
X020880Y009262D01*
X020880Y009164D02*
X020744Y009164D01*
X020785Y009065D02*
X020880Y009065D01*
X020880Y008967D02*
X020805Y008967D01*
X020880Y009558D02*
X020665Y009558D01*
X020739Y009656D02*
X020880Y009656D01*
X020880Y009755D02*
X020782Y009755D01*
X020804Y009853D02*
X020880Y009853D01*
X020880Y008277D02*
X017239Y008277D01*
X017337Y008179D02*
X020880Y008179D01*
X020880Y008080D02*
X017436Y008080D01*
X017534Y007982D02*
X020880Y007982D01*
X020880Y007883D02*
X017633Y007883D01*
X017731Y007785D02*
X020880Y007785D01*
X020880Y007686D02*
X017830Y007686D01*
X017928Y007588D02*
X020880Y007588D01*
X020880Y007489D02*
X018027Y007489D01*
X018125Y007391D02*
X020880Y007391D01*
X020880Y007292D02*
X019676Y007292D01*
X019775Y007194D02*
X020880Y007194D01*
X020880Y007095D02*
X019873Y007095D01*
X019907Y006997D02*
X020880Y006997D01*
X020880Y006898D02*
X019907Y006898D01*
X019907Y006701D02*
X020880Y006701D01*
X020880Y006603D02*
X019879Y006603D01*
X019780Y006504D02*
X020880Y006504D01*
X020880Y006406D02*
X019682Y006406D01*
X019661Y006307D02*
X020880Y006307D01*
X020880Y006209D02*
X019760Y006209D01*
X019858Y006110D02*
X020880Y006110D01*
X020912Y006012D02*
X019907Y006012D01*
X019907Y005913D02*
X020936Y005913D01*
X020936Y005815D02*
X019907Y005815D01*
X019907Y005716D02*
X020936Y005716D01*
X020766Y005618D02*
X019894Y005618D01*
X019795Y005519D02*
X020579Y005519D01*
X020481Y005421D02*
X019697Y005421D01*
X019077Y005421D02*
X019044Y005421D01*
X018946Y005322D02*
X020397Y005322D01*
X020356Y005224D02*
X018847Y005224D01*
X018387Y005846D02*
X018287Y005846D01*
X017787Y006346D01*
X017087Y006346D01*
X016887Y006546D01*
X016887Y007846D01*
X012787Y011946D01*
X012787Y012246D01*
X012587Y012446D01*
X012487Y012446D01*
X012277Y012217D02*
X006623Y012217D01*
X006623Y012119D02*
X012587Y012119D01*
X012587Y012020D02*
X006623Y012020D01*
X006623Y011922D02*
X012587Y011922D01*
X012205Y012316D02*
X006623Y012316D01*
X006623Y012414D02*
X012177Y012414D01*
X012179Y012513D02*
X006623Y012513D01*
X006623Y012611D02*
X012220Y012611D01*
X012313Y012710D02*
X006623Y012710D01*
X006623Y012808D02*
X012568Y012808D01*
X013103Y013301D02*
X011697Y013301D01*
X011659Y013399D02*
X015327Y013399D01*
X015341Y013301D02*
X013471Y013301D01*
X013558Y013202D02*
X015392Y013202D01*
X015343Y013498D02*
X011574Y013498D01*
X011387Y013246D02*
X011587Y013046D01*
X013287Y013046D01*
X013187Y012046D02*
X018387Y006846D01*
X018676Y007292D02*
X019097Y007292D01*
X018999Y007194D02*
X018775Y007194D01*
X018873Y007095D02*
X018900Y007095D01*
X019337Y007095D02*
X019437Y007095D01*
X019437Y006997D02*
X019337Y006997D01*
X019337Y006898D02*
X019437Y006898D01*
X019437Y006800D02*
X020880Y006800D01*
X019437Y007194D02*
X019337Y007194D01*
X019337Y007292D02*
X019437Y007292D01*
X017924Y005125D02*
X015707Y005125D01*
X015707Y005224D02*
X017726Y005224D01*
X017628Y005322D02*
X015707Y005322D01*
X012062Y006209D02*
X011965Y006209D01*
X011965Y006307D02*
X012062Y006307D01*
X012062Y006406D02*
X011965Y006406D01*
X011965Y006504D02*
X012062Y006504D01*
X012062Y006603D02*
X011965Y006603D01*
X011965Y006701D02*
X012062Y006701D01*
X012062Y006800D02*
X011965Y006800D01*
X011965Y006898D02*
X012062Y006898D01*
X012062Y006997D02*
X011965Y006997D01*
X016097Y010149D02*
X016164Y010149D01*
X016171Y010247D02*
X016249Y010247D01*
X014958Y012414D02*
X014250Y012414D01*
X015398Y013596D02*
X006623Y013596D01*
X006623Y013498D02*
X011200Y013498D01*
X011115Y013399D02*
X006623Y013399D01*
X006623Y013301D02*
X011077Y013301D01*
X011077Y013202D02*
X006623Y013202D01*
X006623Y013104D02*
X011110Y013104D01*
X011189Y013005D02*
X006623Y013005D01*
X006623Y012907D02*
X011443Y012907D01*
X007841Y017142D02*
X006623Y017142D01*
X006623Y017044D02*
X007703Y017044D01*
X007630Y016945D02*
X006623Y016945D01*
X006623Y016847D02*
X007589Y016847D01*
X007579Y016748D02*
X006623Y016748D01*
X006623Y016650D02*
X007579Y016650D01*
X007619Y016551D02*
X006623Y016551D01*
X006623Y016453D02*
X007677Y016453D01*
X006623Y014778D02*
X015687Y014778D01*
X015687Y014680D02*
X006623Y014680D01*
X006623Y014581D02*
X015687Y014581D01*
X015687Y014483D02*
X006623Y014483D01*
X006623Y014384D02*
X015687Y014384D01*
X015687Y014286D02*
X006623Y014286D01*
X006623Y014187D02*
X015687Y014187D01*
X015687Y014089D02*
X006623Y014089D01*
X006623Y013990D02*
X015687Y013990D01*
X015687Y013892D02*
X006623Y013892D01*
X006623Y013793D02*
X015687Y013793D01*
X015547Y013695D02*
X006623Y013695D01*
X006623Y019802D02*
X020880Y019802D01*
X020880Y019900D02*
X006623Y019900D01*
X006623Y019999D02*
X020880Y019999D01*
X020880Y020097D02*
X006623Y020097D01*
X006623Y020196D02*
X020880Y020196D01*
X020880Y020294D02*
X006623Y020294D01*
X006623Y020393D02*
X020880Y020393D01*
X020880Y020491D02*
X006623Y020491D01*
X006623Y020590D02*
X020880Y020590D01*
X020880Y020688D02*
X006623Y020688D01*
X006623Y020787D02*
X020880Y020787D01*
X020880Y020885D02*
X006623Y020885D01*
X006623Y020984D02*
X020880Y020984D01*
X020880Y021082D02*
X006623Y021082D01*
X006587Y021181D02*
X020927Y021181D01*
X020936Y021279D02*
X006587Y021279D01*
X006587Y021378D02*
X012027Y021378D01*
X011757Y021476D02*
X006587Y021476D01*
X006773Y021575D02*
X011601Y021575D01*
X011614Y021559D02*
X011614Y021559D01*
X011518Y021673D02*
X006938Y021673D01*
X007037Y021772D02*
X011435Y021772D01*
X011387Y021870D02*
X007112Y021870D01*
X007153Y021969D02*
X011351Y021969D01*
X011316Y022067D02*
X007194Y022067D01*
X012354Y021378D02*
X020936Y021378D01*
X020936Y021476D02*
X012624Y021476D01*
X012768Y021559D02*
X012768Y021559D01*
X012781Y021575D02*
X020730Y021575D01*
X020564Y021673D02*
X012864Y021673D01*
X012946Y021772D02*
X020466Y021772D01*
X020391Y021870D02*
X012994Y021870D01*
X012968Y021798D02*
X012968Y021798D01*
X013030Y021969D02*
X020350Y021969D01*
X020309Y022067D02*
X013066Y022067D01*
X016087Y015172D02*
X016574Y015172D01*
X016504Y015074D02*
X016087Y015074D01*
X016087Y014975D02*
X016477Y014975D01*
X016480Y014877D02*
X016087Y014877D01*
X016087Y014778D02*
X016521Y014778D01*
X016577Y014680D02*
X016087Y014680D01*
X016087Y014581D02*
X016525Y014581D01*
X016426Y014483D02*
X016087Y014483D01*
X016087Y014384D02*
X016328Y014384D01*
X016229Y014286D02*
X016087Y014286D01*
X016087Y014187D02*
X016177Y014187D01*
X016177Y014089D02*
X016087Y014089D01*
X016087Y013990D02*
X016177Y013990D01*
X016177Y013892D02*
X016087Y013892D01*
X016087Y013793D02*
X016177Y013793D01*
X016177Y013695D02*
X016087Y013695D01*
X016087Y013596D02*
X016140Y013596D01*
X016041Y013498D02*
X016021Y013498D01*
X019990Y022166D02*
X020294Y022166D01*
D19*
X017187Y014946D02*
X016987Y014746D01*
X016987Y014446D01*
X016587Y014046D01*
X016587Y013446D01*
X014987Y011846D01*
X014387Y011846D01*
X014087Y012146D02*
X014987Y012146D01*
X016387Y013546D01*
X016387Y014146D01*
X016787Y014546D01*
X016787Y014946D01*
X013787Y011846D02*
X013787Y011746D01*
X015687Y009846D01*
X016287Y009846D01*
X016437Y009996D01*
M02*
