G75*
G70*
%OFA0B0*%
%FSLAX24Y24*%
%IPPOS*%
%LPD*%
%AMOC8*
5,1,8,0,0,1.08239X$1,22.5*
%
%ADD10R,0.0394X0.0098*%
%ADD11R,0.0394X0.0433*%
%ADD12R,0.0433X0.0394*%
%ADD13R,0.0276X0.0354*%
%ADD14R,0.0748X0.0433*%
%ADD15R,0.0157X0.0197*%
%ADD16R,0.0500X0.0220*%
%ADD17R,0.0220X0.0500*%
%ADD18OC8,0.0740*%
%ADD19C,0.0740*%
%ADD20R,0.0433X0.0748*%
%ADD21R,0.0327X0.0248*%
%ADD22R,0.0315X0.0984*%
%ADD23R,0.0394X0.0984*%
%ADD24R,0.0315X0.0709*%
%ADD25R,0.0217X0.0472*%
%ADD26R,0.1339X0.0591*%
%ADD27R,0.1378X0.0394*%
%ADD28R,0.0177X0.0394*%
%ADD29R,0.0394X0.1870*%
%ADD30R,0.0315X0.0315*%
%ADD31R,0.0098X0.0157*%
%ADD32R,0.0236X0.0354*%
%ADD33R,0.0472X0.0217*%
%ADD34R,0.0551X0.0138*%
%ADD35R,0.0748X0.0709*%
%ADD36C,0.0594*%
%ADD37C,0.0160*%
%ADD38C,0.0320*%
%ADD39C,0.0120*%
%ADD40C,0.0100*%
D10*
X008399Y007753D03*
X008399Y007949D03*
X008399Y008146D03*
X008399Y008343D03*
X008399Y008540D03*
X009974Y008540D03*
X009974Y008343D03*
X009974Y008146D03*
X009974Y007949D03*
X009974Y007753D03*
D11*
X010887Y007581D03*
X010887Y006912D03*
X010887Y008612D03*
X010887Y009281D03*
X011587Y009281D03*
X011587Y008612D03*
X012287Y008612D03*
X012287Y009281D03*
X012987Y009281D03*
X012987Y008612D03*
X015652Y008546D03*
X016321Y008546D03*
X016321Y009246D03*
X015652Y009246D03*
X018252Y013546D03*
X018921Y013546D03*
X017021Y021446D03*
X016352Y021446D03*
X011621Y015146D03*
X011621Y014446D03*
X010952Y014446D03*
X010952Y015146D03*
X009521Y013046D03*
X008852Y013046D03*
X008852Y012346D03*
X008852Y011646D03*
X009521Y011646D03*
X009521Y012346D03*
X008187Y011481D03*
X008187Y010812D03*
X007487Y010812D03*
X007487Y011481D03*
X007487Y010081D03*
X007487Y009412D03*
X007487Y008681D03*
X007487Y008012D03*
X007452Y007146D03*
X008121Y007146D03*
X008121Y006446D03*
X007452Y006446D03*
X010687Y018412D03*
X010687Y019081D03*
X010687Y019812D03*
X010687Y020481D03*
D12*
X011487Y019081D03*
X011487Y018412D03*
X012187Y018412D03*
X012187Y019081D03*
X017687Y021112D03*
X017687Y021781D03*
X018387Y021781D03*
X018387Y021112D03*
X018252Y014246D03*
X018921Y014246D03*
X018921Y012846D03*
X018921Y012146D03*
X018252Y012146D03*
X018252Y012846D03*
X018252Y011446D03*
X018252Y010746D03*
X017721Y009946D03*
X017052Y009946D03*
X017052Y009246D03*
X017052Y008546D03*
X017052Y007846D03*
X017721Y007846D03*
X017721Y008546D03*
X017721Y009246D03*
X018921Y010746D03*
X018921Y011446D03*
X016321Y007846D03*
X015652Y007846D03*
X014921Y007346D03*
X014252Y007346D03*
X012321Y007346D03*
X011652Y007346D03*
X009521Y010946D03*
X008852Y010946D03*
D13*
X013031Y007346D03*
X013543Y007346D03*
D14*
X009815Y009294D03*
X009815Y010199D03*
X008358Y010199D03*
X008358Y009294D03*
D15*
X008187Y012331D03*
X008187Y012961D03*
D16*
X011897Y012949D03*
X011897Y012634D03*
X011897Y012319D03*
X011897Y012004D03*
X011897Y011689D03*
X011897Y011374D03*
X011897Y011059D03*
X011897Y010744D03*
X015277Y010744D03*
X015277Y011059D03*
X015277Y011374D03*
X015277Y011689D03*
X015277Y012004D03*
X015277Y012319D03*
X015277Y012634D03*
X015277Y012949D03*
D17*
X014689Y013536D03*
X014374Y013536D03*
X014059Y013536D03*
X013744Y013536D03*
X013429Y013536D03*
X013114Y013536D03*
X012799Y013536D03*
X012484Y013536D03*
X012484Y010156D03*
X012799Y010156D03*
X013114Y010156D03*
X013429Y010156D03*
X013744Y010156D03*
X014059Y010156D03*
X014374Y010156D03*
X014689Y010156D03*
D18*
X017387Y006846D03*
X017387Y005846D03*
X018387Y005846D03*
X019387Y005846D03*
X019387Y006846D03*
X018387Y006846D03*
D19*
X020287Y008915D03*
X020287Y009915D03*
X020287Y010915D03*
X020287Y011915D03*
X020287Y012915D03*
X020287Y013915D03*
D20*
X017440Y012375D03*
X016534Y012375D03*
X016534Y010918D03*
X017440Y010918D03*
D21*
X007487Y012194D03*
X007487Y013099D03*
D22*
X013687Y021746D03*
D23*
X014218Y021746D03*
X013136Y021746D03*
D24*
X012988Y020266D03*
X013421Y020266D03*
X013855Y020266D03*
X014288Y020266D03*
X014721Y020266D03*
X015902Y020266D03*
X016335Y020266D03*
X016768Y020266D03*
X017201Y020266D03*
X017634Y020266D03*
X018067Y020266D03*
X018500Y020266D03*
X018500Y015542D03*
X018067Y015542D03*
X017634Y015542D03*
X017201Y015542D03*
X016768Y015542D03*
X016335Y015542D03*
X015902Y015542D03*
X014721Y015542D03*
X014288Y015542D03*
X013855Y015542D03*
X013421Y015542D03*
X012988Y015542D03*
D25*
X010480Y016203D03*
X010480Y017227D03*
X010106Y017227D03*
X009732Y017227D03*
X009732Y016203D03*
D26*
X007324Y018082D03*
X007324Y020523D03*
D27*
X009489Y019697D03*
X009489Y018909D03*
D28*
X011403Y017722D03*
X011659Y017722D03*
X011915Y017722D03*
X012171Y017722D03*
X012171Y016108D03*
X011915Y016108D03*
X011659Y016108D03*
X011403Y016108D03*
X011071Y013253D03*
X010815Y013253D03*
X010559Y013253D03*
X010303Y013253D03*
X010303Y011639D03*
X010559Y011639D03*
X010815Y011639D03*
X011071Y011639D03*
D29*
X012014Y005991D03*
X013687Y005991D03*
X015360Y005991D03*
D30*
X010282Y014446D03*
X010282Y015146D03*
X009692Y015146D03*
X009692Y014446D03*
D31*
X014390Y009410D03*
X014587Y009406D03*
X014784Y009406D03*
X014784Y008886D03*
X014587Y008886D03*
X014390Y008886D03*
D32*
X019213Y020594D03*
X019587Y020594D03*
X019961Y020594D03*
X019961Y021499D03*
X019587Y021499D03*
X019213Y021499D03*
D33*
X017499Y014120D03*
X017499Y013746D03*
X017499Y013372D03*
X016475Y013372D03*
X016475Y014120D03*
D34*
X019444Y016834D03*
X019444Y017090D03*
X019444Y017346D03*
X019444Y017602D03*
X019444Y017858D03*
D35*
X020487Y018921D03*
X020487Y015771D03*
D36*
X008026Y015357D03*
X008026Y016735D03*
D37*
X008037Y016746D01*
X008487Y016746D01*
X008487Y019546D01*
X008637Y019697D01*
X009489Y019697D01*
X009489Y018909D02*
X010515Y018909D01*
X010687Y019081D01*
X011087Y018846D02*
X011287Y019046D01*
X011487Y019081D02*
X011487Y019546D01*
X011221Y019812D01*
X010687Y019812D01*
X010721Y020446D02*
X010687Y020481D01*
X010721Y020446D02*
X011187Y020446D01*
X011487Y019081D02*
X012187Y019081D01*
X012988Y020266D02*
X012988Y021392D01*
X013687Y021114D02*
X013685Y021079D01*
X013681Y021043D01*
X013673Y021009D01*
X013663Y020975D01*
X013649Y020942D01*
X013633Y020911D01*
X013614Y020881D01*
X013592Y020853D01*
X013568Y020827D01*
X013687Y021114D02*
X013687Y021746D01*
X013134Y021746D02*
X013105Y021713D01*
X013078Y021679D01*
X013055Y021642D01*
X013035Y021603D01*
X013018Y021563D01*
X013005Y021521D01*
X012996Y021479D01*
X012990Y021436D01*
X012988Y021392D01*
X013135Y021745D02*
X013136Y021746D01*
X014187Y021153D02*
X014185Y021109D01*
X014179Y021066D01*
X014170Y021024D01*
X014157Y020982D01*
X014140Y020942D01*
X014120Y020903D01*
X014097Y020866D01*
X014070Y020832D01*
X014041Y020799D01*
X014040Y020800D02*
X014001Y020760D01*
X013567Y020828D02*
X013538Y020795D01*
X013511Y020761D01*
X013488Y020724D01*
X013468Y020685D01*
X013451Y020645D01*
X013438Y020603D01*
X013429Y020561D01*
X013423Y020518D01*
X013421Y020474D01*
X013421Y020266D01*
X013855Y020266D02*
X013855Y020407D01*
X014288Y020266D02*
X014721Y020266D01*
X014001Y020761D02*
X013972Y020728D01*
X013945Y020694D01*
X013922Y020657D01*
X013902Y020618D01*
X013885Y020578D01*
X013872Y020536D01*
X013863Y020494D01*
X013857Y020451D01*
X013855Y020407D01*
X014187Y021153D02*
X014187Y021715D01*
X014218Y021746D01*
X011087Y018846D02*
X011087Y018146D01*
X011403Y017830D01*
X011403Y017722D02*
X011403Y017126D01*
X011005Y016728D01*
X011005Y015728D01*
X011087Y015646D01*
X011787Y015646D01*
X012087Y015346D01*
X012087Y014996D01*
X012487Y014596D01*
X018067Y014596D01*
X018067Y015542D01*
X018067Y014596D02*
X018067Y014431D01*
X018252Y014246D01*
X017499Y014120D02*
X017061Y014120D01*
X016787Y013846D01*
X015487Y013846D01*
X015177Y013536D01*
X014689Y013536D01*
X014587Y012846D02*
X014137Y012846D01*
X013287Y011996D01*
X011904Y011996D01*
X011897Y012004D01*
X011889Y011996D01*
X011587Y011996D01*
X011487Y012096D01*
X011387Y011996D01*
X011387Y010646D01*
X011187Y010446D01*
X010387Y010446D01*
X010387Y011046D01*
X009621Y011046D01*
X010387Y011046D02*
X010559Y011218D01*
X010559Y011639D01*
X010815Y011639D02*
X010815Y011218D01*
X010987Y011046D01*
X010387Y010446D02*
X010387Y009246D01*
X010852Y009246D01*
X010887Y009281D01*
X011587Y009281D01*
X012287Y009281D01*
X012987Y009281D01*
X012987Y008612D02*
X012987Y008146D01*
X012287Y008146D02*
X012287Y008612D01*
X011587Y008612D02*
X011587Y008146D01*
X010886Y007581D02*
X010888Y007553D01*
X010893Y007525D01*
X010901Y007498D01*
X010913Y007472D01*
X010928Y007448D01*
X010945Y007425D01*
X010965Y007405D01*
X010988Y007388D01*
X011012Y007373D01*
X011038Y007361D01*
X011065Y007353D01*
X011093Y007348D01*
X011121Y007346D01*
X011652Y007346D01*
X012321Y007346D02*
X013031Y007346D01*
X013584Y007304D02*
X013602Y007285D01*
X013616Y007263D01*
X013628Y007240D01*
X013636Y007215D01*
X013641Y007189D01*
X013643Y007163D01*
X013643Y006035D01*
X013687Y005991D01*
X013584Y007305D02*
X013543Y007346D01*
X014252Y007346D01*
X014887Y007381D02*
X014921Y007346D01*
X014887Y007381D02*
X014887Y007846D01*
X016321Y007846D02*
X017052Y007846D01*
X017052Y007181D01*
X017387Y006846D01*
X017721Y007846D02*
X017721Y008546D01*
X017721Y009246D01*
X017052Y009246D02*
X017052Y008546D01*
X017052Y007846D01*
X016321Y007846D02*
X016321Y008546D01*
X016321Y009246D01*
X016287Y009281D02*
X016287Y009646D01*
X016237Y009696D01*
X016087Y009846D01*
X016087Y011246D01*
X015637Y011696D01*
X015284Y011696D01*
X015687Y011746D02*
X015687Y012246D01*
X015614Y012319D01*
X015277Y012319D01*
X015249Y012346D02*
X014887Y012346D01*
X014787Y012446D01*
X014787Y012646D01*
X014587Y012846D01*
X015277Y012949D02*
X015960Y012949D01*
X016534Y012375D01*
X017462Y011446D01*
X018252Y011446D01*
X018252Y010746D02*
X017611Y010746D01*
X017440Y010918D01*
X017440Y011094D01*
X016987Y011546D01*
X016287Y011546D01*
X016087Y011746D01*
X016087Y012346D01*
X015787Y012646D01*
X015289Y012646D01*
X015277Y012634D01*
X015661Y013372D02*
X015637Y013396D01*
X015661Y013372D02*
X016475Y013372D01*
X016901Y012946D01*
X018152Y012946D01*
X018252Y012846D01*
X013421Y015542D02*
X013421Y016381D01*
X013487Y016446D01*
X012987Y016446D02*
X012987Y015543D01*
X012988Y015542D01*
X012687Y013946D02*
X012787Y013846D01*
X012787Y013446D01*
X012687Y013946D02*
X010787Y013946D01*
X010559Y013718D01*
X010559Y013253D01*
X010815Y013253D02*
X010815Y013574D01*
X010887Y013646D01*
X011787Y013646D01*
X011887Y013546D01*
X011887Y012959D01*
X011897Y012949D01*
X011897Y012634D02*
X011574Y012634D01*
X011487Y012546D01*
X009987Y012546D01*
X009521Y013046D02*
X009487Y013046D01*
X011071Y013253D02*
X011078Y013246D01*
X011487Y012546D02*
X011487Y012096D01*
X010387Y009246D02*
X010387Y008746D01*
X010887Y008446D02*
X010887Y008343D01*
X010887Y007581D01*
X011387Y006246D02*
X011642Y005991D01*
X012014Y005991D01*
X015360Y005991D02*
X015732Y005991D01*
X015987Y006246D01*
X010480Y016203D02*
X011005Y016728D01*
X010487Y017234D02*
X010480Y017227D01*
X010487Y017234D02*
X010487Y017546D01*
X010387Y017646D01*
X010687Y017946D01*
X010687Y018412D01*
X009887Y018346D02*
X009387Y018346D01*
X008887Y018346D01*
X009387Y018346D02*
X009387Y018807D01*
X009489Y018909D01*
X009887Y017646D02*
X009732Y017491D01*
X009732Y017227D01*
X009240Y016735D01*
X008026Y016735D01*
X009887Y017646D02*
X010387Y017646D01*
D38*
X009887Y018346D03*
X009387Y018346D03*
X008887Y018346D03*
X011187Y020446D03*
X011987Y020646D03*
X011987Y020146D03*
X012487Y020646D03*
X012487Y021146D03*
X011987Y021146D03*
X012987Y019246D03*
X012987Y018546D03*
X012987Y017846D03*
X012987Y017146D03*
X012987Y016446D03*
X013687Y016446D03*
X014387Y016446D03*
X015087Y016446D03*
X015087Y017146D03*
X014387Y017146D03*
X014387Y017846D03*
X015087Y017846D03*
X015087Y018546D03*
X014387Y018546D03*
X013687Y018546D03*
X013687Y017846D03*
X013687Y017146D03*
X011987Y016746D03*
X013687Y019246D03*
X014387Y019246D03*
X015087Y019246D03*
X015387Y020146D03*
X015387Y020646D03*
X015387Y021146D03*
X014887Y021146D03*
X014887Y021646D03*
X015887Y019346D03*
X016487Y019346D03*
X016487Y018646D03*
X016487Y017946D03*
X016487Y017246D03*
X016487Y016546D03*
X017187Y016546D03*
X017187Y017246D03*
X017187Y017946D03*
X017887Y017946D03*
X017887Y017246D03*
X017887Y016546D03*
X018587Y016546D03*
X018587Y017246D03*
X018587Y017946D03*
X018587Y018646D03*
X017887Y018646D03*
X017887Y019346D03*
X017187Y019346D03*
X017187Y018646D03*
X019387Y018196D03*
X017187Y014946D03*
X016787Y014946D03*
X016987Y013546D03*
X015637Y013396D03*
X014387Y012546D03*
X014087Y012146D03*
X013787Y011846D03*
X013287Y012646D03*
X013287Y013046D03*
X012837Y012646D03*
X012487Y012446D03*
X012487Y011546D03*
X013487Y010746D03*
X014387Y011846D03*
X015787Y010746D03*
X015787Y010146D03*
X016437Y009996D03*
X015137Y008646D03*
X014887Y007846D03*
X015687Y007346D03*
X015987Y006746D03*
X015987Y006246D03*
X015987Y005746D03*
X015987Y005246D03*
X012987Y008146D03*
X012287Y008146D03*
X011587Y008146D03*
X011387Y006746D03*
X011387Y006246D03*
X011387Y005746D03*
X011387Y005246D03*
X009487Y008246D03*
X008887Y008046D03*
X007887Y007646D03*
X006987Y007146D03*
X008887Y009746D03*
X010787Y010146D03*
X010987Y011046D03*
X011387Y013246D03*
X013987Y008946D03*
X018937Y014796D03*
X019387Y012846D03*
X019387Y012346D03*
X019387Y011446D03*
X019387Y010746D03*
X019587Y021946D03*
X016987Y021946D03*
D39*
X016987Y021481D01*
X017021Y021446D01*
X016487Y021046D02*
X017621Y021046D01*
X017687Y021112D01*
X017787Y021446D02*
X017687Y021546D01*
X017687Y021781D01*
X017787Y021446D02*
X018687Y021446D01*
X018387Y021112D02*
X018021Y020746D01*
X016887Y020746D01*
X016768Y020627D01*
X016768Y020266D01*
X016335Y020266D02*
X016335Y020894D01*
X016487Y021046D01*
X016352Y021446D02*
X015902Y020996D01*
X015902Y020266D01*
X014687Y019446D02*
X014087Y019446D01*
X013887Y019646D01*
X013887Y020246D01*
X013874Y020246D01*
X013855Y020266D01*
X012988Y020248D02*
X012988Y020266D01*
X012988Y020248D02*
X012987Y020246D01*
X012987Y020146D01*
X011987Y020146D01*
X012187Y018412D02*
X012187Y017738D01*
X012187Y017346D01*
X012587Y016946D01*
X012587Y015146D01*
X012687Y015046D01*
X015787Y015046D01*
X015887Y015146D01*
X015887Y015527D01*
X015902Y015542D01*
X016335Y015542D02*
X016335Y014994D01*
X016187Y014846D01*
X012587Y014846D01*
X012387Y015046D01*
X012387Y016846D01*
X011915Y017318D01*
X011915Y017722D01*
X011887Y017750D01*
X011887Y018046D01*
X011521Y018412D01*
X011487Y018412D01*
X011659Y017722D02*
X011659Y016746D01*
X011987Y016746D01*
X011659Y016746D02*
X011659Y016108D01*
X011403Y016108D01*
X011659Y016108D02*
X011915Y016108D01*
X012171Y016108D01*
X012171Y017722D02*
X012187Y017738D01*
X010480Y016203D02*
X010480Y015839D01*
X009987Y015346D01*
X009987Y013946D01*
X010287Y013646D01*
X010287Y013269D01*
X010303Y013253D01*
X009837Y012696D02*
X009237Y012696D01*
X008887Y013046D01*
X008852Y013046D01*
X008452Y013446D01*
X007187Y013446D01*
X006987Y013246D01*
X006987Y008846D01*
X007152Y008681D01*
X007487Y008681D01*
X007837Y008896D02*
X007837Y008296D01*
X007987Y008146D01*
X008399Y008146D01*
X008399Y008343D02*
X008140Y008343D01*
X008037Y008446D01*
X008037Y008746D01*
X008137Y008846D01*
X008987Y008846D01*
X009187Y009046D01*
X009187Y009571D01*
X009815Y010199D01*
X009334Y010199D01*
X008937Y010596D01*
X008402Y010596D01*
X008187Y010812D01*
X007487Y010812D01*
X007487Y011481D02*
X007487Y012194D01*
X007487Y012446D01*
X007687Y012646D01*
X008552Y012646D01*
X008852Y012346D01*
X008852Y011646D02*
X008352Y011646D01*
X008187Y011481D01*
X008187Y012331D01*
X008187Y012961D02*
X008049Y013099D01*
X007487Y013099D01*
X008026Y015357D02*
X009598Y015357D01*
X009692Y015451D01*
X009692Y015146D01*
X009692Y014446D01*
X009692Y015451D02*
X010106Y015865D01*
X010106Y017227D01*
X010087Y017208D01*
X009837Y012696D02*
X009987Y012546D01*
X009521Y012346D02*
X010687Y012346D01*
X011087Y011946D01*
X011087Y011655D01*
X011071Y011639D01*
X010303Y011639D02*
X010296Y011646D01*
X009521Y011646D01*
X008887Y009746D02*
X007821Y009746D01*
X007487Y010081D01*
X007487Y009412D02*
X007605Y009294D01*
X008358Y009294D01*
X008234Y009294D01*
X007837Y008896D01*
X007987Y009294D02*
X008358Y009294D01*
X008399Y008540D02*
X009974Y008540D01*
X009974Y008343D02*
X010887Y008343D01*
X009971Y007946D02*
X009287Y007946D01*
X009137Y007796D01*
X008487Y007146D01*
X008121Y007146D01*
X007452Y007146D02*
X006987Y007146D01*
X008121Y006446D02*
X009428Y007753D01*
X009974Y007753D01*
X013137Y009846D02*
X013137Y010134D01*
X013114Y010156D01*
X013137Y009846D02*
X013237Y009746D01*
X013887Y009746D01*
X014223Y009410D01*
X014390Y009410D01*
X014330Y008946D02*
X013987Y008946D01*
X014330Y008946D02*
X014390Y008886D01*
X014390Y008443D01*
X014587Y008246D01*
X015352Y008246D01*
X015652Y008546D01*
X015137Y008646D02*
X015037Y008546D01*
X014687Y008546D01*
X014587Y008646D01*
X014587Y008886D01*
X013744Y010156D02*
X013744Y010304D01*
X013787Y010346D01*
X013787Y011846D01*
X014387Y012546D02*
X014887Y012046D01*
X015287Y012046D01*
X015287Y012014D01*
X015277Y012004D01*
X014887Y012046D02*
X014787Y011946D01*
X014787Y011446D01*
X014887Y011346D01*
X015249Y011346D01*
X015277Y011374D01*
X016437Y009996D02*
X017002Y009996D01*
X017052Y009946D01*
X017087Y009946D01*
X017721Y009246D02*
X017721Y007712D01*
X017987Y007446D01*
X018887Y007446D01*
X019387Y006946D01*
X019387Y006846D01*
X019887Y006346D02*
X019387Y005846D01*
X019887Y006346D02*
X019887Y007346D01*
X019687Y007546D01*
X019687Y009196D01*
X019287Y009596D01*
X019487Y011096D02*
X019787Y011396D01*
X019787Y013415D01*
X020287Y013915D01*
X019387Y013346D02*
X019387Y016778D01*
X019444Y016834D01*
X018487Y016346D02*
X018487Y015542D01*
X018500Y015542D01*
X017634Y015542D02*
X017587Y015589D01*
X017678Y014120D02*
X017499Y014120D01*
X017678Y014120D02*
X018252Y013546D01*
X018487Y013196D02*
X019237Y013196D01*
X019387Y013346D01*
X018921Y013546D02*
X018252Y014216D01*
X018252Y014246D01*
X017499Y013746D02*
X017187Y013746D01*
X016987Y013546D01*
X017499Y013372D02*
X017675Y013196D01*
X018487Y013196D01*
X018921Y012928D02*
X018921Y012846D01*
X018887Y012846D01*
X016287Y009281D02*
X016321Y009246D01*
X015652Y007846D02*
X015687Y007812D01*
X015687Y007346D01*
X013429Y010156D02*
X013429Y010689D01*
X013487Y010746D01*
X012487Y011546D02*
X012344Y011689D01*
X011897Y011689D01*
D40*
X006468Y005953D02*
X006468Y005668D01*
X006615Y005668D01*
X006887Y005555D01*
X007096Y005347D01*
X007208Y005075D01*
X007208Y004927D01*
X007494Y004927D01*
X007494Y004930D01*
X007494Y004992D01*
X007495Y004993D01*
X007495Y004995D01*
X007540Y005038D01*
X007585Y005082D01*
X007587Y005082D01*
X007588Y005084D01*
X007651Y005082D01*
X011587Y005082D01*
X011587Y006999D01*
X011587Y006999D01*
X011587Y006463D01*
X011470Y006346D01*
X010304Y006346D01*
X010187Y006463D01*
X010187Y007553D01*
X010072Y007553D01*
X010061Y007543D01*
X009515Y007543D01*
X008468Y006496D01*
X008468Y006168D01*
X008380Y006080D01*
X007862Y006080D01*
X007782Y006160D01*
X007769Y006138D01*
X007741Y006110D01*
X007707Y006090D01*
X007669Y006080D01*
X007501Y006080D01*
X007501Y006398D01*
X007404Y006398D01*
X007404Y006080D01*
X007236Y006080D01*
X007197Y006090D01*
X007163Y006110D01*
X007135Y006138D01*
X007116Y006172D01*
X007105Y006210D01*
X007105Y006398D01*
X007404Y006398D01*
X007404Y006495D01*
X007404Y007098D01*
X007501Y007098D01*
X007501Y006780D01*
X007501Y006495D01*
X007404Y006495D01*
X007105Y006495D01*
X007105Y006683D01*
X007116Y006721D01*
X007135Y006755D01*
X007163Y006783D01*
X007186Y006796D01*
X007163Y006810D01*
X007135Y006838D01*
X007116Y006872D01*
X007105Y006910D01*
X007105Y007098D01*
X007404Y007098D01*
X007404Y007195D01*
X007404Y007513D01*
X007236Y007513D01*
X007197Y007503D01*
X007163Y007483D01*
X007135Y007455D01*
X007116Y007421D01*
X007105Y007383D01*
X007105Y007195D01*
X007404Y007195D01*
X007501Y007195D01*
X007501Y007513D01*
X007669Y007513D01*
X007707Y007503D01*
X007741Y007483D01*
X007769Y007455D01*
X007782Y007432D01*
X007862Y007513D01*
X008380Y007513D01*
X008468Y007425D01*
X008468Y007425D01*
X008597Y007553D01*
X008140Y007553D01*
X008053Y007641D01*
X008053Y007864D01*
X008056Y007867D01*
X008053Y007880D01*
X008053Y007936D01*
X007900Y007936D01*
X007777Y008059D01*
X007776Y008060D01*
X007535Y008060D01*
X007535Y007963D01*
X007535Y007645D01*
X007703Y007645D01*
X007742Y007655D01*
X007776Y007675D01*
X007804Y007703D01*
X007823Y007737D01*
X007834Y007775D01*
X007834Y007963D01*
X007535Y007963D01*
X007438Y007963D01*
X007140Y007963D01*
X007140Y007775D01*
X007150Y007737D01*
X007170Y007703D01*
X007198Y007675D01*
X007232Y007655D01*
X007270Y007645D01*
X007438Y007645D01*
X007438Y007963D01*
X007438Y008060D01*
X007140Y008060D01*
X007140Y008248D01*
X007150Y008286D01*
X007170Y008320D01*
X007196Y008346D01*
X007140Y008402D01*
X007140Y008471D01*
X007065Y008471D01*
X006900Y008636D01*
X006777Y008759D01*
X006777Y013333D01*
X006977Y013533D01*
X007100Y013656D01*
X008539Y013656D01*
X008777Y013419D01*
X008887Y013529D01*
X009004Y013646D01*
X009990Y013646D01*
X009777Y013859D01*
X009777Y014139D01*
X009720Y014139D01*
X009720Y014418D01*
X009663Y014418D01*
X009384Y014418D01*
X009384Y014269D01*
X009394Y014231D01*
X009414Y014197D01*
X009442Y014169D01*
X009476Y014149D01*
X009514Y014139D01*
X009663Y014139D01*
X009663Y014418D01*
X009663Y014475D01*
X009663Y014754D01*
X009514Y014754D01*
X009476Y014744D01*
X009442Y014724D01*
X009414Y014696D01*
X009394Y014662D01*
X009384Y014623D01*
X009384Y014475D01*
X009663Y014475D01*
X009720Y014475D01*
X009720Y014754D01*
X009777Y014754D01*
X009777Y014839D01*
X009720Y014839D01*
X009720Y015118D01*
X009663Y015118D01*
X009384Y015118D01*
X009384Y014969D01*
X009394Y014931D01*
X009414Y014897D01*
X009442Y014869D01*
X009476Y014849D01*
X009514Y014839D01*
X009663Y014839D01*
X009663Y015118D01*
X009663Y015175D01*
X009663Y015454D01*
X009514Y015454D01*
X009476Y015444D01*
X009442Y015424D01*
X009414Y015396D01*
X009394Y015362D01*
X009384Y015323D01*
X009384Y015175D01*
X009663Y015175D01*
X009720Y015175D01*
X009720Y015454D01*
X009797Y015454D01*
X009900Y015556D01*
X010235Y015891D01*
X010221Y015905D01*
X010221Y016501D01*
X010309Y016589D01*
X010541Y016589D01*
X010775Y016823D01*
X011173Y017221D01*
X011173Y017454D01*
X011164Y017463D01*
X011164Y017743D01*
X010992Y017916D01*
X010917Y017991D01*
X010917Y017851D01*
X010712Y017646D01*
X010717Y017642D01*
X010717Y017546D01*
X010738Y017525D01*
X010738Y016928D01*
X010650Y016840D01*
X010309Y016840D01*
X010289Y016861D01*
X010272Y016851D01*
X010234Y016840D01*
X010110Y016840D01*
X010110Y017222D01*
X010102Y017222D01*
X010102Y016840D01*
X009978Y016840D01*
X009940Y016851D01*
X009922Y016861D01*
X009902Y016840D01*
X009671Y016840D01*
X009336Y016505D01*
X008415Y016505D01*
X008405Y016482D01*
X008279Y016356D01*
X008115Y016288D01*
X007937Y016288D01*
X007773Y016356D01*
X007647Y016482D01*
X007579Y016646D01*
X007579Y016824D01*
X007647Y016988D01*
X007773Y017114D01*
X007937Y017182D01*
X008115Y017182D01*
X008257Y017123D01*
X008257Y019642D01*
X008392Y019776D01*
X008542Y019927D01*
X008650Y019927D01*
X008650Y019956D01*
X008738Y020044D01*
X010240Y020044D01*
X010328Y019956D01*
X010328Y019438D01*
X010240Y019350D01*
X008738Y019350D01*
X008717Y019371D01*
X008717Y019231D01*
X008742Y019246D01*
X008780Y019256D01*
X009441Y019256D01*
X009441Y018958D01*
X009538Y018958D01*
X010328Y018958D01*
X010328Y019126D01*
X010318Y019164D01*
X010298Y019198D01*
X010270Y019226D01*
X010236Y019246D01*
X010198Y019256D01*
X009538Y019256D01*
X009538Y018958D01*
X009538Y018861D01*
X010328Y018861D01*
X010328Y018693D01*
X010318Y018655D01*
X010298Y018620D01*
X010270Y018592D01*
X010236Y018573D01*
X010198Y018562D01*
X009538Y018562D01*
X009538Y018861D01*
X009441Y018861D01*
X009441Y018562D01*
X008780Y018562D01*
X008742Y018573D01*
X008717Y018587D01*
X008717Y016965D01*
X009145Y016965D01*
X009473Y017294D01*
X009473Y017525D01*
X009502Y017553D01*
X009502Y017586D01*
X009657Y017742D01*
X009792Y017876D01*
X010292Y017876D01*
X010457Y018042D01*
X010457Y018045D01*
X010428Y018045D01*
X010340Y018133D01*
X010340Y018690D01*
X010396Y018746D01*
X010370Y018772D01*
X010350Y018806D01*
X010340Y018845D01*
X010340Y019032D01*
X010638Y019032D01*
X010638Y019129D01*
X010340Y019129D01*
X010340Y019317D01*
X010350Y019355D01*
X010370Y019390D01*
X010398Y019417D01*
X010432Y019437D01*
X010461Y019445D01*
X010428Y019445D01*
X010340Y019533D01*
X010340Y020090D01*
X010396Y020146D01*
X010370Y020172D01*
X010350Y020206D01*
X010340Y020245D01*
X010340Y020432D01*
X010638Y020432D01*
X010638Y020529D01*
X010340Y020529D01*
X010340Y020717D01*
X010350Y020755D01*
X010370Y020790D01*
X010398Y020817D01*
X010432Y020837D01*
X010470Y020847D01*
X010638Y020847D01*
X010638Y020529D01*
X010735Y020529D01*
X011034Y020529D01*
X011034Y020717D01*
X011023Y020755D01*
X011004Y020790D01*
X010976Y020817D01*
X010942Y020837D01*
X010903Y020847D01*
X010735Y020847D01*
X010735Y020529D01*
X010735Y020432D01*
X011034Y020432D01*
X011034Y020245D01*
X011023Y020206D01*
X011004Y020172D01*
X010978Y020146D01*
X011034Y020090D01*
X011034Y020042D01*
X011317Y020042D01*
X011717Y019642D01*
X011717Y019428D01*
X011765Y019428D01*
X011837Y019356D01*
X011908Y019428D01*
X012465Y019428D01*
X012553Y019340D01*
X012553Y018822D01*
X012478Y018746D01*
X012553Y018671D01*
X012553Y018153D01*
X012465Y018065D01*
X012397Y018065D01*
X012397Y017993D01*
X012409Y017981D01*
X012409Y017463D01*
X012397Y017450D01*
X012397Y017433D01*
X012674Y017156D01*
X012797Y017033D01*
X012797Y016042D01*
X012811Y016046D01*
X012960Y016046D01*
X012960Y015570D01*
X013017Y015570D01*
X013393Y015570D01*
X013393Y015513D01*
X013296Y015513D01*
X013017Y015513D01*
X013017Y015570D01*
X013017Y016046D01*
X013166Y016046D01*
X013204Y016036D01*
X013205Y016035D01*
X013206Y016036D01*
X013244Y016046D01*
X013393Y016046D01*
X013393Y015570D01*
X013450Y015570D01*
X013450Y016046D01*
X013599Y016046D01*
X013627Y016038D01*
X013635Y016046D01*
X014940Y016046D01*
X015028Y015958D01*
X015028Y015256D01*
X015594Y015256D01*
X015594Y015958D01*
X015682Y016046D01*
X017421Y016046D01*
X017428Y016038D01*
X017457Y016046D01*
X017605Y016046D01*
X017605Y015570D01*
X017663Y015570D01*
X017663Y016046D01*
X017811Y016046D01*
X017840Y016038D01*
X017848Y016046D01*
X018287Y016046D01*
X018294Y016038D01*
X018323Y016046D01*
X018471Y016046D01*
X018471Y015570D01*
X018529Y015570D01*
X018808Y015570D01*
X018808Y015916D01*
X018797Y015954D01*
X018778Y015988D01*
X018750Y016016D01*
X018716Y016036D01*
X018677Y016046D01*
X018529Y016046D01*
X018529Y015570D01*
X018529Y015513D01*
X018808Y015513D01*
X018808Y015167D01*
X018797Y015129D01*
X018778Y015095D01*
X018750Y015067D01*
X018716Y015047D01*
X018677Y015037D01*
X018529Y015037D01*
X018529Y015513D01*
X018471Y015513D01*
X018471Y015037D01*
X018323Y015037D01*
X018297Y015044D01*
X018297Y014593D01*
X018531Y014593D01*
X018587Y014537D01*
X018613Y014563D01*
X018647Y014583D01*
X018685Y014593D01*
X018873Y014593D01*
X018873Y014295D01*
X018970Y014295D01*
X018970Y014593D01*
X019158Y014593D01*
X019177Y014588D01*
X019177Y016616D01*
X019106Y016616D01*
X019018Y016703D01*
X019018Y016732D01*
X018999Y016752D01*
X018837Y016913D01*
X018837Y019879D01*
X019224Y020266D01*
X019033Y020266D01*
X018945Y020354D01*
X018945Y020833D01*
X019013Y020901D01*
X019013Y020946D01*
X018904Y020946D01*
X018787Y021063D01*
X018753Y021097D01*
X018753Y020853D01*
X018671Y020770D01*
X018720Y020770D01*
X018808Y020682D01*
X018808Y019849D01*
X018720Y019762D01*
X016087Y019762D01*
X016087Y019585D01*
X016150Y019522D01*
X016197Y019408D01*
X016197Y019285D01*
X016150Y019171D01*
X016062Y019083D01*
X015948Y019036D01*
X015825Y019036D01*
X015711Y019083D01*
X015624Y019171D01*
X015577Y019285D01*
X015577Y019408D01*
X015624Y019522D01*
X015687Y019585D01*
X015687Y019762D01*
X015682Y019762D01*
X015594Y019849D01*
X015594Y020682D01*
X015682Y020770D01*
X015692Y020770D01*
X015692Y021083D01*
X016005Y021396D01*
X016005Y021725D01*
X016093Y021813D01*
X016611Y021813D01*
X016692Y021732D01*
X016705Y021755D01*
X016733Y021783D01*
X016767Y021803D01*
X016805Y021813D01*
X016973Y021813D01*
X016973Y021495D01*
X017070Y021495D01*
X017070Y021813D01*
X017238Y021813D01*
X017276Y021803D01*
X017310Y021783D01*
X017320Y021773D01*
X017320Y022040D01*
X017376Y022095D01*
X014587Y022095D01*
X014587Y020770D01*
X014940Y020770D01*
X015028Y020682D01*
X015028Y019849D01*
X014940Y019762D01*
X014068Y019762D01*
X014060Y019769D01*
X014032Y019762D01*
X013883Y019762D01*
X013883Y020146D01*
X013826Y020146D01*
X013826Y019762D01*
X013677Y019762D01*
X013649Y019769D01*
X013641Y019762D01*
X013202Y019762D01*
X013194Y019769D01*
X013166Y019762D01*
X013017Y019762D01*
X013017Y020146D01*
X012960Y020146D01*
X012960Y019762D01*
X012811Y019762D01*
X012773Y019772D01*
X012739Y019792D01*
X012711Y019820D01*
X012691Y019854D01*
X012681Y019892D01*
X012681Y020237D01*
X012813Y020237D01*
X012787Y020263D01*
X012787Y020295D01*
X012681Y020295D01*
X012681Y020640D01*
X012691Y020678D01*
X012711Y020712D01*
X012739Y020740D01*
X012773Y020760D01*
X012787Y020764D01*
X012787Y021582D01*
X012768Y021559D01*
X012768Y021559D01*
X012498Y021403D01*
X012498Y021403D01*
X012191Y021349D01*
X012191Y021349D01*
X011884Y021403D01*
X011884Y021403D01*
X011614Y021559D01*
X011614Y021559D01*
X011414Y021798D01*
X011414Y021798D01*
X011307Y022090D01*
X011307Y022095D01*
X007651Y022095D01*
X007588Y022094D01*
X007587Y022095D01*
X007585Y022095D01*
X007540Y022140D01*
X007495Y022183D01*
X007495Y022185D01*
X007494Y022186D01*
X007494Y022248D01*
X007494Y022250D01*
X007208Y022250D01*
X007208Y022103D01*
X007096Y021831D01*
X006887Y021622D01*
X006615Y021510D01*
X006468Y021510D01*
X006468Y021224D01*
X006471Y021224D01*
X006532Y021224D01*
X006533Y021223D01*
X006535Y021223D01*
X006579Y021178D01*
X006623Y021133D01*
X006623Y021132D01*
X006624Y021130D01*
X006623Y021068D01*
X006623Y020969D01*
X008055Y020969D01*
X008143Y020881D01*
X008143Y020166D01*
X008055Y020078D01*
X006623Y020078D01*
X006623Y018528D01*
X008055Y018528D01*
X008143Y018440D01*
X008143Y017725D01*
X008055Y017637D01*
X006623Y017637D01*
X006623Y006110D01*
X006624Y006047D01*
X006623Y006046D01*
X006623Y006044D01*
X006579Y006000D01*
X006535Y005955D01*
X006533Y005955D01*
X006532Y005953D01*
X006471Y005953D01*
X006468Y005953D01*
X006468Y005913D02*
X011587Y005913D01*
X011587Y005815D02*
X006468Y005815D01*
X006468Y005716D02*
X011587Y005716D01*
X011587Y005618D02*
X006736Y005618D01*
X006923Y005519D02*
X011587Y005519D01*
X011587Y005421D02*
X007022Y005421D01*
X007106Y005322D02*
X011587Y005322D01*
X011587Y005224D02*
X007147Y005224D01*
X007188Y005125D02*
X011587Y005125D01*
X011587Y006012D02*
X006590Y006012D01*
X006623Y006110D02*
X007163Y006110D01*
X007106Y006209D02*
X006623Y006209D01*
X006623Y006307D02*
X007105Y006307D01*
X007105Y006504D02*
X006623Y006504D01*
X006623Y006406D02*
X007404Y006406D01*
X007452Y006446D02*
X007452Y007146D01*
X007487Y007181D01*
X007487Y008012D01*
X007549Y007949D01*
X007535Y007982D02*
X007854Y007982D01*
X007834Y007883D02*
X008053Y007883D01*
X008053Y007785D02*
X007834Y007785D01*
X007787Y007686D02*
X008053Y007686D01*
X008106Y007588D02*
X006623Y007588D01*
X006623Y007686D02*
X007187Y007686D01*
X007140Y007785D02*
X006623Y007785D01*
X006623Y007883D02*
X007140Y007883D01*
X007140Y008080D02*
X006623Y008080D01*
X006623Y007982D02*
X007438Y007982D01*
X007438Y007883D02*
X007535Y007883D01*
X007535Y007785D02*
X007438Y007785D01*
X007438Y007686D02*
X007535Y007686D01*
X007501Y007489D02*
X007404Y007489D01*
X007404Y007391D02*
X007501Y007391D01*
X007501Y007292D02*
X007404Y007292D01*
X007404Y007194D02*
X006623Y007194D01*
X006623Y007292D02*
X007105Y007292D01*
X007108Y007391D02*
X006623Y007391D01*
X006623Y007489D02*
X007174Y007489D01*
X007105Y007095D02*
X006623Y007095D01*
X006623Y006997D02*
X007105Y006997D01*
X007108Y006898D02*
X006623Y006898D01*
X006623Y006800D02*
X007180Y006800D01*
X007110Y006701D02*
X006623Y006701D01*
X006623Y006603D02*
X007105Y006603D01*
X007404Y006603D02*
X007501Y006603D01*
X007501Y006701D02*
X007404Y006701D01*
X007404Y006800D02*
X007501Y006800D01*
X007501Y006898D02*
X007404Y006898D01*
X007404Y006997D02*
X007501Y006997D01*
X007501Y007095D02*
X007404Y007095D01*
X007730Y007489D02*
X007839Y007489D01*
X007887Y007646D02*
X008187Y007946D01*
X008387Y007946D01*
X008390Y007949D01*
X008399Y007949D01*
X008404Y007489D02*
X008533Y007489D01*
X008887Y008046D02*
X009137Y007796D01*
X009184Y008140D02*
X009150Y008222D01*
X009062Y008309D01*
X009012Y008330D01*
X009627Y008330D01*
X009627Y008232D01*
X009631Y008228D01*
X009627Y008215D01*
X009627Y008156D01*
X009200Y008156D01*
X009184Y008140D01*
X009167Y008179D02*
X009627Y008179D01*
X009587Y008146D02*
X009487Y008246D01*
X009587Y008146D02*
X009974Y008146D01*
X009974Y007949D02*
X009971Y007946D01*
X009627Y008277D02*
X009094Y008277D01*
X009461Y007489D02*
X010187Y007489D01*
X010187Y007391D02*
X009363Y007391D01*
X009264Y007292D02*
X010187Y007292D01*
X010187Y007194D02*
X009166Y007194D01*
X009067Y007095D02*
X010187Y007095D01*
X010187Y006997D02*
X008969Y006997D01*
X008870Y006898D02*
X010187Y006898D01*
X010187Y006800D02*
X008772Y006800D01*
X008673Y006701D02*
X010187Y006701D01*
X010187Y006603D02*
X008575Y006603D01*
X008476Y006504D02*
X010187Y006504D01*
X010244Y006406D02*
X008468Y006406D01*
X008468Y006307D02*
X011587Y006307D01*
X011587Y006209D02*
X008468Y006209D01*
X008411Y006110D02*
X011587Y006110D01*
X011587Y006406D02*
X011529Y006406D01*
X011587Y006504D02*
X011587Y006504D01*
X011587Y006603D02*
X011587Y006603D01*
X011587Y006701D02*
X011587Y006701D01*
X011587Y006800D02*
X011587Y006800D01*
X011587Y006898D02*
X011587Y006898D01*
X011587Y006997D02*
X011587Y006997D01*
X011387Y006746D02*
X011221Y006912D01*
X010887Y006912D01*
X011587Y007693D02*
X011587Y007863D01*
X011687Y007963D01*
X011687Y008129D01*
X011570Y008246D01*
X011538Y008246D01*
X011538Y008563D01*
X011240Y008563D01*
X011240Y008375D01*
X011250Y008337D01*
X011270Y008303D01*
X011298Y008275D01*
X011332Y008255D01*
X011366Y008246D01*
X011147Y008246D01*
X011234Y008333D01*
X011234Y008890D01*
X011178Y008946D01*
X011234Y009002D01*
X011234Y009051D01*
X011240Y009051D01*
X011240Y009002D01*
X011296Y008946D01*
X011270Y008920D01*
X011250Y008886D01*
X011240Y008848D01*
X011240Y008660D01*
X011538Y008660D01*
X011538Y008563D01*
X011635Y008563D01*
X011635Y008245D01*
X011803Y008245D01*
X011842Y008255D01*
X011876Y008275D01*
X011904Y008303D01*
X011923Y008337D01*
X011934Y008375D01*
X011934Y008563D01*
X011635Y008563D01*
X011635Y008660D01*
X011934Y008660D01*
X011934Y008848D01*
X011923Y008886D01*
X011904Y008920D01*
X011878Y008946D01*
X011934Y009002D01*
X011934Y009051D01*
X011940Y009051D01*
X011940Y009002D01*
X011996Y008946D01*
X011970Y008920D01*
X011950Y008886D01*
X011940Y008848D01*
X011940Y008660D01*
X012238Y008660D01*
X012238Y008563D01*
X011940Y008563D01*
X011940Y008375D01*
X011950Y008337D01*
X011970Y008303D01*
X011998Y008275D01*
X012032Y008255D01*
X012070Y008245D01*
X012238Y008245D01*
X012238Y008563D01*
X012335Y008563D01*
X012335Y008245D01*
X012503Y008245D01*
X012542Y008255D01*
X012576Y008275D01*
X012604Y008303D01*
X012623Y008337D01*
X012634Y008375D01*
X012634Y008563D01*
X012335Y008563D01*
X012335Y008660D01*
X012634Y008660D01*
X012634Y008848D01*
X012623Y008886D01*
X012604Y008920D01*
X012578Y008946D01*
X012634Y009002D01*
X012634Y009051D01*
X012640Y009051D01*
X012640Y009002D01*
X012696Y008946D01*
X012670Y008920D01*
X012650Y008886D01*
X012640Y008848D01*
X012640Y008660D01*
X012938Y008660D01*
X012938Y008563D01*
X012640Y008563D01*
X012640Y008375D01*
X012650Y008337D01*
X012670Y008303D01*
X012698Y008275D01*
X012732Y008255D01*
X012770Y008245D01*
X012938Y008245D01*
X012938Y008563D01*
X013035Y008563D01*
X013035Y008245D01*
X013203Y008245D01*
X013242Y008255D01*
X013276Y008275D01*
X013304Y008303D01*
X013323Y008337D01*
X013334Y008375D01*
X013334Y008563D01*
X013035Y008563D01*
X013035Y008660D01*
X013334Y008660D01*
X013334Y008848D01*
X013323Y008886D01*
X013304Y008920D01*
X013278Y008946D01*
X013334Y009002D01*
X013334Y009536D01*
X013800Y009536D01*
X014102Y009234D01*
X014048Y009256D01*
X013925Y009256D01*
X013811Y009209D01*
X013724Y009122D01*
X013677Y009008D01*
X013677Y008885D01*
X013724Y008771D01*
X013811Y008683D01*
X013925Y008636D01*
X014048Y008636D01*
X014162Y008683D01*
X014180Y008701D01*
X014180Y008356D01*
X014377Y008159D01*
X014500Y008036D01*
X015286Y008036D01*
X015286Y007895D01*
X015604Y007895D01*
X015604Y007798D01*
X015701Y007798D01*
X015701Y007499D01*
X015888Y007499D01*
X015927Y007510D01*
X015961Y007529D01*
X015987Y007555D01*
X016043Y007499D01*
X016600Y007499D01*
X016687Y007586D01*
X016774Y007499D01*
X016822Y007499D01*
X016822Y007086D01*
X016867Y007041D01*
X016867Y006631D01*
X017151Y006346D01*
X016867Y006062D01*
X016867Y005631D01*
X017171Y005326D01*
X017602Y005326D01*
X017887Y005611D01*
X018171Y005326D01*
X018602Y005326D01*
X018887Y005611D01*
X019171Y005326D01*
X019602Y005326D01*
X019907Y005631D01*
X019907Y006062D01*
X019903Y006065D01*
X020097Y006259D01*
X020097Y007433D01*
X019974Y007556D01*
X019897Y007633D01*
X019897Y008569D01*
X019948Y008518D01*
X020014Y008470D01*
X020087Y008433D01*
X020165Y008408D01*
X020237Y008396D01*
X020237Y008865D01*
X020337Y008865D01*
X020337Y008965D01*
X020237Y008965D01*
X020237Y009433D01*
X020237Y009865D01*
X019768Y009865D01*
X019780Y009793D01*
X019805Y009715D01*
X019842Y009642D01*
X019890Y009576D01*
X019948Y009518D01*
X020014Y009470D01*
X020087Y009433D01*
X020143Y009415D01*
X020087Y009397D01*
X020014Y009360D01*
X019948Y009311D01*
X019897Y009260D01*
X019897Y009283D01*
X019774Y009406D01*
X019374Y009806D01*
X019200Y009806D01*
X019190Y009796D01*
X018620Y009796D01*
X018687Y009863D01*
X018787Y009963D01*
X018787Y010129D01*
X018787Y010399D01*
X018873Y010399D01*
X018873Y010698D01*
X018970Y010698D01*
X018970Y010795D01*
X019288Y010795D01*
X019288Y010896D01*
X019390Y010896D01*
X019400Y010886D01*
X019574Y010886D01*
X019810Y011122D01*
X019767Y011018D01*
X019767Y010811D01*
X019846Y010620D01*
X019992Y010474D01*
X020139Y010413D01*
X020087Y010397D01*
X020014Y010360D01*
X019948Y010311D01*
X019890Y010254D01*
X019842Y010187D01*
X019805Y010114D01*
X019780Y010037D01*
X019768Y009965D01*
X020237Y009965D01*
X020237Y009865D01*
X020337Y009865D01*
X020337Y009965D01*
X020805Y009965D01*
X020794Y010037D01*
X020769Y010114D01*
X020732Y010187D01*
X020683Y010254D01*
X020626Y010311D01*
X020559Y010360D01*
X020486Y010397D01*
X020435Y010413D01*
X020581Y010474D01*
X020728Y010620D01*
X020807Y010811D01*
X020807Y011018D01*
X020728Y011209D01*
X020581Y011356D01*
X020439Y011415D01*
X020581Y011474D01*
X020728Y011620D01*
X020807Y011811D01*
X020807Y012018D01*
X020728Y012209D01*
X020581Y012356D01*
X020439Y012415D01*
X020581Y012474D01*
X020728Y012620D01*
X020807Y012811D01*
X020807Y013018D01*
X020728Y013209D01*
X020581Y013356D01*
X020439Y013415D01*
X020581Y013474D01*
X020728Y013620D01*
X020807Y013811D01*
X020807Y014018D01*
X020728Y014209D01*
X020581Y014356D01*
X020390Y014435D01*
X020183Y014435D01*
X019992Y014356D01*
X019846Y014209D01*
X019767Y014018D01*
X019767Y013811D01*
X019802Y013727D01*
X019597Y013522D01*
X019597Y016616D01*
X019781Y016616D01*
X019869Y016703D01*
X019869Y016896D01*
X019870Y016896D01*
X019987Y017013D01*
X019987Y017013D01*
X020287Y017313D01*
X020287Y018329D01*
X020199Y018417D01*
X020880Y018417D01*
X020880Y016276D01*
X020051Y016276D01*
X019963Y016188D01*
X019963Y015355D01*
X020051Y015267D01*
X020880Y015267D01*
X020880Y006110D01*
X020879Y006047D01*
X020880Y006046D01*
X020880Y006044D01*
X020924Y006000D01*
X020968Y005955D01*
X020969Y005955D01*
X020971Y005953D01*
X021032Y005953D01*
X021035Y005953D01*
X021035Y005668D01*
X020888Y005668D01*
X020615Y005555D01*
X020407Y005347D01*
X020294Y005075D01*
X020294Y004927D01*
X020009Y004927D01*
X020009Y004930D01*
X020009Y004992D01*
X020008Y004993D01*
X020007Y004995D01*
X019962Y005038D01*
X019918Y005082D01*
X019916Y005082D01*
X019915Y005084D01*
X019852Y005082D01*
X015787Y005082D01*
X015787Y007029D01*
X015670Y007146D01*
X015288Y007146D01*
X015288Y007298D01*
X014970Y007298D01*
X014970Y007395D01*
X014873Y007395D01*
X014873Y007693D01*
X014685Y007693D01*
X014647Y007683D01*
X014613Y007663D01*
X014587Y007637D01*
X014531Y007693D01*
X013974Y007693D01*
X013886Y007605D01*
X013886Y007576D01*
X013831Y007576D01*
X013831Y007586D01*
X013743Y007673D01*
X013343Y007673D01*
X013287Y007617D01*
X013231Y007673D01*
X012831Y007673D01*
X012743Y007586D01*
X012743Y007576D01*
X012688Y007576D01*
X012688Y007605D01*
X012600Y007693D01*
X012043Y007693D01*
X011987Y007637D01*
X011931Y007693D01*
X011587Y007693D01*
X011587Y007785D02*
X015286Y007785D01*
X015286Y007798D02*
X015286Y007630D01*
X015296Y007592D01*
X015316Y007557D01*
X015344Y007529D01*
X015378Y007510D01*
X015416Y007499D01*
X015604Y007499D01*
X015604Y007798D01*
X015286Y007798D01*
X015286Y007686D02*
X015183Y007686D01*
X015196Y007683D02*
X015158Y007693D01*
X014970Y007693D01*
X014970Y007395D01*
X015288Y007395D01*
X015288Y007563D01*
X015278Y007601D01*
X015258Y007635D01*
X015230Y007663D01*
X015196Y007683D01*
X015281Y007588D02*
X015298Y007588D01*
X015288Y007489D02*
X016822Y007489D01*
X016822Y007391D02*
X014970Y007391D01*
X014970Y007489D02*
X014873Y007489D01*
X014873Y007588D02*
X014970Y007588D01*
X014970Y007686D02*
X014873Y007686D01*
X014660Y007686D02*
X014538Y007686D01*
X014456Y008080D02*
X011687Y008080D01*
X011687Y007982D02*
X015286Y007982D01*
X015604Y007883D02*
X011607Y007883D01*
X011637Y008179D02*
X014357Y008179D01*
X014259Y008277D02*
X013278Y008277D01*
X013334Y008376D02*
X014180Y008376D01*
X014180Y008474D02*
X013334Y008474D01*
X013334Y008671D02*
X013841Y008671D01*
X013725Y008770D02*
X013334Y008770D01*
X013328Y008868D02*
X013684Y008868D01*
X013677Y008967D02*
X013298Y008967D01*
X013334Y009065D02*
X013701Y009065D01*
X013766Y009164D02*
X013334Y009164D01*
X013334Y009262D02*
X014074Y009262D01*
X013975Y009361D02*
X013334Y009361D01*
X013334Y009459D02*
X013877Y009459D01*
X014059Y010156D02*
X014059Y012119D01*
X014087Y012146D01*
X014072Y012456D02*
X014232Y012616D01*
X014492Y012616D01*
X014557Y012551D01*
X014557Y012351D01*
X014692Y012216D01*
X014792Y012116D01*
X014877Y012116D01*
X014877Y012009D01*
X015272Y012009D01*
X015272Y011999D01*
X014877Y011999D01*
X014877Y011874D01*
X014880Y011864D01*
X014877Y011861D01*
X014877Y011517D01*
X014880Y011514D01*
X014877Y011504D01*
X014877Y011379D01*
X015272Y011379D01*
X015272Y011369D01*
X014877Y011369D01*
X014877Y011244D01*
X014880Y011234D01*
X014877Y011231D01*
X014877Y010572D01*
X014965Y010484D01*
X015589Y010484D01*
X015600Y010495D01*
X015611Y010483D01*
X015701Y010446D01*
X015611Y010409D01*
X015548Y010346D01*
X014949Y010346D01*
X014949Y010468D01*
X014861Y010556D01*
X014574Y010556D01*
X014574Y010642D01*
X014487Y010729D01*
X014487Y011552D01*
X014562Y011583D01*
X014650Y011671D01*
X014697Y011785D01*
X014697Y011908D01*
X014650Y012022D01*
X014562Y012109D01*
X014448Y012156D01*
X014397Y012156D01*
X014397Y012208D01*
X014350Y012322D01*
X014262Y012409D01*
X014148Y012456D01*
X014072Y012456D01*
X014129Y012513D02*
X014557Y012513D01*
X014557Y012414D02*
X014250Y012414D01*
X014352Y012316D02*
X014592Y012316D01*
X014691Y012217D02*
X014393Y012217D01*
X014539Y012119D02*
X014789Y012119D01*
X014877Y012020D02*
X014650Y012020D01*
X014691Y011922D02*
X014877Y011922D01*
X014877Y011823D02*
X014697Y011823D01*
X014672Y011725D02*
X014877Y011725D01*
X014877Y011626D02*
X014605Y011626D01*
X014487Y011528D02*
X014877Y011528D01*
X014877Y011429D02*
X014487Y011429D01*
X014487Y011331D02*
X014877Y011331D01*
X014878Y011232D02*
X014487Y011232D01*
X014487Y011134D02*
X014877Y011134D01*
X014877Y011035D02*
X014487Y011035D01*
X014487Y010937D02*
X014877Y010937D01*
X014877Y010838D02*
X014487Y010838D01*
X014487Y010740D02*
X014877Y010740D01*
X014877Y010641D02*
X014574Y010641D01*
X014374Y010559D02*
X014287Y010646D01*
X014287Y011746D01*
X014387Y011846D01*
X014374Y011834D01*
X014497Y012611D02*
X014227Y012611D01*
X013744Y013536D02*
X013744Y013789D01*
X013187Y014346D01*
X012387Y014346D01*
X011621Y015112D01*
X011621Y015146D01*
X011621Y014446D02*
X011787Y014446D01*
X012087Y014146D01*
X013087Y014146D01*
X013387Y013846D01*
X013387Y013579D01*
X013429Y013536D01*
X013114Y013219D02*
X013287Y013046D01*
X013114Y013219D02*
X013114Y013536D01*
X012799Y013536D02*
X012799Y013134D01*
X013287Y012646D01*
X012837Y012646D02*
X012484Y012999D01*
X012484Y013536D01*
X012787Y013524D02*
X012799Y013536D01*
X012787Y013524D02*
X012787Y013446D01*
X012184Y012949D02*
X012387Y012746D01*
X012387Y012546D01*
X012487Y012446D01*
X012184Y012949D02*
X011897Y012949D01*
X011387Y013246D02*
X011078Y013246D01*
X011071Y013253D02*
X011071Y012930D01*
X010987Y012846D01*
X010187Y012846D01*
X009987Y013046D01*
X009521Y013046D01*
X009087Y013446D02*
X010110Y013446D01*
X010303Y013253D01*
X009941Y013695D02*
X006623Y013695D01*
X006623Y013793D02*
X009843Y013793D01*
X009777Y013892D02*
X006623Y013892D01*
X006623Y013990D02*
X009777Y013990D01*
X009777Y014089D02*
X006623Y014089D01*
X006623Y014187D02*
X009423Y014187D01*
X009384Y014286D02*
X006623Y014286D01*
X006623Y014384D02*
X009384Y014384D01*
X009384Y014483D02*
X006623Y014483D01*
X006623Y014581D02*
X009384Y014581D01*
X009405Y014680D02*
X006623Y014680D01*
X006623Y014778D02*
X009777Y014778D01*
X009720Y014680D02*
X009663Y014680D01*
X009663Y014581D02*
X009720Y014581D01*
X009720Y014483D02*
X009663Y014483D01*
X009663Y014384D02*
X009720Y014384D01*
X009720Y014286D02*
X009663Y014286D01*
X009663Y014187D02*
X009720Y014187D01*
X009720Y014877D02*
X009663Y014877D01*
X009663Y014975D02*
X009720Y014975D01*
X009720Y015074D02*
X009663Y015074D01*
X009663Y015172D02*
X008433Y015172D01*
X008440Y015186D02*
X008462Y015253D01*
X008471Y015309D01*
X008075Y015309D01*
X008075Y015406D01*
X008471Y015406D01*
X008462Y015462D01*
X008440Y015529D01*
X008408Y015591D01*
X008367Y015648D01*
X008317Y015698D01*
X008260Y015739D01*
X008198Y015771D01*
X008131Y015793D01*
X008075Y015802D01*
X008075Y015406D01*
X007978Y015406D01*
X007978Y015802D01*
X007922Y015793D01*
X007855Y015771D01*
X007792Y015739D01*
X007735Y015698D01*
X007685Y015648D01*
X007644Y015591D01*
X007612Y015529D01*
X007590Y015462D01*
X007581Y015406D01*
X007978Y015406D01*
X007978Y015309D01*
X008075Y015309D01*
X008075Y014913D01*
X008131Y014921D01*
X008198Y014943D01*
X008260Y014975D01*
X008317Y015016D01*
X008367Y015066D01*
X008408Y015123D01*
X008440Y015186D01*
X008465Y015271D02*
X009384Y015271D01*
X009399Y015369D02*
X008075Y015369D01*
X007978Y015369D02*
X006623Y015369D01*
X006623Y015271D02*
X007587Y015271D01*
X007590Y015253D02*
X007612Y015186D01*
X007644Y015123D01*
X007685Y015066D01*
X007735Y015016D01*
X007792Y014975D01*
X007855Y014943D01*
X007922Y014921D01*
X007978Y014913D01*
X007978Y015309D01*
X007581Y015309D01*
X007590Y015253D01*
X007619Y015172D02*
X006623Y015172D01*
X006623Y015074D02*
X007680Y015074D01*
X007792Y014975D02*
X006623Y014975D01*
X006623Y014877D02*
X009434Y014877D01*
X009384Y014975D02*
X008261Y014975D01*
X008373Y015074D02*
X009384Y015074D01*
X009663Y015271D02*
X009720Y015271D01*
X009720Y015369D02*
X009663Y015369D01*
X009811Y015468D02*
X008460Y015468D01*
X008421Y015566D02*
X009910Y015566D01*
X010008Y015665D02*
X008351Y015665D01*
X008214Y015763D02*
X010107Y015763D01*
X010205Y015862D02*
X009947Y015862D01*
X009990Y015905D02*
X009990Y016501D01*
X009902Y016589D01*
X009561Y016589D01*
X009473Y016501D01*
X009473Y015905D01*
X009561Y015817D01*
X009902Y015817D01*
X009990Y015905D01*
X009990Y015960D02*
X010221Y015960D01*
X010221Y016059D02*
X009990Y016059D01*
X009990Y016157D02*
X010221Y016157D01*
X010221Y016256D02*
X009990Y016256D01*
X009990Y016354D02*
X010221Y016354D01*
X010221Y016453D02*
X009990Y016453D01*
X009940Y016551D02*
X010271Y016551D01*
X010258Y016847D02*
X010303Y016847D01*
X010110Y016847D02*
X010102Y016847D01*
X010102Y016945D02*
X010110Y016945D01*
X010102Y017044D02*
X010110Y017044D01*
X010102Y017142D02*
X010110Y017142D01*
X009954Y016847D02*
X009909Y016847D01*
X009579Y016748D02*
X010700Y016748D01*
X010657Y016847D02*
X010798Y016847D01*
X010738Y016945D02*
X010897Y016945D01*
X010995Y017044D02*
X010738Y017044D01*
X010738Y017142D02*
X011094Y017142D01*
X011173Y017241D02*
X010738Y017241D01*
X010738Y017339D02*
X011173Y017339D01*
X011173Y017438D02*
X010738Y017438D01*
X010727Y017536D02*
X011164Y017536D01*
X011164Y017635D02*
X010717Y017635D01*
X010799Y017733D02*
X011164Y017733D01*
X011076Y017832D02*
X010898Y017832D01*
X010917Y017930D02*
X010978Y017930D01*
X011403Y017830D02*
X011403Y017722D01*
X011659Y017722D02*
X011659Y017722D01*
X011659Y017375D01*
X011705Y017375D01*
X011705Y017231D01*
X012177Y016759D01*
X012177Y016455D01*
X012171Y016455D01*
X012171Y016108D01*
X012171Y016108D01*
X012171Y016455D01*
X012062Y016455D01*
X012043Y016449D01*
X012023Y016455D01*
X011915Y016455D01*
X011915Y016108D01*
X011915Y016108D01*
X012171Y016108D01*
X012171Y016108D01*
X012171Y015761D01*
X012177Y015761D01*
X012177Y015582D01*
X011998Y015761D01*
X012023Y015761D01*
X012043Y015766D01*
X012062Y015761D01*
X012171Y015761D01*
X012171Y016108D01*
X012171Y016108D01*
X011932Y016108D01*
X011915Y016108D01*
X011915Y016108D01*
X011915Y016455D01*
X011806Y016455D01*
X011787Y016449D01*
X011767Y016455D01*
X011659Y016455D01*
X011659Y016108D01*
X011659Y016108D01*
X011915Y016108D01*
X011915Y016108D01*
X011676Y016108D01*
X011659Y016108D01*
X011659Y016108D01*
X011659Y016455D01*
X011551Y016455D01*
X011531Y016449D01*
X011511Y016455D01*
X011403Y016455D01*
X011295Y016455D01*
X011256Y016444D01*
X011235Y016432D01*
X011235Y016633D01*
X011498Y016896D01*
X011633Y017031D01*
X011633Y017375D01*
X011659Y017375D01*
X011659Y017722D01*
X011659Y017635D02*
X011659Y017635D01*
X011659Y017536D02*
X011659Y017536D01*
X011659Y017438D02*
X011659Y017438D01*
X011633Y017339D02*
X011705Y017339D01*
X011705Y017241D02*
X011633Y017241D01*
X011633Y017142D02*
X011794Y017142D01*
X011892Y017044D02*
X011633Y017044D01*
X011547Y016945D02*
X011991Y016945D01*
X012089Y016847D02*
X011449Y016847D01*
X011350Y016748D02*
X012177Y016748D01*
X012177Y016650D02*
X011252Y016650D01*
X011235Y016551D02*
X012177Y016551D01*
X012171Y016453D02*
X012171Y016453D01*
X012171Y016354D02*
X012171Y016354D01*
X012171Y016256D02*
X012171Y016256D01*
X012171Y016157D02*
X012171Y016157D01*
X012171Y016059D02*
X012171Y016059D01*
X012171Y015960D02*
X012171Y015960D01*
X012171Y015862D02*
X012171Y015862D01*
X012171Y015763D02*
X012171Y015763D01*
X012177Y015665D02*
X012094Y015665D01*
X012053Y015763D02*
X012032Y015763D01*
X011915Y016157D02*
X011915Y016157D01*
X011915Y016256D02*
X011915Y016256D01*
X011915Y016354D02*
X011915Y016354D01*
X011915Y016453D02*
X011915Y016453D01*
X012030Y016453D02*
X012056Y016453D01*
X011800Y016453D02*
X011774Y016453D01*
X011659Y016453D02*
X011659Y016453D01*
X011659Y016354D02*
X011659Y016354D01*
X011659Y016256D02*
X011659Y016256D01*
X011659Y016157D02*
X011659Y016157D01*
X011659Y016108D02*
X011403Y016108D01*
X011403Y016108D01*
X011403Y016455D01*
X011403Y016108D01*
X011403Y016108D01*
X011420Y016108D01*
X011659Y016108D01*
X011659Y016108D01*
X011403Y016157D02*
X011403Y016157D01*
X011403Y016256D02*
X011403Y016256D01*
X011403Y016354D02*
X011403Y016354D01*
X011403Y016453D02*
X011403Y016453D01*
X011518Y016453D02*
X011544Y016453D01*
X011288Y016453D02*
X011235Y016453D01*
X010601Y016650D02*
X009480Y016650D01*
X009523Y016551D02*
X009382Y016551D01*
X009473Y016453D02*
X008376Y016453D01*
X008274Y016354D02*
X009473Y016354D01*
X009473Y016256D02*
X006623Y016256D01*
X006623Y016354D02*
X007778Y016354D01*
X007677Y016453D02*
X006623Y016453D01*
X006623Y016551D02*
X007619Y016551D01*
X007579Y016650D02*
X006623Y016650D01*
X006623Y016748D02*
X007579Y016748D01*
X007589Y016847D02*
X006623Y016847D01*
X006623Y016945D02*
X007630Y016945D01*
X007703Y017044D02*
X006623Y017044D01*
X006623Y017142D02*
X007841Y017142D01*
X008211Y017142D02*
X008257Y017142D01*
X008257Y017241D02*
X006623Y017241D01*
X006623Y017339D02*
X008257Y017339D01*
X008257Y017438D02*
X006623Y017438D01*
X006623Y017536D02*
X008257Y017536D01*
X008257Y017635D02*
X006623Y017635D01*
X006623Y018620D02*
X008257Y018620D01*
X008257Y018718D02*
X006623Y018718D01*
X006623Y018817D02*
X008257Y018817D01*
X008257Y018915D02*
X006623Y018915D01*
X006623Y019014D02*
X008257Y019014D01*
X008257Y019112D02*
X006623Y019112D01*
X006623Y019211D02*
X008257Y019211D01*
X008257Y019309D02*
X006623Y019309D01*
X006623Y019408D02*
X008257Y019408D01*
X008257Y019506D02*
X006623Y019506D01*
X006623Y019605D02*
X008257Y019605D01*
X008319Y019703D02*
X006623Y019703D01*
X006623Y019802D02*
X008417Y019802D01*
X008516Y019900D02*
X006623Y019900D01*
X006623Y019999D02*
X008693Y019999D01*
X008143Y020196D02*
X010356Y020196D01*
X010347Y020097D02*
X008074Y020097D01*
X008143Y020294D02*
X010340Y020294D01*
X010340Y020393D02*
X008143Y020393D01*
X008143Y020491D02*
X010638Y020491D01*
X010735Y020491D02*
X012681Y020491D01*
X012681Y020393D02*
X011034Y020393D01*
X011034Y020294D02*
X012787Y020294D01*
X012681Y020196D02*
X011017Y020196D01*
X011027Y020097D02*
X012681Y020097D01*
X012681Y019999D02*
X011360Y019999D01*
X011458Y019900D02*
X012681Y019900D01*
X012729Y019802D02*
X011557Y019802D01*
X011655Y019703D02*
X015687Y019703D01*
X015687Y019605D02*
X011717Y019605D01*
X011717Y019506D02*
X015618Y019506D01*
X015577Y019408D02*
X012485Y019408D01*
X012553Y019309D02*
X015577Y019309D01*
X015607Y019211D02*
X012553Y019211D01*
X012553Y019112D02*
X015682Y019112D01*
X015887Y019346D02*
X015887Y020251D01*
X015902Y020266D01*
X015600Y020688D02*
X015022Y020688D01*
X015028Y020590D02*
X015594Y020590D01*
X015594Y020491D02*
X015028Y020491D01*
X015028Y020393D02*
X015594Y020393D01*
X015594Y020294D02*
X015028Y020294D01*
X015028Y020196D02*
X015594Y020196D01*
X015594Y020097D02*
X015028Y020097D01*
X015028Y019999D02*
X015594Y019999D01*
X015594Y019900D02*
X015028Y019900D01*
X014980Y019802D02*
X015642Y019802D01*
X016087Y019703D02*
X018837Y019703D01*
X018837Y019605D02*
X016087Y019605D01*
X016156Y019506D02*
X018837Y019506D01*
X018837Y019408D02*
X016197Y019408D01*
X016197Y019309D02*
X018837Y019309D01*
X018837Y019211D02*
X016166Y019211D01*
X016091Y019112D02*
X018837Y019112D01*
X018837Y019014D02*
X012553Y019014D01*
X012553Y018915D02*
X018837Y018915D01*
X018837Y018817D02*
X012548Y018817D01*
X012506Y018718D02*
X018837Y018718D01*
X018837Y018620D02*
X012553Y018620D01*
X012553Y018521D02*
X018837Y018521D01*
X018837Y018423D02*
X012553Y018423D01*
X012553Y018324D02*
X018837Y018324D01*
X018837Y018226D02*
X012553Y018226D01*
X012528Y018127D02*
X018837Y018127D01*
X018837Y018029D02*
X012397Y018029D01*
X012409Y017930D02*
X018837Y017930D01*
X018837Y017832D02*
X012409Y017832D01*
X012409Y017733D02*
X018837Y017733D01*
X018837Y017635D02*
X012409Y017635D01*
X012409Y017536D02*
X018837Y017536D01*
X018837Y017438D02*
X012397Y017438D01*
X012491Y017339D02*
X018837Y017339D01*
X018837Y017241D02*
X012589Y017241D01*
X012688Y017142D02*
X018837Y017142D01*
X018837Y017044D02*
X012786Y017044D01*
X012797Y016945D02*
X018837Y016945D01*
X018903Y016847D02*
X012797Y016847D01*
X012797Y016748D02*
X019002Y016748D01*
X019072Y016650D02*
X012797Y016650D01*
X012797Y016551D02*
X019177Y016551D01*
X019177Y016453D02*
X012797Y016453D01*
X012797Y016354D02*
X019177Y016354D01*
X019177Y016256D02*
X012797Y016256D01*
X012797Y016157D02*
X019177Y016157D01*
X019177Y016059D02*
X012797Y016059D01*
X012960Y015960D02*
X013017Y015960D01*
X013017Y015862D02*
X012960Y015862D01*
X012960Y015763D02*
X013017Y015763D01*
X013017Y015665D02*
X012960Y015665D01*
X013017Y015566D02*
X013393Y015566D01*
X013393Y015665D02*
X013450Y015665D01*
X013450Y015763D02*
X013393Y015763D01*
X013393Y015862D02*
X013450Y015862D01*
X013450Y015960D02*
X013393Y015960D01*
X015026Y015960D02*
X015597Y015960D01*
X015594Y015862D02*
X015028Y015862D01*
X015028Y015763D02*
X015594Y015763D01*
X015594Y015665D02*
X015028Y015665D01*
X015028Y015566D02*
X015594Y015566D01*
X015594Y015468D02*
X015028Y015468D01*
X015028Y015369D02*
X015594Y015369D01*
X015594Y015271D02*
X015028Y015271D01*
X016768Y015542D02*
X016787Y015560D01*
X016787Y014946D01*
X017187Y014946D02*
X017187Y015556D01*
X017201Y015542D01*
X017605Y015513D02*
X017605Y015037D01*
X017485Y015037D01*
X017497Y015008D01*
X017497Y014885D01*
X017473Y014826D01*
X017837Y014826D01*
X017837Y015044D01*
X017811Y015037D01*
X017663Y015037D01*
X017663Y015513D01*
X017605Y015513D01*
X017605Y015468D02*
X017663Y015468D01*
X017663Y015369D02*
X017605Y015369D01*
X017605Y015271D02*
X017663Y015271D01*
X017663Y015172D02*
X017605Y015172D01*
X017605Y015074D02*
X017663Y015074D01*
X017497Y014975D02*
X017837Y014975D01*
X017837Y014877D02*
X017494Y014877D01*
X017605Y015665D02*
X017663Y015665D01*
X017663Y015763D02*
X017605Y015763D01*
X017605Y015862D02*
X017663Y015862D01*
X017663Y015960D02*
X017605Y015960D01*
X018471Y015960D02*
X018529Y015960D01*
X018529Y015862D02*
X018471Y015862D01*
X018471Y015763D02*
X018529Y015763D01*
X018529Y015665D02*
X018471Y015665D01*
X018529Y015566D02*
X019177Y015566D01*
X019177Y015468D02*
X018808Y015468D01*
X018808Y015369D02*
X019177Y015369D01*
X019177Y015271D02*
X018808Y015271D01*
X018808Y015172D02*
X019177Y015172D01*
X019177Y015074D02*
X018756Y015074D01*
X018529Y015074D02*
X018471Y015074D01*
X018471Y015172D02*
X018529Y015172D01*
X018529Y015271D02*
X018471Y015271D01*
X018471Y015369D02*
X018529Y015369D01*
X018529Y015468D02*
X018471Y015468D01*
X018297Y014975D02*
X019177Y014975D01*
X019177Y014877D02*
X018297Y014877D01*
X018297Y014778D02*
X019177Y014778D01*
X019177Y014680D02*
X018297Y014680D01*
X018543Y014581D02*
X018644Y014581D01*
X018873Y014581D02*
X018970Y014581D01*
X018970Y014483D02*
X018873Y014483D01*
X018873Y014384D02*
X018970Y014384D01*
X019597Y014384D02*
X020062Y014384D01*
X019922Y014286D02*
X019597Y014286D01*
X019597Y014187D02*
X019837Y014187D01*
X019796Y014089D02*
X019597Y014089D01*
X019597Y013990D02*
X019767Y013990D01*
X019767Y013892D02*
X019597Y013892D01*
X019597Y013793D02*
X019774Y013793D01*
X019770Y013695D02*
X019597Y013695D01*
X019597Y013596D02*
X019671Y013596D01*
X019577Y013239D02*
X019474Y013136D01*
X019474Y013136D01*
X019324Y012986D01*
X019288Y012986D01*
X019288Y012895D01*
X018970Y012895D01*
X018970Y012986D01*
X018873Y012986D01*
X018873Y012895D01*
X018970Y012895D01*
X018970Y012798D01*
X019288Y012798D01*
X019288Y012630D01*
X019278Y012592D01*
X019258Y012557D01*
X019230Y012529D01*
X019196Y012510D01*
X019158Y012499D01*
X018970Y012499D01*
X018970Y012798D01*
X018873Y012798D01*
X018873Y012499D01*
X018787Y012499D01*
X018787Y012493D01*
X018873Y012493D01*
X018873Y012195D01*
X018970Y012195D01*
X018970Y012493D01*
X019158Y012493D01*
X019196Y012483D01*
X019230Y012463D01*
X019258Y012435D01*
X019278Y012401D01*
X019288Y012363D01*
X019288Y012195D01*
X018970Y012195D01*
X018970Y012098D01*
X019288Y012098D01*
X019288Y011930D01*
X019278Y011892D01*
X019258Y011857D01*
X019230Y011829D01*
X019196Y011810D01*
X019158Y011799D01*
X018970Y011799D01*
X018970Y012098D01*
X018873Y012098D01*
X018873Y011799D01*
X018685Y011799D01*
X018647Y011810D01*
X018613Y011829D01*
X018587Y011855D01*
X018531Y011799D01*
X017974Y011799D01*
X017886Y011887D01*
X017886Y012405D01*
X017974Y012493D01*
X018316Y012493D01*
X018322Y012499D01*
X017974Y012499D01*
X017886Y012587D01*
X017886Y012716D01*
X017806Y012716D01*
X017806Y011938D01*
X017718Y011851D01*
X017383Y011851D01*
X017558Y011676D01*
X017886Y011676D01*
X017886Y011705D01*
X017974Y011793D01*
X018531Y011793D01*
X018587Y011737D01*
X018613Y011763D01*
X018647Y011783D01*
X018685Y011793D01*
X018873Y011793D01*
X018873Y011495D01*
X018970Y011495D01*
X018970Y011793D01*
X019158Y011793D01*
X019196Y011783D01*
X019230Y011763D01*
X019258Y011735D01*
X019278Y011701D01*
X019288Y011663D01*
X019288Y011495D01*
X018970Y011495D01*
X018970Y011398D01*
X019288Y011398D01*
X019288Y011296D01*
X019390Y011296D01*
X019577Y011483D01*
X019577Y013239D01*
X019577Y013202D02*
X019540Y013202D01*
X019577Y013104D02*
X019441Y013104D01*
X019343Y013005D02*
X019577Y013005D01*
X019577Y012907D02*
X019288Y012907D01*
X019387Y012846D02*
X018921Y012846D01*
X018970Y012808D02*
X019577Y012808D01*
X019577Y012710D02*
X019288Y012710D01*
X019283Y012611D02*
X019577Y012611D01*
X019577Y012513D02*
X019201Y012513D01*
X019270Y012414D02*
X019577Y012414D01*
X019577Y012316D02*
X019288Y012316D01*
X019288Y012217D02*
X019577Y012217D01*
X019577Y012119D02*
X018970Y012119D01*
X018921Y012146D02*
X019187Y012146D01*
X019387Y012346D01*
X019288Y012020D02*
X019577Y012020D01*
X019577Y011922D02*
X019286Y011922D01*
X019220Y011823D02*
X019577Y011823D01*
X019577Y011725D02*
X019264Y011725D01*
X019288Y011626D02*
X019577Y011626D01*
X019577Y011528D02*
X019288Y011528D01*
X019387Y011446D02*
X018921Y011446D01*
X018970Y011429D02*
X019523Y011429D01*
X019424Y011331D02*
X019288Y011331D01*
X019487Y011096D02*
X018637Y011096D01*
X018587Y011046D01*
X018587Y010046D01*
X018487Y009946D01*
X017721Y009946D01*
X017437Y009596D02*
X017087Y009946D01*
X017437Y009596D02*
X019287Y009596D01*
X019425Y009755D02*
X019792Y009755D01*
X019770Y009853D02*
X018677Y009853D01*
X018775Y009952D02*
X020237Y009952D01*
X020237Y009853D02*
X020337Y009853D01*
X020337Y009865D02*
X020337Y008965D01*
X020805Y008965D01*
X020794Y009037D01*
X020769Y009114D01*
X020732Y009187D01*
X020683Y009254D01*
X020626Y009311D01*
X020559Y009360D01*
X020486Y009397D01*
X020431Y009415D01*
X020486Y009433D01*
X020559Y009470D01*
X020626Y009518D01*
X020683Y009576D01*
X020732Y009642D01*
X020769Y009715D01*
X020794Y009793D01*
X020805Y009865D01*
X020337Y009865D01*
X020337Y009952D02*
X020880Y009952D01*
X020880Y010050D02*
X020790Y010050D01*
X020751Y010149D02*
X020880Y010149D01*
X020880Y010247D02*
X020688Y010247D01*
X020578Y010346D02*
X020880Y010346D01*
X020880Y010444D02*
X020510Y010444D01*
X020650Y010543D02*
X020880Y010543D01*
X020880Y010641D02*
X020736Y010641D01*
X020777Y010740D02*
X020880Y010740D01*
X020880Y010838D02*
X020807Y010838D01*
X020807Y010937D02*
X020880Y010937D01*
X020880Y011035D02*
X020800Y011035D01*
X020759Y011134D02*
X020880Y011134D01*
X020880Y011232D02*
X020705Y011232D01*
X020606Y011331D02*
X020880Y011331D01*
X020880Y011429D02*
X020474Y011429D01*
X020635Y011528D02*
X020880Y011528D01*
X020880Y011626D02*
X020730Y011626D01*
X020771Y011725D02*
X020880Y011725D01*
X020880Y011823D02*
X020807Y011823D01*
X020807Y011922D02*
X020880Y011922D01*
X020880Y012020D02*
X020806Y012020D01*
X020765Y012119D02*
X020880Y012119D01*
X020880Y012217D02*
X020720Y012217D01*
X020621Y012316D02*
X020880Y012316D01*
X020880Y012414D02*
X020440Y012414D01*
X020620Y012513D02*
X020880Y012513D01*
X020880Y012611D02*
X020719Y012611D01*
X020765Y012710D02*
X020880Y012710D01*
X020880Y012808D02*
X020806Y012808D01*
X020807Y012907D02*
X020880Y012907D01*
X020880Y013005D02*
X020807Y013005D01*
X020771Y013104D02*
X020880Y013104D01*
X020880Y013202D02*
X020731Y013202D01*
X020636Y013301D02*
X020880Y013301D01*
X020880Y013399D02*
X020476Y013399D01*
X020605Y013498D02*
X020880Y013498D01*
X020880Y013596D02*
X020704Y013596D01*
X020759Y013695D02*
X020880Y013695D01*
X020880Y013793D02*
X020799Y013793D01*
X020807Y013892D02*
X020880Y013892D01*
X020880Y013990D02*
X020807Y013990D01*
X020778Y014089D02*
X020880Y014089D01*
X020880Y014187D02*
X020737Y014187D01*
X020651Y014286D02*
X020880Y014286D01*
X020880Y014384D02*
X020512Y014384D01*
X020880Y014483D02*
X019597Y014483D01*
X019597Y014581D02*
X020880Y014581D01*
X020880Y014680D02*
X019597Y014680D01*
X019597Y014778D02*
X020880Y014778D01*
X020880Y014877D02*
X019597Y014877D01*
X019597Y014975D02*
X020880Y014975D01*
X020880Y015074D02*
X019597Y015074D01*
X019597Y015172D02*
X020880Y015172D01*
X020047Y015271D02*
X019597Y015271D01*
X019597Y015369D02*
X019963Y015369D01*
X019963Y015468D02*
X019597Y015468D01*
X019597Y015566D02*
X019963Y015566D01*
X019963Y015665D02*
X019597Y015665D01*
X019597Y015763D02*
X019963Y015763D01*
X019963Y015862D02*
X019597Y015862D01*
X019597Y015960D02*
X019963Y015960D01*
X019963Y016059D02*
X019597Y016059D01*
X019597Y016157D02*
X019963Y016157D01*
X020031Y016256D02*
X019597Y016256D01*
X019597Y016354D02*
X020880Y016354D01*
X020880Y016453D02*
X019597Y016453D01*
X019597Y016551D02*
X020880Y016551D01*
X020880Y016650D02*
X019815Y016650D01*
X019869Y016748D02*
X020880Y016748D01*
X020880Y016847D02*
X019869Y016847D01*
X019919Y016945D02*
X020880Y016945D01*
X020880Y017044D02*
X020017Y017044D01*
X020116Y017142D02*
X020880Y017142D01*
X020880Y017241D02*
X020214Y017241D01*
X020287Y017339D02*
X020880Y017339D01*
X020880Y017438D02*
X020287Y017438D01*
X020287Y017536D02*
X020880Y017536D01*
X020880Y017635D02*
X020287Y017635D01*
X020287Y017733D02*
X020880Y017733D01*
X020880Y017832D02*
X020287Y017832D01*
X020287Y017930D02*
X020880Y017930D01*
X020880Y018029D02*
X020287Y018029D01*
X020287Y018127D02*
X020880Y018127D01*
X020880Y018226D02*
X020287Y018226D01*
X020287Y018324D02*
X020880Y018324D01*
X020087Y018246D02*
X020087Y017396D01*
X019787Y017096D01*
X019449Y017096D01*
X019444Y017090D01*
X019444Y016834D02*
X019199Y016834D01*
X019037Y016996D01*
X019037Y019796D01*
X019587Y020346D01*
X019587Y020594D01*
X019961Y020594D02*
X019961Y020470D01*
X019587Y020096D01*
X019587Y018446D01*
X019837Y018196D01*
X019837Y017446D01*
X019737Y017346D01*
X019444Y017346D01*
X019444Y017858D02*
X019444Y018140D01*
X019387Y018196D01*
X019504Y018246D02*
X019387Y018363D01*
X019387Y019863D01*
X019237Y019713D01*
X019237Y018077D01*
X019444Y018077D01*
X019637Y018077D01*
X019637Y018113D01*
X019504Y018246D01*
X019524Y018226D02*
X019237Y018226D01*
X019237Y018324D02*
X019426Y018324D01*
X019387Y018423D02*
X019237Y018423D01*
X019237Y018521D02*
X019387Y018521D01*
X019387Y018620D02*
X019237Y018620D01*
X019237Y018718D02*
X019387Y018718D01*
X019387Y018817D02*
X019237Y018817D01*
X019237Y018915D02*
X019387Y018915D01*
X019387Y019014D02*
X019237Y019014D01*
X019237Y019112D02*
X019387Y019112D01*
X019387Y019211D02*
X019237Y019211D01*
X019237Y019309D02*
X019387Y019309D01*
X019387Y019408D02*
X019237Y019408D01*
X019237Y019506D02*
X019387Y019506D01*
X019387Y019605D02*
X019237Y019605D01*
X019237Y019703D02*
X019387Y019703D01*
X019387Y019802D02*
X019325Y019802D01*
X019055Y020097D02*
X018808Y020097D01*
X018808Y019999D02*
X018957Y019999D01*
X018858Y019900D02*
X018808Y019900D01*
X018837Y019802D02*
X018760Y019802D01*
X018808Y020196D02*
X019154Y020196D01*
X019005Y020294D02*
X018808Y020294D01*
X018808Y020393D02*
X018945Y020393D01*
X018945Y020491D02*
X018808Y020491D01*
X018808Y020590D02*
X018945Y020590D01*
X018945Y020688D02*
X018802Y020688D01*
X018688Y020787D02*
X018945Y020787D01*
X018997Y020885D02*
X018753Y020885D01*
X018753Y020984D02*
X018866Y020984D01*
X018768Y021082D02*
X018753Y021082D01*
X018987Y021146D02*
X019887Y021146D01*
X019987Y021246D01*
X019987Y021473D01*
X019961Y021499D01*
X020229Y021260D02*
X020187Y021218D01*
X020187Y021163D01*
X020170Y021146D01*
X020370Y021146D01*
X020487Y021029D01*
X020587Y020929D01*
X020587Y020263D01*
X020470Y020146D01*
X020370Y020046D01*
X020070Y020046D01*
X019987Y019963D01*
X019987Y019362D01*
X020051Y019425D01*
X020880Y019425D01*
X020880Y021068D01*
X020879Y021130D01*
X020880Y021132D01*
X020880Y021133D01*
X020924Y021178D01*
X020968Y021223D01*
X020969Y021223D01*
X020971Y021224D01*
X021032Y021224D01*
X021035Y021224D01*
X021035Y021510D01*
X020888Y021510D01*
X020615Y021622D01*
X020407Y021831D01*
X020294Y022103D01*
X020294Y022250D01*
X020009Y022250D01*
X020009Y022248D01*
X020009Y022186D01*
X020008Y022185D01*
X020007Y022183D01*
X019962Y022140D01*
X019918Y022095D01*
X019916Y022095D01*
X019915Y022094D01*
X019852Y022095D01*
X018698Y022095D01*
X018753Y022040D01*
X018753Y021981D01*
X019014Y021981D01*
X019168Y021826D01*
X019393Y021826D01*
X019406Y021813D01*
X019411Y021816D01*
X019449Y021826D01*
X019578Y021826D01*
X019578Y021508D01*
X019596Y021508D01*
X019596Y021826D01*
X019725Y021826D01*
X019763Y021816D01*
X019768Y021813D01*
X019781Y021826D01*
X020141Y021826D01*
X020229Y021738D01*
X020229Y021260D01*
X020229Y021279D02*
X021035Y021279D01*
X021035Y021378D02*
X020229Y021378D01*
X020229Y021476D02*
X021035Y021476D01*
X020927Y021181D02*
X020187Y021181D01*
X020287Y020946D02*
X019287Y020946D01*
X019213Y020872D01*
X019213Y020594D01*
X018987Y021146D02*
X018687Y021446D01*
X018931Y021781D02*
X018387Y021781D01*
X018726Y022067D02*
X020309Y022067D01*
X020294Y022166D02*
X019990Y022166D01*
X020350Y021969D02*
X019026Y021969D01*
X019124Y021870D02*
X020391Y021870D01*
X020466Y021772D02*
X020195Y021772D01*
X020229Y021673D02*
X020564Y021673D01*
X020730Y021575D02*
X020229Y021575D01*
X020434Y021082D02*
X020880Y021082D01*
X020880Y020984D02*
X020532Y020984D01*
X020587Y020885D02*
X020880Y020885D01*
X020880Y020787D02*
X020587Y020787D01*
X020587Y020688D02*
X020880Y020688D01*
X020880Y020590D02*
X020587Y020590D01*
X020587Y020491D02*
X020880Y020491D01*
X020880Y020393D02*
X020587Y020393D01*
X020587Y020294D02*
X020880Y020294D01*
X020880Y020196D02*
X020519Y020196D01*
X020421Y020097D02*
X020880Y020097D01*
X020880Y019999D02*
X020022Y019999D01*
X019987Y019900D02*
X020880Y019900D01*
X020880Y019802D02*
X019987Y019802D01*
X019987Y019703D02*
X020880Y019703D01*
X020880Y019605D02*
X019987Y019605D01*
X019987Y019506D02*
X020880Y019506D01*
X020033Y019408D02*
X019987Y019408D01*
X019787Y020046D02*
X019987Y020246D01*
X020287Y020246D01*
X020387Y020346D01*
X020387Y020846D01*
X020287Y020946D01*
X019587Y021499D02*
X019587Y021946D01*
X019578Y021772D02*
X019596Y021772D01*
X019596Y021673D02*
X019578Y021673D01*
X019578Y021575D02*
X019596Y021575D01*
X019213Y021499D02*
X018931Y021781D01*
X017396Y021446D02*
X017348Y021398D01*
X017070Y021398D01*
X017070Y021495D01*
X017348Y021495D01*
X017396Y021446D01*
X017366Y021476D02*
X017070Y021476D01*
X017070Y021575D02*
X016973Y021575D01*
X016973Y021673D02*
X017070Y021673D01*
X017070Y021772D02*
X016973Y021772D01*
X016721Y021772D02*
X016652Y021772D01*
X016052Y021772D02*
X014587Y021772D01*
X014587Y021870D02*
X017320Y021870D01*
X017320Y021969D02*
X014587Y021969D01*
X014587Y022067D02*
X017348Y022067D01*
X016005Y021673D02*
X014587Y021673D01*
X014587Y021575D02*
X016005Y021575D01*
X016005Y021476D02*
X014587Y021476D01*
X014587Y021378D02*
X015987Y021378D01*
X015888Y021279D02*
X014587Y021279D01*
X014587Y021181D02*
X015790Y021181D01*
X015692Y021082D02*
X014587Y021082D01*
X014587Y020984D02*
X015692Y020984D01*
X015692Y020885D02*
X014587Y020885D01*
X014587Y020787D02*
X015692Y020787D01*
X013883Y020097D02*
X013826Y020097D01*
X013826Y019999D02*
X013883Y019999D01*
X013883Y019900D02*
X013826Y019900D01*
X013826Y019802D02*
X013883Y019802D01*
X013017Y019802D02*
X012960Y019802D01*
X012960Y019900D02*
X013017Y019900D01*
X013017Y019999D02*
X012960Y019999D01*
X012960Y020097D02*
X013017Y020097D01*
X012681Y020590D02*
X011034Y020590D01*
X011034Y020688D02*
X012697Y020688D01*
X012787Y020787D02*
X011005Y020787D01*
X010735Y020787D02*
X010638Y020787D01*
X010638Y020688D02*
X010735Y020688D01*
X010735Y020590D02*
X010638Y020590D01*
X010340Y020590D02*
X008143Y020590D01*
X008143Y020688D02*
X010340Y020688D01*
X010368Y020787D02*
X008143Y020787D01*
X008139Y020885D02*
X012787Y020885D01*
X012787Y020984D02*
X006623Y020984D01*
X006623Y021082D02*
X012787Y021082D01*
X012787Y021181D02*
X006576Y021181D01*
X006468Y021279D02*
X012787Y021279D01*
X012787Y021378D02*
X012354Y021378D01*
X012624Y021476D02*
X012787Y021476D01*
X012781Y021575D02*
X012787Y021575D01*
X012027Y021378D02*
X006468Y021378D01*
X006468Y021476D02*
X011757Y021476D01*
X011614Y021559D02*
X011614Y021559D01*
X011601Y021575D02*
X006773Y021575D01*
X006938Y021673D02*
X011518Y021673D01*
X011435Y021772D02*
X007037Y021772D01*
X007112Y021870D02*
X011387Y021870D01*
X011351Y021969D02*
X007153Y021969D01*
X007194Y022067D02*
X011316Y022067D01*
X010340Y019999D02*
X010285Y019999D01*
X010328Y019900D02*
X010340Y019900D01*
X010328Y019802D02*
X010340Y019802D01*
X010328Y019703D02*
X010340Y019703D01*
X010328Y019605D02*
X010340Y019605D01*
X010328Y019506D02*
X010367Y019506D01*
X010388Y019408D02*
X010298Y019408D01*
X010340Y019309D02*
X008717Y019309D01*
X009441Y019211D02*
X009538Y019211D01*
X009538Y019112D02*
X009441Y019112D01*
X009441Y019014D02*
X009538Y019014D01*
X009538Y018915D02*
X010340Y018915D01*
X010328Y018817D02*
X010347Y018817D01*
X010328Y018718D02*
X010368Y018718D01*
X010340Y018620D02*
X010298Y018620D01*
X010340Y018521D02*
X008717Y018521D01*
X008717Y018423D02*
X010340Y018423D01*
X010340Y018324D02*
X008717Y018324D01*
X008717Y018226D02*
X010340Y018226D01*
X010346Y018127D02*
X008717Y018127D01*
X008717Y018029D02*
X010444Y018029D01*
X010346Y017930D02*
X008717Y017930D01*
X008717Y017832D02*
X009747Y017832D01*
X009649Y017733D02*
X008717Y017733D01*
X008717Y017635D02*
X009550Y017635D01*
X009485Y017536D02*
X008717Y017536D01*
X008717Y017438D02*
X009473Y017438D01*
X009473Y017339D02*
X008717Y017339D01*
X008717Y017241D02*
X009421Y017241D01*
X009322Y017142D02*
X008717Y017142D01*
X008717Y017044D02*
X009224Y017044D01*
X009473Y016157D02*
X006623Y016157D01*
X006623Y016059D02*
X009473Y016059D01*
X009473Y015960D02*
X006623Y015960D01*
X006623Y015862D02*
X009516Y015862D01*
X010282Y015146D02*
X010952Y015146D01*
X010952Y014446D02*
X010282Y014446D01*
X009087Y013446D02*
X008852Y013212D01*
X008852Y013046D01*
X008856Y013498D02*
X008698Y013498D01*
X008599Y013596D02*
X008954Y013596D01*
X009868Y012136D02*
X010600Y012136D01*
X010750Y011986D01*
X010706Y011986D01*
X010152Y011986D01*
X010064Y011898D01*
X010064Y011856D01*
X009868Y011856D01*
X009868Y011925D01*
X009797Y011996D01*
X009868Y012068D01*
X009868Y012136D01*
X009868Y012119D02*
X010617Y012119D01*
X010587Y012146D02*
X010037Y012146D01*
X009887Y011996D01*
X009287Y011996D01*
X009187Y011896D01*
X009187Y011046D01*
X009087Y010946D01*
X008852Y010946D01*
X008901Y010937D02*
X009155Y010937D01*
X009155Y010898D02*
X008901Y010898D01*
X008901Y010995D01*
X009155Y010995D01*
X009155Y010898D01*
X009521Y010946D02*
X009621Y011046D01*
X009868Y011922D02*
X010088Y011922D01*
X009821Y012020D02*
X010716Y012020D01*
X010815Y011921D02*
X010815Y011639D01*
X010815Y011292D01*
X011157Y011292D01*
X011157Y010742D01*
X011092Y010676D01*
X010617Y010676D01*
X010617Y010951D01*
X010789Y011123D01*
X010789Y011292D01*
X010815Y011292D01*
X010815Y011639D01*
X010815Y011639D01*
X010815Y011918D01*
X010587Y012146D01*
X010815Y011921D02*
X010815Y011921D01*
X010815Y011639D01*
X010815Y011639D01*
X010815Y011626D02*
X010815Y011626D01*
X010815Y011528D02*
X010815Y011528D01*
X010815Y011429D02*
X010815Y011429D01*
X010815Y011331D02*
X010815Y011331D01*
X010789Y011232D02*
X011157Y011232D01*
X011157Y011134D02*
X010789Y011134D01*
X010701Y011035D02*
X011157Y011035D01*
X011157Y010937D02*
X010617Y010937D01*
X010617Y010838D02*
X011157Y010838D01*
X011155Y010740D02*
X010617Y010740D01*
X010787Y010146D02*
X012474Y010146D01*
X012484Y010156D01*
X012224Y010346D02*
X011412Y010346D01*
X011417Y010351D01*
X011567Y010501D01*
X011585Y010484D01*
X012209Y010484D01*
X012297Y010572D01*
X012297Y011546D01*
X012294Y011549D01*
X012297Y011559D01*
X012297Y011684D01*
X011902Y011684D01*
X011902Y011694D01*
X012297Y011694D01*
X012297Y011766D01*
X013382Y011766D01*
X013477Y011861D01*
X013477Y011785D01*
X013524Y011671D01*
X013577Y011618D01*
X013577Y011045D01*
X013548Y011056D01*
X013425Y011056D01*
X013311Y011009D01*
X013224Y010922D01*
X013177Y010808D01*
X013177Y010685D01*
X013219Y010582D01*
X013219Y010556D01*
X012312Y010556D01*
X012224Y010468D01*
X012224Y010346D01*
X012224Y010444D02*
X011510Y010444D01*
X012268Y010543D02*
X012299Y010543D01*
X012297Y010641D02*
X013195Y010641D01*
X013177Y010740D02*
X012297Y010740D01*
X012297Y010838D02*
X013189Y010838D01*
X013239Y010937D02*
X012297Y010937D01*
X012297Y011035D02*
X013375Y011035D01*
X013577Y011134D02*
X012297Y011134D01*
X012297Y011232D02*
X013577Y011232D01*
X013577Y011331D02*
X012297Y011331D01*
X012297Y011429D02*
X013577Y011429D01*
X013577Y011528D02*
X012297Y011528D01*
X012297Y011626D02*
X013568Y011626D01*
X013502Y011725D02*
X012297Y011725D01*
X013439Y011823D02*
X013477Y011823D01*
X014374Y010559D02*
X014374Y010156D01*
X014689Y010156D02*
X014699Y010146D01*
X015787Y010146D01*
X015696Y010444D02*
X014949Y010444D01*
X014906Y010543D02*
X014875Y010543D01*
X015277Y010744D02*
X015279Y010746D01*
X015787Y010746D01*
X015637Y011696D02*
X015687Y011746D01*
X015284Y011696D02*
X015277Y011689D01*
X015277Y012319D02*
X015249Y012346D01*
X016788Y013616D02*
X016882Y013616D01*
X017017Y013751D01*
X017112Y013847D01*
X017112Y013750D01*
X017494Y013750D01*
X017494Y013742D01*
X017112Y013742D01*
X017112Y013618D01*
X017123Y013580D01*
X017133Y013563D01*
X017112Y013543D01*
X017112Y013202D01*
X017138Y013176D01*
X016996Y013176D01*
X016861Y013311D01*
X016861Y013543D01*
X016788Y013616D01*
X016808Y013596D02*
X017118Y013596D01*
X017112Y013498D02*
X016861Y013498D01*
X016861Y013399D02*
X017112Y013399D01*
X017112Y013301D02*
X016872Y013301D01*
X016970Y013202D02*
X017112Y013202D01*
X017112Y013695D02*
X016961Y013695D01*
X017017Y013751D02*
X017017Y013751D01*
X017059Y013793D02*
X017112Y013793D01*
X017806Y012710D02*
X017886Y012710D01*
X017886Y012611D02*
X017806Y012611D01*
X017806Y012513D02*
X017960Y012513D01*
X017895Y012414D02*
X017806Y012414D01*
X017806Y012316D02*
X017886Y012316D01*
X017886Y012217D02*
X017806Y012217D01*
X017806Y012119D02*
X017886Y012119D01*
X017886Y012020D02*
X017806Y012020D01*
X017789Y011922D02*
X017886Y011922D01*
X017950Y011823D02*
X017411Y011823D01*
X017509Y011725D02*
X017905Y011725D01*
X018252Y012146D02*
X018587Y012481D01*
X018587Y013096D01*
X018487Y013196D01*
X018287Y012846D02*
X018252Y012846D01*
X018873Y012907D02*
X018970Y012907D01*
X018970Y012710D02*
X018873Y012710D01*
X018873Y012611D02*
X018970Y012611D01*
X018970Y012513D02*
X018873Y012513D01*
X018873Y012414D02*
X018970Y012414D01*
X018970Y012316D02*
X018873Y012316D01*
X018873Y012217D02*
X018970Y012217D01*
X018970Y012020D02*
X018873Y012020D01*
X018873Y011922D02*
X018970Y011922D01*
X018970Y011823D02*
X018873Y011823D01*
X018873Y011725D02*
X018970Y011725D01*
X018970Y011626D02*
X018873Y011626D01*
X018873Y011528D02*
X018970Y011528D01*
X018623Y011823D02*
X018555Y011823D01*
X018921Y010746D02*
X019387Y010746D01*
X019288Y010698D02*
X018970Y010698D01*
X018970Y010399D01*
X019158Y010399D01*
X019196Y010410D01*
X019230Y010429D01*
X019258Y010457D01*
X019278Y010492D01*
X019288Y010530D01*
X019288Y010698D01*
X019288Y010641D02*
X019837Y010641D01*
X019796Y010740D02*
X018970Y010740D01*
X018970Y010641D02*
X018873Y010641D01*
X018873Y010543D02*
X018970Y010543D01*
X018970Y010444D02*
X018873Y010444D01*
X018787Y010346D02*
X019995Y010346D01*
X020064Y010444D02*
X019245Y010444D01*
X019288Y010543D02*
X019923Y010543D01*
X019886Y010247D02*
X018787Y010247D01*
X018787Y010149D02*
X019822Y010149D01*
X019784Y010050D02*
X018787Y010050D01*
X019190Y009396D02*
X019477Y009109D01*
X019477Y007459D01*
X019570Y007366D01*
X019437Y007366D01*
X019437Y006896D01*
X019337Y006896D01*
X019337Y007366D01*
X019171Y007366D01*
X018887Y007082D01*
X018602Y007366D01*
X018171Y007366D01*
X017887Y007082D01*
X017602Y007366D01*
X017282Y007366D01*
X017282Y007499D01*
X017331Y007499D01*
X017387Y007555D01*
X017413Y007529D01*
X017447Y007510D01*
X017485Y007499D01*
X017673Y007499D01*
X017673Y007798D01*
X017770Y007798D01*
X017770Y007895D01*
X017673Y007895D01*
X017673Y008193D01*
X017485Y008193D01*
X017447Y008183D01*
X017413Y008163D01*
X017387Y008137D01*
X017331Y008193D01*
X017282Y008193D01*
X017282Y008199D01*
X017331Y008199D01*
X017387Y008255D01*
X017413Y008229D01*
X017447Y008210D01*
X017485Y008199D01*
X017673Y008199D01*
X017673Y008498D01*
X017770Y008498D01*
X017770Y008595D01*
X017673Y008595D01*
X017673Y008893D01*
X017485Y008893D01*
X017447Y008883D01*
X017413Y008863D01*
X017387Y008837D01*
X017331Y008893D01*
X017282Y008893D01*
X017282Y008899D01*
X017331Y008899D01*
X017387Y008955D01*
X017413Y008929D01*
X017447Y008910D01*
X017485Y008899D01*
X017673Y008899D01*
X017673Y009198D01*
X017770Y009198D01*
X017770Y009295D01*
X018088Y009295D01*
X018088Y009396D01*
X019190Y009396D01*
X019225Y009361D02*
X018088Y009361D01*
X018088Y009198D02*
X017770Y009198D01*
X017770Y008899D01*
X017958Y008899D01*
X017996Y008910D01*
X018030Y008929D01*
X018058Y008957D01*
X018078Y008992D01*
X018088Y009030D01*
X018088Y009198D01*
X018088Y009164D02*
X019422Y009164D01*
X019477Y009065D02*
X018088Y009065D01*
X018063Y008967D02*
X019477Y008967D01*
X019477Y008868D02*
X018021Y008868D01*
X018030Y008863D02*
X017996Y008883D01*
X017958Y008893D01*
X017770Y008893D01*
X017770Y008595D01*
X018088Y008595D01*
X018088Y008763D01*
X018078Y008801D01*
X018058Y008835D01*
X018030Y008863D01*
X018086Y008770D02*
X019477Y008770D01*
X019477Y008671D02*
X018088Y008671D01*
X018088Y008498D02*
X017770Y008498D01*
X017770Y008199D01*
X017958Y008199D01*
X017996Y008210D01*
X018030Y008229D01*
X018058Y008257D01*
X018078Y008292D01*
X018088Y008330D01*
X018088Y008498D01*
X018088Y008474D02*
X019477Y008474D01*
X019477Y008376D02*
X018088Y008376D01*
X018070Y008277D02*
X019477Y008277D01*
X019477Y008179D02*
X018003Y008179D01*
X017996Y008183D02*
X017958Y008193D01*
X017770Y008193D01*
X017770Y007895D01*
X018088Y007895D01*
X018088Y008063D01*
X018078Y008101D01*
X018058Y008135D01*
X018030Y008163D01*
X017996Y008183D01*
X018083Y008080D02*
X019477Y008080D01*
X019477Y007982D02*
X018088Y007982D01*
X018088Y007798D02*
X017770Y007798D01*
X017770Y007499D01*
X017958Y007499D01*
X017996Y007510D01*
X018030Y007529D01*
X018058Y007557D01*
X018078Y007592D01*
X018088Y007630D01*
X018088Y007798D01*
X018088Y007785D02*
X019477Y007785D01*
X019477Y007883D02*
X017770Y007883D01*
X017770Y007785D02*
X017673Y007785D01*
X017673Y007686D02*
X017770Y007686D01*
X017770Y007588D02*
X017673Y007588D01*
X017676Y007292D02*
X018097Y007292D01*
X017999Y007194D02*
X017775Y007194D01*
X017873Y007095D02*
X017900Y007095D01*
X018076Y007588D02*
X019477Y007588D01*
X019477Y007686D02*
X018088Y007686D01*
X017770Y007982D02*
X017673Y007982D01*
X017673Y008080D02*
X017770Y008080D01*
X017770Y008179D02*
X017673Y008179D01*
X017673Y008277D02*
X017770Y008277D01*
X017770Y008376D02*
X017673Y008376D01*
X017673Y008474D02*
X017770Y008474D01*
X017770Y008573D02*
X019477Y008573D01*
X019897Y008474D02*
X020008Y008474D01*
X019897Y008376D02*
X020880Y008376D01*
X020880Y008474D02*
X020565Y008474D01*
X020559Y008470D02*
X020626Y008518D01*
X020683Y008576D01*
X020732Y008642D01*
X020769Y008715D01*
X020794Y008793D01*
X020805Y008865D01*
X020337Y008865D01*
X020337Y008396D01*
X020409Y008408D01*
X020486Y008433D01*
X020559Y008470D01*
X020680Y008573D02*
X020880Y008573D01*
X020880Y008671D02*
X020746Y008671D01*
X020786Y008770D02*
X020880Y008770D01*
X020880Y008868D02*
X020337Y008868D01*
X020337Y008770D02*
X020237Y008770D01*
X020237Y008671D02*
X020337Y008671D01*
X020337Y008573D02*
X020237Y008573D01*
X020237Y008474D02*
X020337Y008474D01*
X020337Y008967D02*
X020237Y008967D01*
X020237Y009065D02*
X020337Y009065D01*
X020337Y009164D02*
X020237Y009164D01*
X020237Y009262D02*
X020337Y009262D01*
X020337Y009361D02*
X020237Y009361D01*
X020237Y009459D02*
X020337Y009459D01*
X020337Y009558D02*
X020237Y009558D01*
X020237Y009656D02*
X020337Y009656D01*
X020337Y009755D02*
X020237Y009755D01*
X020035Y009459D02*
X019721Y009459D01*
X019774Y009406D02*
X019774Y009406D01*
X019819Y009361D02*
X020017Y009361D01*
X019899Y009262D02*
X019897Y009262D01*
X019908Y009558D02*
X019622Y009558D01*
X019524Y009656D02*
X019835Y009656D01*
X019324Y009262D02*
X017770Y009262D01*
X017770Y009164D02*
X017673Y009164D01*
X017673Y009065D02*
X017770Y009065D01*
X017770Y008967D02*
X017673Y008967D01*
X017673Y008868D02*
X017770Y008868D01*
X017770Y008770D02*
X017673Y008770D01*
X017673Y008671D02*
X017770Y008671D01*
X017422Y008868D02*
X017356Y008868D01*
X017345Y008179D02*
X017440Y008179D01*
X017282Y007489D02*
X019477Y007489D01*
X019545Y007391D02*
X017282Y007391D01*
X016822Y007292D02*
X015288Y007292D01*
X015288Y007194D02*
X016822Y007194D01*
X016822Y007095D02*
X015721Y007095D01*
X015787Y006997D02*
X016867Y006997D01*
X016867Y006898D02*
X015787Y006898D01*
X015787Y006800D02*
X016867Y006800D01*
X016867Y006701D02*
X015787Y006701D01*
X015787Y006603D02*
X016895Y006603D01*
X016993Y006504D02*
X015787Y006504D01*
X015787Y006406D02*
X017092Y006406D01*
X017112Y006307D02*
X015787Y006307D01*
X015787Y006209D02*
X017014Y006209D01*
X016915Y006110D02*
X015787Y006110D01*
X015787Y006012D02*
X016867Y006012D01*
X016867Y005913D02*
X015787Y005913D01*
X015787Y005815D02*
X016867Y005815D01*
X016867Y005716D02*
X015787Y005716D01*
X015787Y005618D02*
X016880Y005618D01*
X016978Y005519D02*
X015787Y005519D01*
X015787Y005421D02*
X017077Y005421D01*
X017697Y005421D02*
X018077Y005421D01*
X017978Y005519D02*
X017795Y005519D01*
X018697Y005421D02*
X019077Y005421D01*
X018978Y005519D02*
X018795Y005519D01*
X019697Y005421D02*
X020481Y005421D01*
X020397Y005322D02*
X015787Y005322D01*
X015787Y005224D02*
X020356Y005224D01*
X020315Y005125D02*
X015787Y005125D01*
X015701Y007588D02*
X015604Y007588D01*
X015604Y007686D02*
X015701Y007686D01*
X015701Y007785D02*
X015604Y007785D01*
X015265Y008456D02*
X014674Y008456D01*
X014600Y008530D01*
X014600Y008658D01*
X014656Y008658D01*
X014669Y008661D01*
X014672Y008658D01*
X014895Y008658D01*
X014983Y008746D01*
X014983Y008946D01*
X015327Y008946D01*
X015377Y008896D01*
X015305Y008825D01*
X015305Y008496D01*
X015265Y008456D01*
X015283Y008474D02*
X014656Y008474D01*
X014600Y008573D02*
X015305Y008573D01*
X015305Y008671D02*
X014909Y008671D01*
X014983Y008770D02*
X015305Y008770D01*
X015349Y008868D02*
X014983Y008868D01*
X015137Y008646D02*
X015387Y008896D01*
X015887Y008896D01*
X015987Y008996D01*
X015987Y009496D01*
X015887Y009596D01*
X014937Y009596D01*
X014784Y009443D01*
X014784Y009406D01*
X014787Y009406D02*
X014983Y009406D01*
X014983Y009346D01*
X015305Y009346D01*
X015305Y009525D01*
X015377Y009596D01*
X014970Y009596D01*
X014952Y009578D01*
X014953Y009577D01*
X014973Y009543D01*
X014983Y009505D01*
X014983Y009406D01*
X014787Y009406D01*
X014787Y009406D01*
X014587Y009406D02*
X014587Y009496D01*
X014887Y009796D01*
X016137Y009796D01*
X016237Y009696D01*
X015652Y009246D02*
X015652Y009212D01*
X015587Y009146D01*
X014487Y009146D01*
X014390Y009243D01*
X014390Y009410D01*
X014964Y009558D02*
X015338Y009558D01*
X015305Y009459D02*
X014983Y009459D01*
X014983Y009361D02*
X015305Y009361D01*
X014180Y008671D02*
X014133Y008671D01*
X014180Y008573D02*
X013035Y008573D01*
X012938Y008573D02*
X012335Y008573D01*
X012238Y008573D02*
X011635Y008573D01*
X011538Y008573D02*
X011234Y008573D01*
X011234Y008671D02*
X011240Y008671D01*
X011234Y008770D02*
X011240Y008770D01*
X011234Y008868D02*
X011245Y008868D01*
X011275Y008967D02*
X011198Y008967D01*
X010887Y008612D02*
X010887Y008446D01*
X011178Y008277D02*
X011296Y008277D01*
X011240Y008376D02*
X011234Y008376D01*
X011234Y008474D02*
X011240Y008474D01*
X011538Y008474D02*
X011635Y008474D01*
X011635Y008376D02*
X011538Y008376D01*
X011538Y008277D02*
X011635Y008277D01*
X011878Y008277D02*
X011996Y008277D01*
X011940Y008376D02*
X011934Y008376D01*
X011934Y008474D02*
X011940Y008474D01*
X011934Y008671D02*
X011940Y008671D01*
X011934Y008770D02*
X011940Y008770D01*
X011928Y008868D02*
X011945Y008868D01*
X011975Y008967D02*
X011898Y008967D01*
X012238Y008474D02*
X012335Y008474D01*
X012335Y008376D02*
X012238Y008376D01*
X012238Y008277D02*
X012335Y008277D01*
X012578Y008277D02*
X012696Y008277D01*
X012640Y008376D02*
X012634Y008376D01*
X012634Y008474D02*
X012640Y008474D01*
X012634Y008671D02*
X012640Y008671D01*
X012634Y008770D02*
X012640Y008770D01*
X012628Y008868D02*
X012645Y008868D01*
X012675Y008967D02*
X012598Y008967D01*
X012938Y008474D02*
X013035Y008474D01*
X013035Y008376D02*
X012938Y008376D01*
X012938Y008277D02*
X013035Y008277D01*
X012607Y007686D02*
X013967Y007686D01*
X013886Y007588D02*
X013828Y007588D01*
X012745Y007588D02*
X012688Y007588D01*
X012036Y007686D02*
X011938Y007686D01*
X010387Y008746D02*
X010181Y008540D01*
X009974Y008540D01*
X008977Y009133D02*
X008977Y009658D01*
X009291Y009972D01*
X009291Y009989D01*
X009247Y009989D01*
X008882Y010354D01*
X008882Y009920D01*
X008795Y009832D01*
X007922Y009832D01*
X007834Y009920D01*
X007834Y010478D01*
X007865Y010508D01*
X007840Y010533D01*
X007840Y010602D01*
X007834Y010602D01*
X007834Y010533D01*
X007746Y010445D01*
X007712Y010445D01*
X007742Y010437D01*
X007776Y010417D01*
X007804Y010390D01*
X007823Y010355D01*
X007834Y010317D01*
X007834Y010129D01*
X007535Y010129D01*
X007535Y010032D01*
X007834Y010032D01*
X007834Y009845D01*
X007823Y009806D01*
X007804Y009772D01*
X007778Y009746D01*
X007834Y009690D01*
X007834Y009504D01*
X007834Y009504D01*
X007834Y009572D01*
X007922Y009660D01*
X008795Y009660D01*
X008882Y009572D01*
X008882Y009056D01*
X008900Y009056D01*
X008977Y009133D01*
X008977Y009164D02*
X008882Y009164D01*
X008882Y009262D02*
X008977Y009262D01*
X008977Y009361D02*
X008882Y009361D01*
X008882Y009459D02*
X008977Y009459D01*
X008977Y009558D02*
X008882Y009558D01*
X008798Y009656D02*
X008977Y009656D01*
X009074Y009755D02*
X007786Y009755D01*
X007834Y009853D02*
X007902Y009853D01*
X007834Y009952D02*
X007834Y009952D01*
X007834Y010050D02*
X007535Y010050D01*
X007715Y010444D02*
X007834Y010444D01*
X007826Y010346D02*
X007834Y010346D01*
X007834Y010247D02*
X007834Y010247D01*
X007834Y010149D02*
X007834Y010149D01*
X007834Y010543D02*
X007840Y010543D01*
X007834Y009656D02*
X007919Y009656D01*
X007834Y009558D02*
X007834Y009558D01*
X008815Y009853D02*
X009172Y009853D01*
X009271Y009952D02*
X008882Y009952D01*
X008882Y010050D02*
X009186Y010050D01*
X009087Y010149D02*
X008882Y010149D01*
X008882Y010247D02*
X008989Y010247D01*
X008890Y010346D02*
X008882Y010346D01*
X008882Y009065D02*
X008909Y009065D01*
X007166Y008376D02*
X006623Y008376D01*
X006623Y008474D02*
X007062Y008474D01*
X006963Y008573D02*
X006623Y008573D01*
X006623Y008671D02*
X006865Y008671D01*
X006777Y008770D02*
X006623Y008770D01*
X006623Y008868D02*
X006777Y008868D01*
X006777Y008967D02*
X006623Y008967D01*
X006623Y009065D02*
X006777Y009065D01*
X006777Y009164D02*
X006623Y009164D01*
X006623Y009262D02*
X006777Y009262D01*
X006777Y009361D02*
X006623Y009361D01*
X006623Y009459D02*
X006777Y009459D01*
X006777Y009558D02*
X006623Y009558D01*
X006623Y009656D02*
X006777Y009656D01*
X006777Y009755D02*
X006623Y009755D01*
X006623Y009853D02*
X006777Y009853D01*
X006777Y009952D02*
X006623Y009952D01*
X006623Y010050D02*
X006777Y010050D01*
X006777Y010149D02*
X006623Y010149D01*
X006623Y010247D02*
X006777Y010247D01*
X006777Y010346D02*
X006623Y010346D01*
X006623Y010444D02*
X006777Y010444D01*
X006777Y010543D02*
X006623Y010543D01*
X006623Y010641D02*
X006777Y010641D01*
X006777Y010740D02*
X006623Y010740D01*
X006623Y010838D02*
X006777Y010838D01*
X006777Y010937D02*
X006623Y010937D01*
X006623Y011035D02*
X006777Y011035D01*
X006777Y011134D02*
X006623Y011134D01*
X006623Y011232D02*
X006777Y011232D01*
X006777Y011331D02*
X006623Y011331D01*
X006623Y011429D02*
X006777Y011429D01*
X006777Y011528D02*
X006623Y011528D01*
X006623Y011626D02*
X006777Y011626D01*
X006777Y011725D02*
X006623Y011725D01*
X006623Y011823D02*
X006777Y011823D01*
X006777Y011922D02*
X006623Y011922D01*
X006623Y012020D02*
X006777Y012020D01*
X006777Y012119D02*
X006623Y012119D01*
X006623Y012217D02*
X006777Y012217D01*
X006777Y012316D02*
X006623Y012316D01*
X006623Y012414D02*
X006777Y012414D01*
X006777Y012513D02*
X006623Y012513D01*
X006623Y012611D02*
X006777Y012611D01*
X006777Y012710D02*
X006623Y012710D01*
X006623Y012808D02*
X006777Y012808D01*
X006777Y012907D02*
X006623Y012907D01*
X006623Y013005D02*
X006777Y013005D01*
X006777Y013104D02*
X006623Y013104D01*
X006623Y013202D02*
X006777Y013202D01*
X006777Y013301D02*
X006623Y013301D01*
X006623Y013399D02*
X006843Y013399D01*
X006941Y013498D02*
X006623Y013498D01*
X006623Y013596D02*
X007040Y013596D01*
X007978Y014975D02*
X008075Y014975D01*
X008075Y015074D02*
X007978Y015074D01*
X007978Y015172D02*
X008075Y015172D01*
X008075Y015271D02*
X007978Y015271D01*
X007978Y015468D02*
X008075Y015468D01*
X008075Y015566D02*
X007978Y015566D01*
X007978Y015665D02*
X008075Y015665D01*
X008075Y015763D02*
X007978Y015763D01*
X007839Y015763D02*
X006623Y015763D01*
X006623Y015665D02*
X007702Y015665D01*
X007631Y015566D02*
X006623Y015566D01*
X006623Y015468D02*
X007592Y015468D01*
X008143Y017733D02*
X008257Y017733D01*
X008257Y017832D02*
X008143Y017832D01*
X008143Y017930D02*
X008257Y017930D01*
X008257Y018029D02*
X008143Y018029D01*
X008143Y018127D02*
X008257Y018127D01*
X008257Y018226D02*
X008143Y018226D01*
X008143Y018324D02*
X008257Y018324D01*
X008257Y018423D02*
X008143Y018423D01*
X008062Y018521D02*
X008257Y018521D01*
X009441Y018620D02*
X009538Y018620D01*
X009538Y018718D02*
X009441Y018718D01*
X009441Y018817D02*
X009538Y018817D01*
X010328Y019014D02*
X010340Y019014D01*
X010328Y019112D02*
X010638Y019112D01*
X010735Y019112D02*
X011028Y019112D01*
X011034Y019129D02*
X011034Y019317D01*
X011023Y019355D01*
X011004Y019390D01*
X010976Y019417D01*
X010942Y019437D01*
X010912Y019445D01*
X010946Y019445D01*
X011034Y019533D01*
X011034Y019582D01*
X011126Y019582D01*
X011257Y019451D01*
X011257Y019428D01*
X011208Y019428D01*
X011120Y019340D01*
X011120Y019205D01*
X010948Y019032D01*
X010735Y019032D01*
X010735Y019129D01*
X011034Y019129D01*
X011034Y019211D02*
X011120Y019211D01*
X011120Y019309D02*
X011034Y019309D01*
X010985Y019408D02*
X011188Y019408D01*
X011202Y019506D02*
X011007Y019506D01*
X011287Y019046D02*
X011452Y019046D01*
X011487Y019081D01*
X011785Y019408D02*
X011888Y019408D01*
X010340Y019211D02*
X010286Y019211D01*
X007513Y022166D02*
X007208Y022166D01*
X010815Y011823D02*
X010815Y011823D01*
X010815Y011725D02*
X010815Y011725D01*
X007148Y008277D02*
X006623Y008277D01*
X006623Y008179D02*
X007140Y008179D01*
X007404Y006504D02*
X007501Y006504D01*
X007501Y006307D02*
X007404Y006307D01*
X007404Y006209D02*
X007501Y006209D01*
X007501Y006110D02*
X007404Y006110D01*
X007742Y006110D02*
X007832Y006110D01*
X007529Y005027D02*
X007208Y005027D01*
X007208Y004928D02*
X007494Y004928D01*
X018676Y007292D02*
X019097Y007292D01*
X018999Y007194D02*
X018775Y007194D01*
X018873Y007095D02*
X018900Y007095D01*
X019337Y007095D02*
X019437Y007095D01*
X019437Y006997D02*
X019337Y006997D01*
X019337Y006898D02*
X019437Y006898D01*
X019437Y007194D02*
X019337Y007194D01*
X019337Y007292D02*
X019437Y007292D01*
X019942Y007588D02*
X020880Y007588D01*
X020880Y007686D02*
X019897Y007686D01*
X019897Y007785D02*
X020880Y007785D01*
X020880Y007883D02*
X019897Y007883D01*
X019897Y007982D02*
X020880Y007982D01*
X020880Y008080D02*
X019897Y008080D01*
X019897Y008179D02*
X020880Y008179D01*
X020880Y008277D02*
X019897Y008277D01*
X020041Y007489D02*
X020880Y007489D01*
X020880Y007391D02*
X020097Y007391D01*
X020097Y007292D02*
X020880Y007292D01*
X020880Y007194D02*
X020097Y007194D01*
X020097Y007095D02*
X020880Y007095D01*
X020880Y006997D02*
X020097Y006997D01*
X020097Y006898D02*
X020880Y006898D01*
X020880Y006800D02*
X020097Y006800D01*
X020097Y006701D02*
X020880Y006701D01*
X020880Y006603D02*
X020097Y006603D01*
X020097Y006504D02*
X020880Y006504D01*
X020880Y006406D02*
X020097Y006406D01*
X020097Y006307D02*
X020880Y006307D01*
X020880Y006209D02*
X020046Y006209D01*
X019948Y006110D02*
X020880Y006110D01*
X020912Y006012D02*
X019907Y006012D01*
X019907Y005913D02*
X021035Y005913D01*
X021035Y005815D02*
X019907Y005815D01*
X019907Y005716D02*
X021035Y005716D01*
X020766Y005618D02*
X019894Y005618D01*
X019795Y005519D02*
X020579Y005519D01*
X020294Y005027D02*
X019974Y005027D01*
X020009Y004928D02*
X020294Y004928D01*
X020805Y008967D02*
X020880Y008967D01*
X020880Y009065D02*
X020785Y009065D01*
X020744Y009164D02*
X020880Y009164D01*
X020880Y009262D02*
X020675Y009262D01*
X020557Y009361D02*
X020880Y009361D01*
X020880Y009459D02*
X020538Y009459D01*
X020665Y009558D02*
X020880Y009558D01*
X020880Y009656D02*
X020739Y009656D01*
X020782Y009755D02*
X020880Y009755D01*
X020880Y009853D02*
X020804Y009853D01*
X019767Y010838D02*
X019288Y010838D01*
X019624Y010937D02*
X019767Y010937D01*
X019774Y011035D02*
X019723Y011035D01*
X019177Y015665D02*
X018808Y015665D01*
X018808Y015763D02*
X019177Y015763D01*
X019177Y015862D02*
X018808Y015862D01*
X018794Y015960D02*
X019177Y015960D01*
X019444Y017858D02*
X019444Y018077D01*
X019444Y017858D01*
X019444Y017858D01*
X019444Y017930D02*
X019444Y017930D01*
X019444Y018029D02*
X019444Y018029D01*
X019623Y018127D02*
X019237Y018127D01*
X019787Y018546D02*
X020087Y018246D01*
X019787Y018546D02*
X019787Y020046D01*
M02*
