%
M48
M72
T01C0.0200
T02C0.0394
T03C0.0400
T04C0.1181
%
T01
X11587Y8146
X12287Y8146
X12987Y8146
X11387Y6746
X11387Y6246
X11387Y5746
X11387Y5246
X15987Y6746
X15987Y6246
X15987Y5746
X15987Y5246
X14887Y7846
X16987Y13546
X6987Y7146
X15687Y7346
X11987Y16746
X12987Y16446
X12987Y18546
X12987Y19246
X12987Y17146
X15387Y20146
X15387Y20646
X14887Y21146
X12487Y21146
X11987Y21146
X11987Y20146
X8887Y9746
X12487Y11546
X10987Y11046
X15137Y8646
X11187Y20446
X11987Y20646
X12487Y20646
X19387Y12846
X18937Y14796
X19587Y21946
X9487Y8246
X7887Y7646
X19387Y10746
X19387Y11446
X19387Y12346
X8887Y18346
X9387Y18346
X9887Y18346
X14387Y12546
X16987Y21946
X12987Y17846
X19387Y18196
X13687Y16446
X13687Y17146
X13687Y17846
X13687Y18546
X13687Y19246
X14387Y16446
X14387Y17146
X14387Y17846
X14387Y18546
X14387Y19246
X15087Y16446
X15087Y17146
X15087Y17846
X15087Y18546
X15087Y19246
X16487Y16546
X16487Y17246
X16487Y17946
X16487Y18646
X16487Y19346
X17187Y16546
X17187Y17246
X17187Y17946
X17187Y18646
X17187Y19346
X17887Y16546
X17887Y17246
X17887Y17946
X17887Y18646
X17887Y19346
X18587Y16546
X18587Y17246
X18587Y17946
X18587Y18646
X15387Y21146
X14887Y21646
X10787Y10146
X8887Y8046
X12837Y12646
X12487Y12446
X13787Y11846
X16437Y9996
X13287Y12646
X14387Y11846
X17187Y14946
X14087Y12146
X16787Y14946
X15787Y10146
X15787Y10746
X13487Y10746
X13987Y8946
X11387Y13246
X13287Y13046
X15637Y13396
X15887Y19346
T02
X8026Y16735
X8026Y15357
T03
X17387Y5846
X17387Y6846
X18387Y5846
X18387Y6846
X19387Y5846
X19387Y6846
X20287Y13915
X20287Y12915
X20287Y11915
X20287Y10915
X20287Y9915
X20287Y8915
T04
X21035Y22250
X21035Y4927
X6468Y4927
X6468Y22250
M30
