G75*
G70*
%OFA0B0*%
%FSLAX24Y24*%
%IPPOS*%
%LPD*%
%AMOC8*
5,1,8,0,0,1.08239X$1,22.5*
%
%ADD10C,0.1221*%
%ADD11R,0.0434X0.0138*%
%ADD12R,0.0434X0.0473*%
%ADD13R,0.0473X0.0434*%
%ADD14R,0.0316X0.0394*%
%ADD15R,0.0788X0.0473*%
%ADD16R,0.0197X0.0237*%
%ADD17R,0.0540X0.0260*%
%ADD18R,0.0260X0.0540*%
%ADD19OC8,0.0780*%
%ADD20C,0.0780*%
%ADD21R,0.0473X0.0788*%
%ADD22R,0.0367X0.0288*%
%ADD23R,0.0355X0.1024*%
%ADD24R,0.0434X0.1024*%
%ADD25R,0.0355X0.0749*%
%ADD26R,0.0257X0.0512*%
%ADD27R,0.1379X0.0631*%
%ADD28R,0.1418X0.0434*%
%ADD29R,0.0217X0.0434*%
%ADD30R,0.0434X0.1910*%
%ADD31R,0.0355X0.0355*%
%ADD32R,0.0138X0.0197*%
%ADD33R,0.0276X0.0394*%
%ADD34R,0.0512X0.0257*%
%ADD35R,0.0591X0.0178*%
%ADD36R,0.0788X0.0749*%
%ADD37C,0.0634*%
D10*
X006468Y004927D03*
X006468Y022250D03*
X021035Y022250D03*
X021035Y004927D03*
D11*
X009974Y007753D03*
X009974Y007949D03*
X009974Y008146D03*
X009974Y008343D03*
X009974Y008540D03*
X008399Y008540D03*
X008399Y008343D03*
X008399Y008146D03*
X008399Y007949D03*
X008399Y007753D03*
D12*
X008121Y007146D03*
X007452Y007146D03*
X007487Y008012D03*
X007487Y008681D03*
X007487Y009412D03*
X007487Y010081D03*
X007487Y010812D03*
X007487Y011481D03*
X008187Y011481D03*
X008187Y010812D03*
X008852Y011646D03*
X008852Y012346D03*
X009521Y012346D03*
X009521Y011646D03*
X009521Y013046D03*
X008852Y013046D03*
X010952Y014446D03*
X010952Y015146D03*
X011621Y015146D03*
X011621Y014446D03*
X010687Y018412D03*
X010687Y019081D03*
X010687Y019812D03*
X010687Y020481D03*
X016352Y021446D03*
X017021Y021446D03*
X018252Y013546D03*
X018921Y013546D03*
X016321Y009246D03*
X015652Y009246D03*
X015652Y008546D03*
X016321Y008546D03*
X012987Y008612D03*
X012987Y009281D03*
X012287Y009281D03*
X012287Y008612D03*
X011587Y008612D03*
X011587Y009281D03*
X010887Y009281D03*
X010887Y008612D03*
X010887Y007581D03*
X010887Y006912D03*
X008121Y006446D03*
X007452Y006446D03*
D13*
X008852Y010946D03*
X009521Y010946D03*
X011652Y007346D03*
X012321Y007346D03*
X014252Y007346D03*
X014921Y007346D03*
X015652Y007846D03*
X016321Y007846D03*
X017052Y007846D03*
X017052Y008546D03*
X017052Y009246D03*
X017721Y009246D03*
X017721Y008546D03*
X017721Y007846D03*
X017721Y009946D03*
X018252Y010746D03*
X018252Y011446D03*
X018921Y011446D03*
X018921Y010746D03*
X018921Y012146D03*
X018921Y012846D03*
X018252Y012846D03*
X018252Y012146D03*
X018252Y014246D03*
X018921Y014246D03*
X017052Y009946D03*
X012187Y018412D03*
X012187Y019081D03*
X011487Y019081D03*
X011487Y018412D03*
X017687Y021112D03*
X017687Y021781D03*
X018387Y021781D03*
X018387Y021112D03*
D14*
X013543Y007346D03*
X013031Y007346D03*
D15*
X009815Y009294D03*
X009815Y010199D03*
X008358Y010199D03*
X008358Y009294D03*
D16*
X008187Y012331D03*
X008187Y012961D03*
D17*
X011897Y012949D03*
X011897Y012634D03*
X011897Y012319D03*
X011897Y012004D03*
X011897Y011689D03*
X011897Y011374D03*
X011897Y011059D03*
X011897Y010744D03*
X015277Y010744D03*
X015277Y011059D03*
X015277Y011374D03*
X015277Y011689D03*
X015277Y012004D03*
X015277Y012319D03*
X015277Y012634D03*
X015277Y012949D03*
D18*
X014689Y013536D03*
X014374Y013536D03*
X014059Y013536D03*
X013744Y013536D03*
X013429Y013536D03*
X013114Y013536D03*
X012799Y013536D03*
X012484Y013536D03*
X012484Y010156D03*
X012799Y010156D03*
X013114Y010156D03*
X013429Y010156D03*
X013744Y010156D03*
X014059Y010156D03*
X014374Y010156D03*
X014689Y010156D03*
D19*
X017387Y006846D03*
X017387Y005846D03*
X018387Y005846D03*
X019387Y005846D03*
X019387Y006846D03*
X018387Y006846D03*
D20*
X020287Y008915D03*
X020287Y009915D03*
X020287Y010915D03*
X020287Y011915D03*
X020287Y012915D03*
X020287Y013915D03*
D21*
X017440Y012375D03*
X016534Y012375D03*
X016534Y010918D03*
X017440Y010918D03*
D22*
X007487Y012194D03*
X007487Y013099D03*
D23*
X013687Y021746D03*
D24*
X014218Y021746D03*
X013136Y021746D03*
D25*
X012988Y020266D03*
X013421Y020266D03*
X013855Y020266D03*
X014288Y020266D03*
X014721Y020266D03*
X015902Y020266D03*
X016335Y020266D03*
X016768Y020266D03*
X017201Y020266D03*
X017634Y020266D03*
X018067Y020266D03*
X018500Y020266D03*
X018500Y015542D03*
X018067Y015542D03*
X017634Y015542D03*
X017201Y015542D03*
X016768Y015542D03*
X016335Y015542D03*
X015902Y015542D03*
X014721Y015542D03*
X014288Y015542D03*
X013855Y015542D03*
X013421Y015542D03*
X012988Y015542D03*
D26*
X010480Y016203D03*
X010480Y017227D03*
X010106Y017227D03*
X009732Y017227D03*
X009732Y016203D03*
D27*
X007324Y018082D03*
X007324Y020523D03*
D28*
X009489Y019697D03*
X009489Y018909D03*
D29*
X011403Y017722D03*
X011659Y017722D03*
X011915Y017722D03*
X012171Y017722D03*
X012171Y016108D03*
X011915Y016108D03*
X011659Y016108D03*
X011403Y016108D03*
X011071Y013253D03*
X010815Y013253D03*
X010559Y013253D03*
X010303Y013253D03*
X010303Y011639D03*
X010559Y011639D03*
X010815Y011639D03*
X011071Y011639D03*
D30*
X012014Y005991D03*
X013687Y005991D03*
X015360Y005991D03*
D31*
X010282Y014446D03*
X010282Y015146D03*
X009692Y015146D03*
X009692Y014446D03*
D32*
X014390Y009410D03*
X014587Y009406D03*
X014784Y009406D03*
X014784Y008886D03*
X014587Y008886D03*
X014390Y008886D03*
D33*
X019213Y020594D03*
X019587Y020594D03*
X019961Y020594D03*
X019961Y021499D03*
X019587Y021499D03*
X019213Y021499D03*
D34*
X017499Y014120D03*
X017499Y013746D03*
X017499Y013372D03*
X016475Y013372D03*
X016475Y014120D03*
D35*
X019444Y016834D03*
X019444Y017090D03*
X019444Y017346D03*
X019444Y017602D03*
X019444Y017858D03*
D36*
X020487Y018921D03*
X020487Y015771D03*
D37*
X008026Y015357D03*
X008026Y016735D03*
M02*
