G75*
G70*
%OFA0B0*%
%FSLAX24Y24*%
%IPPOS*%
%LPD*%
%AMOC8*
5,1,8,0,0,1.08239X$1,22.5*
%
%ADD10C,0.0110*%
%ADD11C,0.0080*%
%ADD12C,0.0150*%
%ADD13C,0.0050*%
D10*
X008935Y016101D02*
X009230Y016298D01*
X008935Y016495D01*
X009230Y016692D02*
X009230Y016101D01*
X009481Y016101D02*
X009481Y016495D01*
X009481Y016101D02*
X009777Y016101D01*
X009875Y016200D01*
X009875Y016495D01*
X010099Y016200D02*
X010099Y016101D01*
X010197Y016101D01*
X010197Y016200D01*
X010099Y016200D01*
X010448Y016200D02*
X010448Y016397D01*
X010547Y016495D01*
X010743Y016495D01*
X010842Y016397D01*
X010842Y016200D01*
X010743Y016101D01*
X010547Y016101D01*
X010448Y016200D01*
X011093Y016101D02*
X011388Y016101D01*
X011486Y016200D01*
X011486Y016397D01*
X011388Y016495D01*
X011093Y016495D01*
X011710Y016200D02*
X011710Y016101D01*
X011809Y016101D01*
X011809Y016200D01*
X011710Y016200D01*
X012041Y016397D02*
X012238Y016397D01*
X012140Y016593D02*
X012140Y016101D01*
X012489Y016200D02*
X012588Y016101D01*
X012883Y016101D01*
X012784Y016298D02*
X012588Y016298D01*
X012489Y016200D01*
X012489Y016495D02*
X012784Y016495D01*
X012883Y016397D01*
X012784Y016298D01*
X013134Y016101D02*
X013134Y016495D01*
X013527Y016495D02*
X013527Y016200D01*
X013429Y016101D01*
X013134Y016101D01*
X013778Y016101D02*
X014074Y016101D01*
X014172Y016200D01*
X014172Y016397D01*
X014074Y016495D01*
X013778Y016495D01*
X014423Y016692D02*
X014816Y016101D01*
X015067Y016692D02*
X015461Y016101D01*
X015685Y016101D02*
X015685Y016200D01*
X015783Y016200D01*
X015783Y016101D01*
X015685Y016101D01*
X015685Y016397D02*
X015783Y016397D01*
X015783Y016495D01*
X015685Y016495D01*
X015685Y016397D01*
X016034Y016397D02*
X016034Y016200D01*
X016133Y016101D01*
X016428Y016101D01*
X016428Y015904D02*
X016428Y016495D01*
X016133Y016495D01*
X016034Y016397D01*
X016661Y016495D02*
X016858Y016495D01*
X016759Y016593D02*
X016759Y016200D01*
X016661Y016101D01*
X017090Y016101D02*
X017189Y016200D01*
X017189Y016593D01*
X017287Y016495D02*
X017090Y016495D01*
X017538Y016397D02*
X017538Y016101D01*
X017538Y016397D02*
X017637Y016495D01*
X017833Y016495D01*
X017932Y016397D01*
X017932Y016692D02*
X017932Y016101D01*
X018249Y021301D02*
X018446Y021498D01*
X018347Y021498D02*
X018643Y021498D01*
X018643Y021301D02*
X018643Y021892D01*
X018347Y021892D01*
X018249Y021793D01*
X018249Y021597D01*
X018347Y021498D01*
X018894Y021597D02*
X019287Y021597D01*
X019287Y021695D02*
X019090Y021892D01*
X018894Y021695D01*
X018894Y021301D01*
X019287Y021301D02*
X019287Y021695D01*
X019538Y021892D02*
X019538Y021301D01*
X019932Y021301D02*
X019932Y021892D01*
X019735Y021695D01*
X019538Y021892D01*
X017354Y021695D02*
X017255Y021793D01*
X017255Y021990D01*
X017031Y021695D02*
X016835Y021892D01*
X016835Y021301D01*
X017031Y021301D02*
X016638Y021301D01*
X016387Y021301D02*
X015993Y021695D01*
X015993Y021793D01*
X016092Y021892D01*
X016288Y021892D01*
X016387Y021793D01*
X016387Y021301D02*
X015993Y021301D01*
X012041Y016692D02*
X012140Y016593D01*
X009835Y020301D02*
X009638Y020695D01*
X009387Y020695D02*
X009190Y020892D01*
X009190Y020301D01*
X008994Y020301D02*
X009387Y020301D01*
X009835Y020301D02*
X010032Y020695D01*
X010092Y021301D02*
X009994Y021400D01*
X009994Y021793D01*
X010092Y021892D01*
X010289Y021892D01*
X010387Y021793D01*
X010387Y021400D01*
X010289Y021301D01*
X010092Y021301D01*
X009743Y021301D02*
X009743Y021892D01*
X009349Y021892D01*
X009098Y021892D02*
X009098Y021793D01*
X008901Y021597D01*
X008901Y021301D01*
X008901Y021597D02*
X008705Y021793D01*
X008705Y021892D01*
X008454Y021597D02*
X008060Y021597D01*
X007809Y021892D02*
X007809Y021301D01*
X007612Y021695D02*
X007415Y021892D01*
X007415Y021301D01*
X007612Y021695D02*
X007809Y021892D01*
X008125Y020892D02*
X008027Y020793D01*
X008420Y020400D01*
X008322Y020301D01*
X008125Y020301D01*
X008027Y020400D01*
X008027Y020793D01*
X008125Y020892D02*
X008322Y020892D01*
X008420Y020793D01*
X008420Y020400D01*
X008644Y020400D02*
X008644Y020301D01*
X008743Y020301D01*
X008743Y020400D01*
X008644Y020400D01*
X009349Y021301D02*
X009743Y021301D01*
X009743Y021597D02*
X009546Y021597D01*
X010638Y021892D02*
X010835Y021892D01*
X010737Y021892D02*
X010737Y021400D01*
X010835Y021301D01*
X010933Y021301D01*
X011032Y021400D01*
D11*
X019627Y015007D02*
X019627Y014586D01*
X019907Y015007D01*
X019907Y014586D01*
X020087Y014586D02*
X020227Y014726D01*
X020157Y014726D02*
X020368Y014726D01*
X020368Y014586D02*
X020368Y015007D01*
X020157Y015007D01*
X020087Y014937D01*
X020087Y014796D01*
X020157Y014726D01*
X020548Y014656D02*
X020548Y014796D01*
X020688Y014796D01*
X020828Y014656D02*
X020828Y014937D01*
X020758Y015007D01*
X020618Y015007D01*
X020548Y014937D01*
X020548Y014656D02*
X020618Y014586D01*
X020758Y014586D01*
X020828Y014656D01*
X020828Y008207D02*
X020618Y008207D01*
X020548Y008137D01*
X020548Y008066D01*
X020618Y007996D01*
X020828Y007996D01*
X020828Y007786D02*
X020618Y007786D01*
X020548Y007856D01*
X020548Y007926D01*
X020618Y007996D01*
X020828Y007786D02*
X020828Y008207D01*
X020368Y008207D02*
X020368Y007786D01*
X020087Y007786D01*
X019907Y007786D02*
X019907Y008207D01*
X019837Y007996D02*
X019627Y007786D01*
X019907Y007926D02*
X019627Y008207D01*
D12*
X019570Y017421D02*
X019286Y017421D01*
X019145Y017563D01*
X018791Y017563D02*
X018649Y017421D01*
X018366Y017421D01*
X018224Y017563D01*
X018224Y018272D01*
X018791Y018272D02*
X018791Y017563D01*
X019145Y018130D02*
X019286Y018272D01*
X019570Y018272D01*
X019712Y018130D01*
X019712Y017563D01*
X019570Y017421D01*
X016949Y017563D02*
X016808Y017421D01*
X016524Y017421D01*
X016382Y017563D01*
X016382Y017705D01*
X016524Y017847D01*
X016808Y017847D01*
X016949Y017988D01*
X016949Y018130D01*
X016808Y018272D01*
X016524Y018272D01*
X016382Y018130D01*
X016029Y018272D02*
X016029Y017421D01*
X016029Y017705D02*
X015603Y017705D01*
X015462Y017847D01*
X015462Y018130D01*
X015603Y018272D01*
X016029Y018272D01*
X015108Y017988D02*
X015108Y017421D01*
X015108Y017847D02*
X014541Y017847D01*
X014541Y017988D02*
X014541Y017421D01*
X014187Y017563D02*
X014045Y017421D01*
X013762Y017421D01*
X013620Y017563D01*
X013266Y017421D02*
X012699Y017421D01*
X012983Y017847D02*
X013266Y017847D01*
X013266Y018272D02*
X013266Y017421D01*
X013620Y018130D02*
X013762Y018272D01*
X014045Y018272D01*
X014187Y018130D01*
X014187Y017563D01*
X014541Y017988D02*
X014824Y018272D01*
X015108Y017988D01*
X013266Y018272D02*
X012699Y018272D01*
X012346Y018272D02*
X012346Y017421D01*
X012346Y017847D02*
X012062Y017847D01*
X012346Y018272D02*
X011778Y018272D01*
X011425Y018272D02*
X011425Y017421D01*
X010858Y017421D01*
X010504Y017421D02*
X010220Y017421D01*
X010362Y017421D02*
X010362Y018272D01*
X010504Y018272D02*
X010220Y018272D01*
X009890Y018130D02*
X009890Y017563D01*
X009748Y017421D01*
X009465Y017421D01*
X009323Y017563D01*
X009323Y017847D01*
X009607Y017847D01*
X009890Y018130D02*
X009748Y018272D01*
X009465Y018272D01*
X009323Y018130D01*
X008969Y018272D02*
X008969Y017421D01*
X008969Y017847D02*
X008402Y017847D01*
X008402Y018272D02*
X008402Y017421D01*
X008049Y018272D02*
X007481Y018272D01*
X007765Y018272D02*
X007765Y017421D01*
D13*
X011718Y019671D02*
X012899Y019671D01*
X012900Y019671D02*
X012902Y019616D01*
X012908Y019561D01*
X012917Y019507D01*
X012930Y019454D01*
X012947Y019402D01*
X012968Y019351D01*
X012992Y019302D01*
X013020Y019254D01*
X013050Y019208D01*
X013084Y019165D01*
X013121Y019124D01*
X013160Y019086D01*
X013202Y019051D01*
X013247Y019019D01*
X013294Y018989D01*
X013342Y018964D01*
X013392Y018941D01*
X013444Y018923D01*
X013497Y018907D01*
X013550Y018896D01*
X013605Y018888D01*
X013660Y018884D01*
X013714Y018884D01*
X013769Y018888D01*
X013824Y018896D01*
X013877Y018907D01*
X013930Y018923D01*
X013982Y018941D01*
X014032Y018964D01*
X014081Y018989D01*
X014127Y019019D01*
X014172Y019051D01*
X014214Y019086D01*
X014253Y019124D01*
X014290Y019165D01*
X014324Y019208D01*
X014354Y019254D01*
X014382Y019302D01*
X014406Y019351D01*
X014427Y019402D01*
X014444Y019454D01*
X014457Y019507D01*
X014466Y019561D01*
X014472Y019616D01*
X014474Y019671D01*
X015655Y019671D01*
X015655Y022246D01*
X011718Y022246D02*
X011718Y019671D01*
M02*
