G75*
G70*
%OFA0B0*%
%FSLAX24Y24*%
%IPPOS*%
%LPD*%
%AMOC8*
5,1,8,0,0,1.08239X$1,22.5*
%
%ADD10C,0.0000*%
%ADD11C,0.1221*%
%ADD12C,0.0010*%
%ADD13OC8,0.0780*%
%ADD14C,0.0780*%
%ADD15C,0.0050*%
%ADD16R,0.0434X0.1910*%
%ADD17C,0.0634*%
D10*
X005877Y004927D02*
X005879Y004975D01*
X005885Y005023D01*
X005895Y005070D01*
X005908Y005116D01*
X005926Y005161D01*
X005946Y005205D01*
X005971Y005247D01*
X005999Y005286D01*
X006029Y005323D01*
X006063Y005357D01*
X006100Y005389D01*
X006138Y005418D01*
X006179Y005443D01*
X006222Y005465D01*
X006267Y005483D01*
X006313Y005497D01*
X006360Y005508D01*
X006408Y005515D01*
X006456Y005518D01*
X006504Y005517D01*
X006552Y005512D01*
X006600Y005503D01*
X006646Y005491D01*
X006691Y005474D01*
X006735Y005454D01*
X006777Y005431D01*
X006817Y005404D01*
X006855Y005374D01*
X006890Y005341D01*
X006922Y005305D01*
X006952Y005267D01*
X006978Y005226D01*
X007000Y005183D01*
X007020Y005139D01*
X007035Y005094D01*
X007047Y005047D01*
X007055Y004999D01*
X007059Y004951D01*
X007059Y004903D01*
X007055Y004855D01*
X007047Y004807D01*
X007035Y004760D01*
X007020Y004715D01*
X007000Y004671D01*
X006978Y004628D01*
X006952Y004587D01*
X006922Y004549D01*
X006890Y004513D01*
X006855Y004480D01*
X006817Y004450D01*
X006777Y004423D01*
X006735Y004400D01*
X006691Y004380D01*
X006646Y004363D01*
X006600Y004351D01*
X006552Y004342D01*
X006504Y004337D01*
X006456Y004336D01*
X006408Y004339D01*
X006360Y004346D01*
X006313Y004357D01*
X006267Y004371D01*
X006222Y004389D01*
X006179Y004411D01*
X006138Y004436D01*
X006100Y004465D01*
X006063Y004497D01*
X006029Y004531D01*
X005999Y004568D01*
X005971Y004607D01*
X005946Y004649D01*
X005926Y004693D01*
X005908Y004738D01*
X005895Y004784D01*
X005885Y004831D01*
X005879Y004879D01*
X005877Y004927D01*
X005877Y022250D02*
X005879Y022298D01*
X005885Y022346D01*
X005895Y022393D01*
X005908Y022439D01*
X005926Y022484D01*
X005946Y022528D01*
X005971Y022570D01*
X005999Y022609D01*
X006029Y022646D01*
X006063Y022680D01*
X006100Y022712D01*
X006138Y022741D01*
X006179Y022766D01*
X006222Y022788D01*
X006267Y022806D01*
X006313Y022820D01*
X006360Y022831D01*
X006408Y022838D01*
X006456Y022841D01*
X006504Y022840D01*
X006552Y022835D01*
X006600Y022826D01*
X006646Y022814D01*
X006691Y022797D01*
X006735Y022777D01*
X006777Y022754D01*
X006817Y022727D01*
X006855Y022697D01*
X006890Y022664D01*
X006922Y022628D01*
X006952Y022590D01*
X006978Y022549D01*
X007000Y022506D01*
X007020Y022462D01*
X007035Y022417D01*
X007047Y022370D01*
X007055Y022322D01*
X007059Y022274D01*
X007059Y022226D01*
X007055Y022178D01*
X007047Y022130D01*
X007035Y022083D01*
X007020Y022038D01*
X007000Y021994D01*
X006978Y021951D01*
X006952Y021910D01*
X006922Y021872D01*
X006890Y021836D01*
X006855Y021803D01*
X006817Y021773D01*
X006777Y021746D01*
X006735Y021723D01*
X006691Y021703D01*
X006646Y021686D01*
X006600Y021674D01*
X006552Y021665D01*
X006504Y021660D01*
X006456Y021659D01*
X006408Y021662D01*
X006360Y021669D01*
X006313Y021680D01*
X006267Y021694D01*
X006222Y021712D01*
X006179Y021734D01*
X006138Y021759D01*
X006100Y021788D01*
X006063Y021820D01*
X006029Y021854D01*
X005999Y021891D01*
X005971Y021930D01*
X005946Y021972D01*
X005926Y022016D01*
X005908Y022061D01*
X005895Y022107D01*
X005885Y022154D01*
X005879Y022202D01*
X005877Y022250D01*
X020444Y022250D02*
X020446Y022298D01*
X020452Y022346D01*
X020462Y022393D01*
X020475Y022439D01*
X020493Y022484D01*
X020513Y022528D01*
X020538Y022570D01*
X020566Y022609D01*
X020596Y022646D01*
X020630Y022680D01*
X020667Y022712D01*
X020705Y022741D01*
X020746Y022766D01*
X020789Y022788D01*
X020834Y022806D01*
X020880Y022820D01*
X020927Y022831D01*
X020975Y022838D01*
X021023Y022841D01*
X021071Y022840D01*
X021119Y022835D01*
X021167Y022826D01*
X021213Y022814D01*
X021258Y022797D01*
X021302Y022777D01*
X021344Y022754D01*
X021384Y022727D01*
X021422Y022697D01*
X021457Y022664D01*
X021489Y022628D01*
X021519Y022590D01*
X021545Y022549D01*
X021567Y022506D01*
X021587Y022462D01*
X021602Y022417D01*
X021614Y022370D01*
X021622Y022322D01*
X021626Y022274D01*
X021626Y022226D01*
X021622Y022178D01*
X021614Y022130D01*
X021602Y022083D01*
X021587Y022038D01*
X021567Y021994D01*
X021545Y021951D01*
X021519Y021910D01*
X021489Y021872D01*
X021457Y021836D01*
X021422Y021803D01*
X021384Y021773D01*
X021344Y021746D01*
X021302Y021723D01*
X021258Y021703D01*
X021213Y021686D01*
X021167Y021674D01*
X021119Y021665D01*
X021071Y021660D01*
X021023Y021659D01*
X020975Y021662D01*
X020927Y021669D01*
X020880Y021680D01*
X020834Y021694D01*
X020789Y021712D01*
X020746Y021734D01*
X020705Y021759D01*
X020667Y021788D01*
X020630Y021820D01*
X020596Y021854D01*
X020566Y021891D01*
X020538Y021930D01*
X020513Y021972D01*
X020493Y022016D01*
X020475Y022061D01*
X020462Y022107D01*
X020452Y022154D01*
X020446Y022202D01*
X020444Y022250D01*
X020444Y004927D02*
X020446Y004975D01*
X020452Y005023D01*
X020462Y005070D01*
X020475Y005116D01*
X020493Y005161D01*
X020513Y005205D01*
X020538Y005247D01*
X020566Y005286D01*
X020596Y005323D01*
X020630Y005357D01*
X020667Y005389D01*
X020705Y005418D01*
X020746Y005443D01*
X020789Y005465D01*
X020834Y005483D01*
X020880Y005497D01*
X020927Y005508D01*
X020975Y005515D01*
X021023Y005518D01*
X021071Y005517D01*
X021119Y005512D01*
X021167Y005503D01*
X021213Y005491D01*
X021258Y005474D01*
X021302Y005454D01*
X021344Y005431D01*
X021384Y005404D01*
X021422Y005374D01*
X021457Y005341D01*
X021489Y005305D01*
X021519Y005267D01*
X021545Y005226D01*
X021567Y005183D01*
X021587Y005139D01*
X021602Y005094D01*
X021614Y005047D01*
X021622Y004999D01*
X021626Y004951D01*
X021626Y004903D01*
X021622Y004855D01*
X021614Y004807D01*
X021602Y004760D01*
X021587Y004715D01*
X021567Y004671D01*
X021545Y004628D01*
X021519Y004587D01*
X021489Y004549D01*
X021457Y004513D01*
X021422Y004480D01*
X021384Y004450D01*
X021344Y004423D01*
X021302Y004400D01*
X021258Y004380D01*
X021213Y004363D01*
X021167Y004351D01*
X021119Y004342D01*
X021071Y004337D01*
X021023Y004336D01*
X020975Y004339D01*
X020927Y004346D01*
X020880Y004357D01*
X020834Y004371D01*
X020789Y004389D01*
X020746Y004411D01*
X020705Y004436D01*
X020667Y004465D01*
X020630Y004497D01*
X020596Y004531D01*
X020566Y004568D01*
X020538Y004607D01*
X020513Y004649D01*
X020493Y004693D01*
X020475Y004738D01*
X020462Y004784D01*
X020452Y004831D01*
X020446Y004879D01*
X020444Y004927D01*
D11*
X006468Y004927D03*
X006468Y022250D03*
X021035Y022250D03*
X021035Y004927D03*
D12*
X019854Y004928D02*
X019857Y004860D01*
X019865Y004793D01*
X019876Y004726D01*
X019891Y004660D01*
X019910Y004595D01*
X019932Y004531D01*
X019959Y004469D01*
X019989Y004408D01*
X020022Y004349D01*
X020059Y004292D01*
X020099Y004238D01*
X020142Y004186D01*
X020188Y004136D01*
X020237Y004089D01*
X020289Y004045D01*
X020343Y004005D01*
X020399Y003967D01*
X020457Y003933D01*
X020518Y003902D01*
X020580Y003875D01*
X020643Y003852D01*
X020708Y003832D01*
X020774Y003816D01*
X020840Y003804D01*
X020908Y003796D01*
X020975Y003792D01*
X021043Y003791D01*
X021111Y003795D01*
X021178Y003803D01*
X021245Y003814D01*
X021310Y003830D01*
X021375Y003849D01*
X021439Y003872D01*
X021501Y003899D01*
X021562Y003929D01*
X021620Y003963D01*
X021677Y004000D01*
X021731Y004041D01*
X021783Y004084D01*
X021833Y004130D01*
X021879Y004180D01*
X021922Y004232D01*
X021963Y004286D01*
X022000Y004343D01*
X022034Y004401D01*
X022064Y004462D01*
X022091Y004524D01*
X022114Y004588D01*
X022133Y004653D01*
X022149Y004718D01*
X022160Y004785D01*
X022168Y004852D01*
X022172Y004920D01*
X022171Y004988D01*
X022167Y005055D01*
X022159Y005123D01*
X022147Y005189D01*
X022131Y005255D01*
X022111Y005320D01*
X022088Y005383D01*
X022061Y005445D01*
X022030Y005506D01*
X021996Y005564D01*
X021958Y005620D01*
X021918Y005674D01*
X021874Y005726D01*
X021827Y005775D01*
X021777Y005821D01*
X021725Y005864D01*
X021671Y005904D01*
X021614Y005941D01*
X021555Y005974D01*
X021494Y006004D01*
X021432Y006031D01*
X021368Y006053D01*
X021303Y006072D01*
X021237Y006087D01*
X021170Y006098D01*
X021103Y006106D01*
X021035Y006109D01*
X021035Y006108D02*
X021035Y021069D01*
X021103Y021072D01*
X021170Y021080D01*
X021237Y021091D01*
X021303Y021106D01*
X021368Y021125D01*
X021432Y021147D01*
X021494Y021174D01*
X021555Y021204D01*
X021614Y021237D01*
X021671Y021274D01*
X021725Y021314D01*
X021777Y021357D01*
X021827Y021403D01*
X021874Y021452D01*
X021918Y021504D01*
X021958Y021558D01*
X021996Y021614D01*
X022030Y021672D01*
X022061Y021733D01*
X022088Y021795D01*
X022111Y021858D01*
X022131Y021923D01*
X022147Y021989D01*
X022159Y022055D01*
X022167Y022123D01*
X022171Y022190D01*
X022172Y022258D01*
X022168Y022326D01*
X022160Y022393D01*
X022149Y022460D01*
X022133Y022525D01*
X022114Y022590D01*
X022091Y022654D01*
X022064Y022716D01*
X022034Y022777D01*
X022000Y022835D01*
X021963Y022892D01*
X021922Y022946D01*
X021879Y022998D01*
X021833Y023048D01*
X021783Y023094D01*
X021731Y023137D01*
X021677Y023178D01*
X021620Y023215D01*
X021562Y023249D01*
X021501Y023279D01*
X021439Y023306D01*
X021375Y023329D01*
X021310Y023348D01*
X021245Y023364D01*
X021178Y023375D01*
X021111Y023383D01*
X021043Y023387D01*
X020975Y023386D01*
X020908Y023382D01*
X020840Y023374D01*
X020774Y023362D01*
X020708Y023346D01*
X020643Y023326D01*
X020580Y023303D01*
X020518Y023276D01*
X020457Y023245D01*
X020399Y023211D01*
X020343Y023173D01*
X020289Y023133D01*
X020237Y023089D01*
X020188Y023042D01*
X020142Y022992D01*
X020099Y022940D01*
X020059Y022886D01*
X020022Y022829D01*
X019989Y022770D01*
X019959Y022709D01*
X019932Y022647D01*
X019910Y022583D01*
X019891Y022518D01*
X019876Y022452D01*
X019865Y022385D01*
X019857Y022318D01*
X019854Y022250D01*
X007649Y022250D01*
X007646Y022318D01*
X007638Y022385D01*
X007627Y022452D01*
X007612Y022518D01*
X007593Y022583D01*
X007571Y022647D01*
X007544Y022709D01*
X007514Y022770D01*
X007481Y022829D01*
X007444Y022886D01*
X007404Y022940D01*
X007361Y022992D01*
X007315Y023042D01*
X007266Y023089D01*
X007214Y023133D01*
X007160Y023173D01*
X007104Y023211D01*
X007046Y023245D01*
X006985Y023276D01*
X006923Y023303D01*
X006860Y023326D01*
X006795Y023346D01*
X006729Y023362D01*
X006663Y023374D01*
X006595Y023382D01*
X006528Y023386D01*
X006460Y023387D01*
X006392Y023383D01*
X006325Y023375D01*
X006258Y023364D01*
X006193Y023348D01*
X006128Y023329D01*
X006064Y023306D01*
X006002Y023279D01*
X005941Y023249D01*
X005883Y023215D01*
X005826Y023178D01*
X005772Y023137D01*
X005720Y023094D01*
X005670Y023048D01*
X005624Y022998D01*
X005581Y022946D01*
X005540Y022892D01*
X005503Y022835D01*
X005469Y022777D01*
X005439Y022716D01*
X005412Y022654D01*
X005389Y022590D01*
X005370Y022525D01*
X005354Y022460D01*
X005343Y022393D01*
X005335Y022326D01*
X005331Y022258D01*
X005332Y022190D01*
X005336Y022123D01*
X005344Y022055D01*
X005356Y021989D01*
X005372Y021923D01*
X005392Y021858D01*
X005415Y021795D01*
X005442Y021733D01*
X005473Y021672D01*
X005507Y021614D01*
X005545Y021558D01*
X005585Y021504D01*
X005629Y021452D01*
X005676Y021403D01*
X005726Y021357D01*
X005778Y021314D01*
X005832Y021274D01*
X005889Y021237D01*
X005948Y021204D01*
X006009Y021174D01*
X006071Y021147D01*
X006135Y021125D01*
X006200Y021106D01*
X006266Y021091D01*
X006333Y021080D01*
X006400Y021072D01*
X006468Y021069D01*
X006468Y006108D01*
X006468Y006109D02*
X006400Y006106D01*
X006333Y006098D01*
X006266Y006087D01*
X006200Y006072D01*
X006135Y006053D01*
X006071Y006031D01*
X006009Y006004D01*
X005948Y005974D01*
X005889Y005941D01*
X005832Y005904D01*
X005778Y005864D01*
X005726Y005821D01*
X005676Y005775D01*
X005629Y005726D01*
X005585Y005674D01*
X005545Y005620D01*
X005507Y005564D01*
X005473Y005506D01*
X005442Y005445D01*
X005415Y005383D01*
X005392Y005320D01*
X005372Y005255D01*
X005356Y005189D01*
X005344Y005123D01*
X005336Y005055D01*
X005332Y004988D01*
X005331Y004920D01*
X005335Y004852D01*
X005343Y004785D01*
X005354Y004718D01*
X005370Y004653D01*
X005389Y004588D01*
X005412Y004524D01*
X005439Y004462D01*
X005469Y004401D01*
X005503Y004343D01*
X005540Y004286D01*
X005581Y004232D01*
X005624Y004180D01*
X005670Y004130D01*
X005720Y004084D01*
X005772Y004041D01*
X005826Y004000D01*
X005883Y003963D01*
X005941Y003929D01*
X006002Y003899D01*
X006064Y003872D01*
X006128Y003849D01*
X006193Y003830D01*
X006258Y003814D01*
X006325Y003803D01*
X006392Y003795D01*
X006460Y003791D01*
X006528Y003792D01*
X006595Y003796D01*
X006663Y003804D01*
X006729Y003816D01*
X006795Y003832D01*
X006860Y003852D01*
X006923Y003875D01*
X006985Y003902D01*
X007046Y003933D01*
X007104Y003967D01*
X007160Y004005D01*
X007214Y004045D01*
X007266Y004089D01*
X007315Y004136D01*
X007361Y004186D01*
X007404Y004238D01*
X007444Y004292D01*
X007481Y004349D01*
X007514Y004408D01*
X007544Y004469D01*
X007571Y004531D01*
X007593Y004595D01*
X007612Y004660D01*
X007627Y004726D01*
X007638Y004793D01*
X007646Y004860D01*
X007649Y004928D01*
X007649Y004927D02*
X019854Y004927D01*
D13*
X019387Y005846D03*
X018387Y005846D03*
X017387Y005846D03*
X017387Y006846D03*
X018387Y006846D03*
X019387Y006846D03*
D14*
X020287Y008915D03*
X020287Y009915D03*
X020287Y010915D03*
X020287Y011915D03*
X020287Y012915D03*
X020287Y013915D03*
D15*
X012900Y022246D02*
X012898Y022194D01*
X012892Y022143D01*
X012883Y022092D01*
X012870Y022042D01*
X012853Y021993D01*
X012833Y021945D01*
X012809Y021899D01*
X012782Y021855D01*
X012752Y021813D01*
X012719Y021773D01*
X012683Y021736D01*
X012645Y021701D01*
X012604Y021669D01*
X012560Y021641D01*
X012515Y021615D01*
X012468Y021593D01*
X012420Y021575D01*
X012370Y021560D01*
X012320Y021549D01*
X012269Y021541D01*
X012217Y021537D01*
X012165Y021537D01*
X012113Y021541D01*
X012062Y021549D01*
X012012Y021560D01*
X011962Y021575D01*
X011914Y021593D01*
X011867Y021615D01*
X011822Y021641D01*
X011778Y021669D01*
X011737Y021701D01*
X011699Y021736D01*
X011663Y021773D01*
X011630Y021813D01*
X011600Y021855D01*
X011573Y021899D01*
X011549Y021945D01*
X011529Y021993D01*
X011512Y022042D01*
X011499Y022092D01*
X011490Y022143D01*
X011484Y022194D01*
X011482Y022246D01*
D16*
X012014Y005991D03*
X015360Y005991D03*
D17*
X008026Y015357D03*
X008026Y016735D03*
M02*
