G75*
G70*
%OFA0B0*%
%FSLAX24Y24*%
%IPPOS*%
%LPD*%
%AMOC8*
5,1,8,0,0,1.08239X$1,22.5*
%
%ADD10C,0.0060*%
%ADD11C,0.0050*%
D10*
X002259Y002681D02*
X002203Y002738D01*
X002203Y002965D01*
X002259Y003021D01*
X002430Y003021D01*
X002430Y002681D01*
X002259Y002681D01*
X002571Y002681D02*
X002571Y003021D01*
X002798Y003021D02*
X002571Y002681D01*
X002798Y002681D02*
X002798Y003021D01*
X002939Y002965D02*
X002996Y003021D01*
X003110Y003021D01*
X003166Y002965D01*
X003166Y002738D01*
X003110Y002681D01*
X002996Y002681D01*
X002939Y002738D01*
X002939Y002851D01*
X003053Y002851D01*
X003053Y003681D02*
X002939Y003795D01*
X002939Y004021D01*
X002798Y003965D02*
X002798Y003738D01*
X002741Y003681D01*
X002628Y003681D01*
X002571Y003738D01*
X002430Y003738D02*
X002373Y003681D01*
X002259Y003681D01*
X002203Y003738D01*
X002203Y003965D02*
X002259Y004021D01*
X002373Y004021D01*
X002430Y003965D01*
X002430Y003738D01*
X002571Y003965D02*
X002628Y004021D01*
X002741Y004021D01*
X002798Y003965D01*
X003053Y003681D02*
X003166Y003795D01*
X003166Y004021D01*
X003141Y004681D02*
X003028Y004681D01*
X002971Y004738D01*
X002971Y005021D01*
X002830Y005021D02*
X002830Y004681D01*
X002603Y004681D02*
X002603Y005021D01*
X002461Y005021D02*
X002461Y004681D01*
X002234Y004681D01*
X002348Y004851D02*
X002461Y004851D01*
X002461Y005021D02*
X002234Y005021D01*
X002603Y004681D02*
X002830Y005021D01*
X003198Y005021D02*
X003198Y004738D01*
X003141Y004681D01*
X003339Y005021D02*
X003566Y005021D01*
X003453Y005021D02*
X003453Y004681D01*
X002816Y005681D02*
X002589Y005681D01*
X002448Y005681D02*
X002448Y006021D01*
X002221Y005681D01*
X002221Y006021D01*
X002589Y006021D02*
X002816Y006021D01*
X002816Y005681D01*
X002816Y005851D02*
X002703Y005851D01*
X003670Y011081D02*
X003784Y011081D01*
X003841Y011138D01*
X003614Y011365D01*
X003614Y011138D01*
X003670Y011081D01*
X003841Y011138D02*
X003841Y011365D01*
X003784Y011421D01*
X003670Y011421D01*
X003614Y011365D01*
X003645Y011781D02*
X003645Y012008D01*
X003759Y012121D01*
X003872Y012008D01*
X003872Y011781D01*
X004014Y011781D02*
X004014Y012121D01*
X004127Y012008D01*
X004241Y012121D01*
X004241Y011781D01*
X004382Y011781D02*
X004382Y012121D01*
X004609Y012121D02*
X004609Y011781D01*
X004495Y011895D01*
X004382Y011781D01*
X004280Y011421D02*
X004280Y011081D01*
X004393Y011081D02*
X004166Y011081D01*
X004025Y011081D02*
X004025Y011138D01*
X003968Y011138D01*
X003968Y011081D01*
X004025Y011081D01*
X004280Y011421D02*
X004393Y011308D01*
X004807Y011781D02*
X004750Y011838D01*
X004750Y012065D01*
X004807Y012121D01*
X004920Y012121D01*
X004977Y012065D01*
X004977Y011838D01*
X004920Y011781D01*
X004807Y011781D01*
X004903Y011421D02*
X004903Y011195D01*
X005016Y011081D01*
X005130Y011195D01*
X005130Y011421D01*
X005271Y011421D02*
X005498Y011421D01*
X005498Y011081D01*
X005271Y011081D01*
X005384Y011251D02*
X005498Y011251D01*
X005639Y011251D02*
X005696Y011195D01*
X005866Y011195D01*
X005753Y011195D02*
X005639Y011081D01*
X005639Y011251D02*
X005639Y011365D01*
X005696Y011421D01*
X005866Y011421D01*
X005866Y011081D01*
X005841Y011781D02*
X005898Y011781D01*
X005898Y011838D01*
X005841Y011838D01*
X005841Y011781D01*
X006096Y011838D02*
X006096Y012121D01*
X006153Y012121D02*
X006039Y012121D01*
X006096Y011838D02*
X006153Y011781D01*
X006210Y011781D01*
X006266Y011838D01*
X006105Y012481D02*
X005991Y012481D01*
X005934Y012538D01*
X005934Y012595D01*
X005991Y012651D01*
X006105Y012651D01*
X006161Y012708D01*
X006161Y012765D01*
X006105Y012821D01*
X005991Y012821D01*
X005934Y012765D01*
X005793Y012821D02*
X005793Y012481D01*
X005793Y012595D02*
X005623Y012595D01*
X005566Y012651D01*
X005566Y012765D01*
X005623Y012821D01*
X005793Y012821D01*
X005425Y012708D02*
X005425Y012481D01*
X005425Y012651D02*
X005198Y012651D01*
X005198Y012708D02*
X005198Y012481D01*
X005056Y012538D02*
X005056Y012765D01*
X005000Y012821D01*
X004886Y012821D01*
X004830Y012765D01*
X004830Y012538D02*
X004886Y012481D01*
X005000Y012481D01*
X005056Y012538D01*
X005198Y012708D02*
X005311Y012821D01*
X005425Y012708D01*
X005289Y012121D02*
X005175Y012121D01*
X005119Y012065D01*
X005175Y011951D02*
X005119Y011895D01*
X005119Y011838D01*
X005175Y011781D01*
X005289Y011781D01*
X005345Y011838D01*
X005289Y011951D02*
X005175Y011951D01*
X005289Y011951D02*
X005345Y012008D01*
X005345Y012065D01*
X005289Y012121D01*
X004688Y012481D02*
X004461Y012481D01*
X004320Y012481D02*
X004320Y012821D01*
X004093Y012821D01*
X003951Y012821D02*
X003951Y012481D01*
X003725Y012481D01*
X003583Y012481D02*
X003470Y012481D01*
X003526Y012481D02*
X003526Y012821D01*
X003470Y012821D02*
X003583Y012821D01*
X003338Y012765D02*
X003338Y012538D01*
X003281Y012481D01*
X003168Y012481D01*
X003111Y012538D01*
X003111Y012651D01*
X003224Y012651D01*
X003338Y012765D02*
X003281Y012821D01*
X003168Y012821D01*
X003111Y012765D01*
X002969Y012821D02*
X002969Y012481D01*
X002969Y012651D02*
X002742Y012651D01*
X002742Y012821D02*
X002742Y012481D01*
X002488Y012481D02*
X002488Y012821D01*
X002601Y012821D02*
X002374Y012821D01*
X003277Y012121D02*
X003277Y011781D01*
X003504Y012121D01*
X003504Y011781D01*
X003645Y011951D02*
X003872Y011951D01*
X004206Y012651D02*
X004320Y012651D01*
X004461Y012821D02*
X004688Y012821D01*
X004688Y012481D01*
X004688Y012651D02*
X004575Y012651D01*
X006105Y012481D02*
X006161Y012538D01*
X006671Y012538D02*
X006671Y012821D01*
X006671Y012538D02*
X006728Y012481D01*
X006841Y012481D01*
X006898Y012538D01*
X006898Y012821D01*
X007039Y012765D02*
X007096Y012821D01*
X007210Y012821D01*
X007266Y012765D01*
X007266Y012538D01*
X007210Y012481D01*
X007096Y012481D01*
X007039Y012538D01*
D11*
X007071Y011140D02*
X007071Y010960D01*
X007341Y010960D01*
X007341Y011140D01*
X007206Y011050D02*
X007206Y010960D01*
X007071Y010846D02*
X007341Y010846D01*
X007341Y010665D02*
X007071Y010846D01*
X007071Y010665D02*
X007341Y010665D01*
X007341Y010551D02*
X007116Y010551D01*
X007071Y010506D01*
X007071Y010416D01*
X007116Y010371D01*
X007341Y010371D01*
X007341Y010256D02*
X007341Y010076D01*
X007341Y010166D02*
X007071Y010166D01*
X007171Y008601D02*
X007441Y008601D01*
X007441Y008421D02*
X007171Y008601D01*
X007171Y008421D02*
X007441Y008421D01*
X007441Y008306D02*
X007441Y008126D01*
X007171Y008126D01*
X007171Y008306D01*
X007306Y008216D02*
X007306Y008126D01*
X007216Y006346D02*
X007171Y006301D01*
X007171Y006210D01*
X007216Y006165D01*
X007396Y006165D01*
X007441Y006210D01*
X007441Y006301D01*
X007396Y006346D01*
X007396Y006051D02*
X007441Y006006D01*
X007441Y005916D01*
X007396Y005871D01*
X007216Y005871D01*
X007171Y005916D01*
X007171Y006006D01*
X007216Y006051D01*
X007261Y005756D02*
X007171Y005666D01*
X007261Y005576D01*
X007441Y005576D01*
X007441Y005756D02*
X007261Y005756D01*
X007216Y004046D02*
X007396Y004046D01*
X007441Y004001D01*
X007441Y003865D01*
X007171Y003865D01*
X007171Y004001D01*
X007216Y004046D01*
X007171Y003751D02*
X007441Y003751D01*
X007441Y003571D02*
X007171Y003751D01*
X007171Y003571D02*
X007441Y003571D01*
X007396Y003456D02*
X007441Y003411D01*
X007441Y003321D01*
X007396Y003276D01*
X007216Y003276D01*
X007171Y003321D01*
X007171Y003411D01*
X007216Y003456D01*
X007306Y003456D01*
X007306Y003366D01*
M02*
